<?xml version="1.0" standalone="no"?>
<!DOCTYPE svg PUBLIC "-//W3C//DTD SVG 1.1//EN" "http://www.w3.org/Graphics/SVG/1.1/DTD/svg11.dtd" >
<svg xmlns="http://www.w3.org/2000/svg">
<metadata>
Created by FontPrep 20130207 at Tue Feb  2 09:49:45 2016
 By Eric Cheung
Copyright (c) Mark Simonson, 2005. All rights reserved.
</metadata>
<defs>
<font id="2c1459d58560f08b4b0586fbe80aa4cd" horiz-adv-x='1024' >
  <font-face 
    font-family="ProximaNova-Regular"
    font-weight="400"
    font-stretch="normal"
    units-per-em="2048"
    panose-1="2 0 5 6 3 0 0 2 0 4"
    ascent="1618"
    descent="-430"
    x-height="989"
    cap-height="1366"
    bbox="-350 -557 2216 1822"
    underline-thickness="40"
    underline-position="-231"
    unicode-range="U+0020-FB04"
  />
<missing-glyph horiz-adv-x="1038" 
d="M813 -123v1602h-590v-1602h590zM879 -184h-719v1724h719v-1724z" />
    <glyph glyph-name="f_f_j" unicode="ffj" horiz-adv-x="1622" 
d="M1185 -401q-132 0 -224 73l53 115q61 -61 138 -61t120 44t43 134v1085h153v-1085q0 -147 -75 -227q-76 -78 -208 -78zM1393 1130q-43 0 -74 30t-31 73t31 74t74 31t73 -32q30 -30 29 -73q1 -43 -29 -73t-73 -30zM932 0h-154v854h-164v135h164v76q0 152 79 237t208 84
q92 0 152 -32l-39 -117q-39 23 -88 23q-158 0 -158 -195v-76h201v-135h-201v-854zM350 0h-153v854h-164v135h164v76q0 152 77 237q78 84 207 84t211 -75l-63 -99q-53 47 -121 48q-158 0 -158 -195v-76h201v-135h-201v-854z" />
    <glyph glyph-name="f_j" unicode="fj" horiz-adv-x="1042" 
d="M889 -96q0 -147 -76 -226t-208 -79t-224 73l53 115q61 -61 138 -61t120 44t43 134v1085h154v-1085zM813 1130q-43 0 -74 30t-30 73q0 43 30 74q31 31 74 31t73 -32q30 -30 30 -73t-30 -73t-73 -30zM350 0h-153v854h-164v135h164v76q0 152 78 237q79 85 208 84
q92 0 152 -32l-39 -117q-39 23 -88 23q-158 0 -158 -195v-76h201v-135h-201v-854z" />
    <glyph glyph-name="f_f" unicode="ff" horiz-adv-x="1161" 
d="M932 0h-154v854h-164v135h164v76q0 152 78 237q78 84 207 84t211 -75l-64 -99q-53 47 -120 48q-158 0 -158 -195v-76h201v-135h-201v-854zM350 0h-153v854h-164v135h164v76q0 152 77 237q78 84 207 84t211 -75l-63 -99q-53 47 -121 48q-158 0 -158 -195v-76h201v-135
h-201v-854z" />
    <glyph glyph-name="fi" unicode="fi" horiz-adv-x="1042" 
d="M889 0h-154v989h154v-989zM813 1130q-43 0 -74 30t-30 73q0 43 30 74q31 31 74 31t73 -32q30 -30 30 -73t-30 -73t-73 -30zM350 0h-153v854h-164v135h164v76q0 152 78 237q79 85 208 84q92 0 152 -32l-39 -117q-39 23 -88 23q-158 0 -158 -195v-76h201v-135h-201v-854z
" />
    <glyph glyph-name="fl" unicode="fl" horiz-adv-x="1042" 
d="M889 0h-154v1366h154v-1366zM350 0h-153v854h-164v135h164v76q0 152 78 237q79 85 208 84q92 0 152 -32l-39 -117q-39 23 -88 23q-158 0 -158 -195v-76h201v-135h-201v-854z" />
    <glyph glyph-name="f_f_i" unicode="ffi" horiz-adv-x="1622" 
d="M1468 0h-153v989h153v-989zM1393 1130q-43 0 -74 30t-31 73t31 74t74 31t73 -32q30 -30 29 -73q1 -43 -29 -73t-73 -30zM932 0h-154v854h-164v135h164v76q0 152 79 237t208 84q92 0 152 -32l-39 -117q-39 23 -88 23q-158 0 -158 -195v-76h201v-135h-201v-854zM350 0h-153
v854h-164v135h164v76q0 152 77 237q78 84 207 84t211 -75l-63 -99q-53 47 -121 48q-158 0 -158 -195v-76h201v-135h-201v-854z" />
    <glyph glyph-name="f_f_l" unicode="ffl" horiz-adv-x="1622" 
d="M1468 0h-153v1366h153v-1366zM932 0h-154v854h-164v135h164v76q0 152 79 237t208 84q92 0 152 -32l-39 -117q-39 23 -88 23q-158 0 -158 -195v-76h201v-135h-201v-854zM350 0h-153v854h-164v135h164v76q0 152 77 237q78 84 207 84t211 -75l-63 -99q-53 47 -121 48
q-158 0 -158 -195v-76h201v-135h-201v-854z" />
    <glyph glyph-name="f_b" unicode="fb" horiz-adv-x="1759" 
d="M889 0h-154v1366h154v-526q129 174 330 174t323 -142t121 -380q0 -236 -122 -376q-121 -140 -323 -140t-329 171v-147zM1186 113q145 0 231 106q86 107 86 275t-86 276t-231 107q-90 -1 -173 -47t-124 -113v-449q41 -66 124 -110t173 -45zM350 0h-153v854h-164v135h164
v76q0 152 78 237q79 85 208 84q92 0 152 -32l-39 -117q-39 23 -88 23q-158 0 -158 -195v-76h201v-135h-201v-854z" />
    <glyph glyph-name="f_h" unicode="fh" horiz-adv-x="1712" 
d="M1559 0h-154v651q0 125 -57 175q-58 50 -154 50t-177 -44q-81 -46 -126 -109v-723h-154v1366h154v-520q55 70 151 119t201 49q315 0 316 -316v-698zM350 0h-153v854h-164v135h164v76q0 152 78 237q79 85 208 84q92 0 152 -32l-39 -117q-39 23 -88 23q-158 0 -158 -195
v-76h201v-135h-201v-854z" />
    <glyph glyph-name="f_k" unicode="fk" horiz-adv-x="1634" 
d="M889 0h-154v1366h154v-903l520 526h195l-439 -448l441 -541h-197l-354 444l-166 -161v-283zM350 0h-153v854h-164v135h164v76q0 152 78 237q79 85 208 84q92 0 152 -32l-39 -117q-39 23 -88 23q-158 0 -158 -195v-76h201v-135h-201v-854z" />
    <glyph glyph-name=".notdef" horiz-adv-x="1038" 
d="M813 -123v1602h-590v-1602h590zM879 -184h-719v1724h719v-1724z" />
    <glyph glyph-name=".null" horiz-adv-x="0" 
 />
    <glyph glyph-name="nonmarkingreturn" horiz-adv-x="681" 
 />
    <glyph glyph-name="space" unicode=" " horiz-adv-x="530" 
 />
    <glyph glyph-name="exclam" unicode="!" horiz-adv-x="471" 
d="M236 -20q-45 0 -79 34t-34 79q0 46 33 79t80 33q48 0 80 -33t32 -79q0 -45 -34 -79t-78 -34zM299 383h-127l-33 983h193z" />
    <glyph glyph-name="quotedbl" unicode="&#x22;" horiz-adv-x="704" 
d="M408 1298q0 34 27 61q28 27 67 27q40 0 66 -28t26 -66l-55 -448h-76q-55 420 -55 454zM111 1298q0 34 26 61q27 27 66 27t67 -28t27 -66l-55 -448h-76q-55 420 -55 454z" />
    <glyph glyph-name="numbersign" unicode="#" horiz-adv-x="1210" 
d="M649 479l137 408h-225l-137 -408h225zM614 0h-125l125 371h-227l-123 -371h-127l125 371h-217l35 108h219l135 408h-221l33 106h225l123 373h127l-123 -373h225l123 373h125l-125 -373h219l-30 -106h-224l-137 -408h227l-32 -108h-232z" />
    <glyph glyph-name="dollar" unicode="$" horiz-adv-x="1214" 
d="M307 1023q-1 -83 63 -128t185 -80v418q-111 -7 -179 -67t-69 -143zM940 368q0 89 -68 140t-192 88v-467q135 14 198 82q62 68 62 157zM555 -205v182q-293 18 -467 216l102 131q141 -168 365 -193v498q-97 27 -157 49q-180 68 -233 174q-34 66 -34 156q0 156 119 260
t305 118v187h125v-189q244 -20 405 -188l-102 -125q-119 131 -303 158v-447q263 -78 350 -168q87 -91 87 -242q-1 -150 -109 -264t-328 -131v-182h-125z" />
    <glyph glyph-name="percent" unicode="%" horiz-adv-x="1499" 
d="M1106 80q92 0 149 66t58 165q1 100 -57 167t-150 67t-150 -67t-59 -167q0 -100 58 -166q59 -65 151 -65zM393 817q90 0 149 66q58 66 58 166q0 101 -57 167t-149 66t-149 -67q-59 -67 -59 -167t58 -165q58 -66 149 -66zM1106 -25q-146 1 -238 97t-92 240t92 240t236 97
q144 0 237 -96q93 -95 93 -241t-92 -242t-236 -95zM375 0h-113l873 1366h114zM393 713q-145 0 -237 95q-92 94 -92 240t92 242t237 96t237 -96t93 -241q0 -145 -92 -241q-93 -95 -238 -95z" />
    <glyph glyph-name="ampersand" unicode="&#x26;" horiz-adv-x="1314" 
d="M616 1268q-76 0 -130 -56q-56 -56 -56 -149q0 -92 82 -232q133 66 202 127q68 60 68 144t-45 125t-121 41zM516 102q154 0 285 136q-241 251 -359 424q-203 -123 -202 -295q0 -123 80 -194t196 -71zM500 -25q-184 -1 -304 99t-120 282q0 146 80 238t221 170
q-205 352 -5 532q99 90 239 90t227 -71q86 -72 86 -208t-113 -227q-59 -48 -103 -75t-133 -72q66 -88 160 -194q74 -88 162 -183q90 139 147 314l132 -60q-90 -217 -187 -352q127 -131 266 -258h-213q-41 35 -149 143q-168 -168 -393 -168z" />
    <glyph glyph-name="quotesingle" unicode="'" horiz-adv-x="407" 
d="M111 1298q0 34 26 61q27 27 66 27t67 -28t27 -66l-55 -448h-76q-55 420 -55 454z" />
    <glyph glyph-name="parenleft" unicode="(" horiz-adv-x="507" 
d="M90 498q0 508 289 905l94 -70q-109 -213 -162 -403t-53 -431t53 -433t162 -402l-94 -72q-289 398 -289 906z" />
    <glyph glyph-name="parenright" unicode=")" horiz-adv-x="507" 
d="M250 499q0 241 -53 431t-162 403l94 70q289 -397 289 -905t-289 -906l-94 72q109 210 162 402t53 433z" />
    <glyph glyph-name="asterisk" unicode="*" horiz-adv-x="696" 
d="M395 797h-94l12 235l-198 -127l-45 80l209 107l-209 106l45 82l198 -129l-12 235h94l-12 -235l197 129l47 -82l-209 -106l209 -107l-47 -80l-197 127z" />
    <glyph glyph-name="plus" unicode="+" horiz-adv-x="1021" 
d="M963 637h-394v-436h-116v436h-394v106h394v424h116v-424h394v-106z" />
    <glyph glyph-name="comma" unicode="," horiz-adv-x="471" 
d="M236 205q50 0 87 -42t37 -123t-46 -164t-119 -136l-78 63q51 33 89 87t44 104q-8 -4 -39 -4t-59 30t-29 74q0 45 32 78q31 33 81 33z" />
    <glyph glyph-name="hyphen" unicode="-" horiz-adv-x="614" 
d="M553 428h-492v135h492v-135z" />
    <glyph glyph-name="period" unicode="." horiz-adv-x="473" 
d="M236 -20q-47 0 -80 32t-33 80q0 47 33 80t80 33q48 0 80 -33t32 -80q0 -48 -32 -80t-80 -32z" />
    <glyph glyph-name="slash" unicode="/" horiz-adv-x="606" 
d="M121 -41h-121l485 1448h121z" />
    <glyph glyph-name="zero" unicode="0" horiz-adv-x="1253" 
d="M627 127q123 0 205 85t112 204q31 119 31 266t-31 266t-113 203q-83 84 -205 84t-204 -84q-145 -149 -143 -469q1 -147 31 -266t112 -204t205 -85zM626 -25q-134 1 -238 63t-164 166t-90 226q-30 121 -30 252t30 252q69 278 254 390q104 62 238 62t238 -62t164 -166
t91 -224q30 -121 30 -252t-30 -252t-90 -225q-61 -104 -165 -167t-238 -63z" />
    <glyph glyph-name="one" unicode="1" horiz-adv-x="694" 
d="M535 0h-170v1143l-220 -234l-102 105l342 352h150v-1366z" />
    <glyph glyph-name="two" unicode="2" horiz-adv-x="1204" 
d="M109 1171q164 215 495 215q166 0 302 -104t136 -296t-163 -381q-164 -189 -500 -453h670v-152h-938v137q419 328 589 506t170 342q0 123 -85 186t-201 64q-236 0 -371 -172z" />
    <glyph glyph-name="three" unicode="3" horiz-adv-x="1140" 
d="M545 -25q-164 -1 -291 63t-195 163l101 106q62 -82 162 -131t233 -49t219 70q86 69 86 189t-91 179t-231 59t-159 -1v155q23 -2 151 -2t218 56t90 168q0 110 -87 172t-219 63q-207 0 -360 -166l-94 107q172 211 469 210q203 0 332 -97t129 -265q0 -135 -90 -217
t-203 -100q113 -13 214 -101t101 -250t-132 -271q-132 -110 -353 -110z" />
    <glyph glyph-name="four" unicode="4" horiz-adv-x="1142" 
d="M715 496v712l-479 -712h479zM885 0h-170v346h-649v141l585 879h234v-870h192v-150h-192v-346z" />
    <glyph glyph-name="five" unicode="5" horiz-adv-x="1208" 
d="M616 -25q-315 0 -481 220l105 114q141 -182 376 -182q139 0 228 84q88 84 88 213t-87 210t-227 81q-182 0 -315 -127l-125 43v735h836v-152h-666v-475q126 123 314 123t315 -117t127 -319t-138 -327q-138 -124 -350 -124z" />
    <glyph glyph-name="six" unicode="6" horiz-adv-x="1210" 
d="M618 127q154 0 237 90t83 216t-88 202t-206 76q-118 -1 -212 -57q-92 -56 -149 -146q12 -152 96 -266q85 -114 239 -115zM633 -25q-139 -1 -243 57q-188 104 -256 382q-30 123 -30 268q0 299 142 502t416 202q238 0 376 -163l-86 -127q-120 139 -298 139t-278 -158
t-100 -379v-53q51 82 159 148t229 65q194 0 320 -114t126 -310t-131 -328t-346 -131z" />
    <glyph glyph-name="seven" unicode="7" horiz-adv-x="1054" 
d="M63 1214v152h932v-117l-559 -1249h-188l551 1214h-736z" />
    <glyph glyph-name="eight" unicode="8" horiz-adv-x="1191" 
d="M595 127q132 0 225 66t93 160t-64 156q-109 104 -253 120q-146 -16 -253 -120q-65 -62 -64 -144q0 -106 92 -172t224 -66zM596 1235q-127 0 -211 -60t-84 -165q0 -58 33 -104q47 -66 180 -111q41 -15 82 -21q76 11 154 49q143 70 143 180q0 109 -85 171t-212 61zM596 -25
q-209 1 -349 101t-141 270q0 129 94 223t232 136q-131 37 -217 119t-86 208q0 172 139 263q140 91 328 91t328 -91t141 -263q0 -125 -87 -208t-218 -119q139 -41 232 -135t93 -224q0 -168 -140 -270t-349 -101z" />
    <glyph glyph-name="nine" unicode="9" horiz-adv-x="1210" 
d="M586 1237q-146 0 -230 -89t-84 -216t88 -203t208 -76q120 1 213 57t149 148q-12 136 -88 252q-39 57 -106 92t-150 35zM551 -23q-233 0 -379 164l86 127q119 -139 293 -139q131 0 221 82q164 149 164 455q0 35 -2 53q-52 -82 -158 -148t-227 -65q-195 0 -322 114
t-127 310t131 327t349 132q137 1 241 -57q190 -105 257 -382q30 -123 30 -292q0 -170 -57 -324t-187 -256t-313 -101z" />
    <glyph glyph-name="colon" unicode=":" horiz-adv-x="460" 
d="M236 -20q-47 0 -80 32t-33 80q0 47 33 80t80 33q48 0 80 -33t32 -80q0 -48 -32 -80t-80 -32zM236 778q-45 0 -79 34t-34 80t33 79t80 33q48 0 80 -33t32 -79t-34 -80t-78 -34z" />
    <glyph glyph-name="semicolon" unicode=";" horiz-adv-x="471" 
d="M236 209q50 0 87 -42t37 -124t-46 -164t-119 -135l-78 61q49 33 88 89t45 104q-8 -4 -39 -4t-59 30t-29 74q0 44 32 78q31 33 81 33zM236 778q-45 0 -79 34t-34 80t33 79t80 33q48 0 80 -33t32 -79t-34 -80t-78 -34z" />
    <glyph glyph-name="less" unicode="&#x3c;" horiz-adv-x="1021" 
d="M963 184l-904 447v108l904 449v-129l-773 -375l773 -371v-129z" />
    <glyph glyph-name="equal" unicode="=" horiz-adv-x="1021" 
d="M963 432h-904v109h904v-109zM963 827h-904v109h904v-109z" />
    <glyph glyph-name="greater" unicode="&#x3e;" horiz-adv-x="1021" 
d="M963 631l-904 -447v129l772 371l-772 375v129l904 -449v-108z" />
    <glyph glyph-name="question" unicode="?" horiz-adv-x="946" 
d="M459 -20q-45 0 -79 32t-34 80q0 47 34 80t79 33t79 -33t34 -80t-34 -80q-34 -32 -79 -32zM338 532q0 87 38 144t92 97t108 77q130 89 131 194q-1 82 -63 136t-177 55q-203 0 -328 -168l-102 111q160 209 444 208q182 0 292 -91t110 -226q0 -86 -41 -155
q-42 -70 -100 -112t-115 -81q-140 -96 -140 -189q0 -61 54 -98l-125 -55q-78 66 -78 153z" />
    <glyph glyph-name="at" unicode="@" horiz-adv-x="1603" 
d="M707 289q176 0 303 184l59 285q-21 57 -75 103t-136 46q-150 0 -255 -119t-105 -272q0 -100 55 -164q56 -63 154 -63zM721 -143q-279 0 -464 185t-185 458q0 328 244 568t569 239q285 1 465 -187t180 -463q0 -225 -106 -354t-248 -129q-82 0 -133 48q-50 48 -54 118v14
q-55 -80 -143 -130t-182 -50q-141 0 -228 92q-86 92 -86 242q0 210 148 362t333 152q94 0 163 -45t100 -115l26 127h140l-117 -555q-4 -24 -4 -58q-1 -34 27 -63t69 -28q79 0 151 92t72 280q0 254 -161 417t-418 163q-295 0 -515 -222t-221 -511q0 -248 166 -414t420 -166
q199 0 381 115l37 -53q-201 -129 -426 -129z" />
    <glyph glyph-name="A" unicode="A" horiz-adv-x="1347" 
d="M965 455l-291 737l-289 -737h580zM1329 0h-194l-121 305h-680l-121 -305h-195l551 1366h211z" />
    <glyph glyph-name="B" unicode="B" horiz-adv-x="1288" 
d="M750 152q120 0 186 63t66 167t-67 172q-67 69 -185 69h-420v-471h420zM739 774q113 0 174 62t62 157q-1 97 -63 159t-173 62h-409v-440h409zM782 0h-622v1366h608q176 0 280 -96t103 -236q0 -140 -70 -224q-70 -85 -170 -105q109 -17 188 -115t79 -221q0 -165 -106 -267
t-290 -102z" />
    <glyph glyph-name="C" unicode="C" horiz-adv-x="1384" 
d="M818 -25q-310 0 -512 198t-202 509t202 509t501 198q330 0 518 -271l-141 -80q-58 90 -160 144t-217 55q-227 0 -377 -156q-150 -157 -150 -399t152 -398q150 -156 375 -157q115 0 216 55t161 144l143 -78q-199 -273 -509 -273z" />
    <glyph glyph-name="D" unicode="D" horiz-adv-x="1433" 
d="M627 152q242 0 383 152t141 379q0 228 -139 380t-385 151h-297v-1062h297zM627 0h-467v1366h467q313 0 507 -195t194 -491t-194 -488q-192 -192 -507 -192z" />
    <glyph glyph-name="E" unicode="E" horiz-adv-x="1165" 
d="M1055 0h-895v1366h895v-152h-725v-440h710v-151h-710v-471h725v-152z" />
    <glyph glyph-name="F" unicode="F" horiz-adv-x="1128" 
d="M330 0h-170v1366h895v-152h-725v-440h710v-151h-710v-623z" />
    <glyph glyph-name="G" unicode="G" horiz-adv-x="1460" 
d="M822 -27q-312 0 -515 198t-203 511t202 510t514 197t517 -254l-135 -86q-66 86 -171 137t-224 51q-227 0 -377 -156q-150 -157 -150 -399t152 -398q150 -156 375 -157q113 0 211 44t158 103v277h-471v151h638v-491q-209 -238 -521 -238z" />
    <glyph glyph-name="H" unicode="H" horiz-adv-x="1458" 
d="M1298 0h-170v627h-798v-627h-170v1366h170v-588h798v588h170v-1366z" />
    <glyph glyph-name="I" unicode="I" horiz-adv-x="489" 
d="M330 0h-170v1366h170v-1366z" />
    <glyph glyph-name="J" unicode="J" horiz-adv-x="972" 
d="M813 412q-1 -213 -121 -325t-327 -112t-342 158l90 129q109 -135 245 -135t210 79t75 208v952h170v-954z" />
    <glyph glyph-name="K" unicode="K" horiz-adv-x="1230" 
d="M330 0h-170v1366h170v-704l604 704h213l-569 -647l620 -719h-213l-518 614l-137 -155v-459z" />
    <glyph glyph-name="L" unicode="L" horiz-adv-x="1009" 
d="M942 0h-805v1366h170v-1214h635v-152z" />
    <glyph glyph-name="M" unicode="M" horiz-adv-x="1656" 
d="M1497 0h-170v1149l-463 -1149h-69l-465 1149v-1149h-170v1366h243l426 -1053l424 1053h244v-1366z" />
    <glyph glyph-name="N" unicode="N" horiz-adv-x="1449" 
d="M1290 0h-164l-796 1090v-1090h-170v1366h174l786 -1067v1067h170v-1366z" />
    <glyph glyph-name="O" unicode="O" horiz-adv-x="1566" 
d="M281 682q0 -242 137 -398t363 -157q226 0 366 157q139 156 139 398t-139 398t-365 157q-226 0 -364 -156q-137 -157 -137 -399zM782 -25q-299 0 -488 201t-190 506q0 305 190 506t488 201q300 0 490 -201t190 -506t-190 -506t-490 -201z" />
    <glyph glyph-name="P" unicode="P" horiz-adv-x="1202" 
d="M688 694q121 0 197 73t76 187t-76 188q-76 73 -197 72h-358v-520h358zM330 0h-170v1366h549q199 0 313 -119t115 -293q0 -174 -116 -292t-312 -119h-379v-543z" />
    <glyph glyph-name="Q" unicode="Q" horiz-adv-x="1566" 
d="M782 127q145 0 260 70l-194 211l119 100l192 -209q127 157 127 391t-139 390t-365 157q-226 0 -364 -156q-137 -157 -137 -399t137 -398t364 -157zM782 -25q-299 0 -488 201t-190 506q0 305 190 506t488 201q300 0 490 -201t190 -506t-188 -506l129 -137l-117 -102
l-133 141q-160 -103 -371 -103z" />
    <glyph glyph-name="R" unicode="R" horiz-adv-x="1247" 
d="M688 692q121 0 198 74t77 190t-77 187q-77 72 -198 71h-358v-522h358zM330 543v-543h-170v1366h549q190 0 310 -113t120 -294q1 -181 -103 -285t-254 -117l369 -557h-201l-346 543h-274z" />
    <glyph glyph-name="S" unicode="S" horiz-adv-x="1200" 
d="M602 -25q-332 0 -524 218l102 131q170 -197 428 -197q166 0 244 72t78 160t-60 142t-150 79q-263 74 -371 115q-228 88 -228 313q0 168 133 274t338 107q301 0 483 -193l-102 -125q-145 164 -395 164q-123 0 -202 -60q-79 -61 -79 -145t60 -131q59 -47 149 -70
q221 -57 390 -128q89 -38 150 -121q60 -84 60 -203q0 -166 -124 -284t-380 -118z" />
    <glyph glyph-name="T" unicode="T" horiz-adv-x="1167" 
d="M668 0h-170v1214h-432v152h1036v-152h-434v-1214z" />
    <glyph glyph-name="U" unicode="U" horiz-adv-x="1435" 
d="M1276 532q0 -260 -144 -408t-414 -149q-270 1 -414 149t-144 406v836h172v-831q0 -190 99 -299t285 -109t288 109q100 109 100 299v831h172v-834z" />
    <glyph glyph-name="V" unicode="V" horiz-adv-x="1347" 
d="M780 0h-211l-551 1366h195l461 -1180l461 1180h194z" />
    <glyph glyph-name="W" unicode="W" horiz-adv-x="1808" 
d="M1389 0h-185l-301 1102l-301 -1102h-184l-389 1366h188l303 -1139l314 1139h141l313 -1139l301 1139h191z" />
    <glyph glyph-name="X" unicode="X" horiz-adv-x="1335" 
d="M1311 0h-207l-436 582l-437 -582h-206l532 700l-502 666h207l406 -545l403 545h209l-502 -664z" />
    <glyph glyph-name="Y" unicode="Y" horiz-adv-x="1282" 
d="M727 0h-170v578l-539 788h199l424 -635l424 635h199l-537 -788v-578z" />
    <glyph glyph-name="Z" unicode="Z" horiz-adv-x="1198" 
d="M1100 0h-1002v141l768 1073h-768v152h987v-141l-770 -1073h785v-152z" />
    <glyph glyph-name="bracketleft" unicode="[" horiz-adv-x="497" 
d="M463 -389h-381v1778h381v-113h-260v-1552h260v-113z" />
    <glyph glyph-name="backslash" unicode="\" horiz-adv-x="606" 
d="M485 -41l-485 1448h121l485 -1448h-121z" />
    <glyph glyph-name="bracketright" unicode="]" horiz-adv-x="497" 
d="M418 -389h-383v113h262v1552h-262v113h383v-1778z" />
    <glyph glyph-name="asciicircum" unicode="^" horiz-adv-x="884" 
d="M846 682h-127l-277 571l-276 -571h-127l346 684h117z" />
    <glyph glyph-name="underscore" unicode="_" horiz-adv-x="1155" 
d="M1161 -195h-1167v113h1167v-113z" />
    <glyph glyph-name="grave" unicode="`" horiz-adv-x="462" 
d="M463 1139h-117l-346 295h160z" />
    <glyph glyph-name="grave" unicode="&#x2cb;" horiz-adv-x="462" 
d="M463 1139h-117l-346 295h160z" />
    <glyph glyph-name="a" unicode="a" horiz-adv-x="1081" 
d="M502 86q182 0 270 123v188q-90 121 -270 121q-110 0 -178 -60t-68 -156t68 -156t178 -60zM926 0h-154v113q-121 -137 -328 -138q-135 0 -239 88q-105 88 -105 243t102 239t242 84q209 0 328 -133v178q0 96 -70 151t-180 56q-178 0 -303 -138l-72 107q158 164 396 164
q170 0 276 -82t107 -252v-680z" />
    <glyph glyph-name="b" unicode="b" horiz-adv-x="1177" 
d="M307 0h-153v1366h153v-526q129 174 330 174t323 -142t121 -380q0 -236 -122 -376q-121 -140 -323 -140t-329 171v-147zM604 113q145 0 232 106q86 107 86 275t-86 276t-232 107q-90 -1 -173 -47t-124 -113v-449q41 -66 124 -110t173 -45z" />
    <glyph glyph-name="c" unicode="c" horiz-adv-x="1015" 
d="M595 -25q-223 1 -361 149t-138 372t137 370q137 148 361 148t358 -172l-102 -92q-92 127 -249 127t-251 -108q-94 -109 -94 -275t94 -274t249 -108t251 130l102 -95q-133 -172 -357 -172z" />
    <glyph glyph-name="d" unicode="d" horiz-adv-x="1177" 
d="M575 113q88 0 171 46t124 111v447q-41 67 -124 113t-171 47q-147 0 -233 -108q-86 -107 -86 -275t86 -274t233 -107zM1024 0h-154v147q-126 -172 -328 -172q-202 1 -324 141t-122 377t123 379t323 142t328 -174v526h154v-1366z" />
    <glyph glyph-name="e" unicode="e" horiz-adv-x="1153" 
d="M907 559q-2 125 -86 226t-235 101q-150 0 -236 -100t-92 -227h649zM608 -25q-230 1 -370 145q-142 144 -142 368t140 376q140 150 353 150q214 0 342 -151t128 -380v-39h-799q10 -145 106 -243q96 -99 264 -99t292 127l73 -100q-157 -154 -387 -154z" />
    <glyph glyph-name="f" unicode="f" horiz-adv-x="581" 
d="M350 0h-153v854h-164v135h164v76q0 152 77 237q78 84 207 84t211 -75l-63 -99q-53 47 -121 48q-158 0 -158 -195v-76h201v-135h-201v-854z" />
    <glyph glyph-name="g" unicode="g" horiz-adv-x="1177" 
d="M575 125q88 0 170 46t125 114v434q-43 65 -125 111t-170 47q-147 -1 -233 -105t-86 -271t86 -271t233 -105zM551 -401q-129 1 -221 33t-178 116l77 111q113 -133 322 -133q135 0 227 70t92 218v150q-57 -80 -145 -128t-188 -48q-197 0 -319 138t-122 374t122 374t323 140
q201 0 329 -174v149h154v-975q0 -217 -134 -316t-339 -99z" />
    <glyph glyph-name="h" unicode="h" horiz-adv-x="1130" 
d="M977 0h-154v651q0 125 -57 175q-58 50 -154 50t-177 -44q-81 -46 -126 -109v-723h-153v1366h153v-520q55 70 151 119t202 49q315 0 315 -316v-698z" />
    <glyph glyph-name="i" unicode="i" horiz-adv-x="460" 
d="M307 0h-153v989h153v-989zM231 1130q-43 0 -73 30t-31 73q0 43 31 74q32 31 74 31t72 -32q30 -30 30 -73t-30 -73t-73 -30z" />
    <glyph glyph-name="j" unicode="j" horiz-adv-x="460" 
d="M307 -96q0 -147 -76 -226t-208 -79t-224 73l54 115q61 -61 138 -61t120 44t43 134v1085h153v-1085zM231 1130q-43 0 -73 30t-31 73q0 43 31 74q32 31 74 31t72 -32q30 -30 30 -73t-30 -73t-73 -30z" />
    <glyph glyph-name="k" unicode="k" horiz-adv-x="1052" 
d="M307 0h-153v1366h153v-903l520 526h195l-438 -448l440 -541h-197l-354 444l-166 -161v-283z" />
    <glyph glyph-name="l" unicode="l" horiz-adv-x="460" 
d="M307 0h-153v1366h153v-1366z" />
    <glyph glyph-name="m" unicode="m" horiz-adv-x="1654" 
d="M1501 0h-153v672q0 205 -183 205q-73 0 -147 -44t-115 -108v-725h-153v672q0 205 -183 205q-73 1 -145 -45t-115 -109v-723h-153v989h153v-143q39 59 130 113q91 55 195 55t171 -51q68 -51 90 -134q45 74 137 129t195 56q276 0 276 -299v-715z" />
    <glyph glyph-name="n" unicode="n" horiz-adv-x="1130" 
d="M975 0h-152v647q1 227 -211 229q-98 0 -178 -44q-80 -46 -127 -109v-723h-153v989h153v-143q57 70 153 119t202 49q313 0 313 -320v-694z" />
    <glyph glyph-name="o" unicode="o" horiz-adv-x="1171" 
d="M586 113q152 -1 240 111t87 272q0 160 -88 270q-87 110 -239 111q-152 0 -240 -111q-88 -110 -88 -270t88 -272t240 -111zM586 -25q-221 0 -356 150q-134 150 -134 371t134 369q134 149 356 149t355 -148q134 -148 134 -370q0 -221 -134 -371t-355 -150z" />
    <glyph glyph-name="p" unicode="p" horiz-adv-x="1171" 
d="M602 113q145 0 232 107q86 108 86 276t-86 274t-232 107q-88 -1 -171 -47t-124 -111v-447q41 -68 124 -114t171 -45zM641 1014q197 0 319 -140t121 -378q1 -238 -121 -380t-322 -141q-200 0 -331 175v-527h-153v1366h153v-147q55 78 143 125t191 47z" />
    <glyph glyph-name="q" unicode="q" horiz-adv-x="1171" 
d="M533 -25q-199 -1 -321 141t-122 380t122 378t318 140q102 0 190 -47t144 -125v147h154v-1366h-154v527q-131 -175 -331 -175zM569 113q88 0 171 46t124 113v447q-41 65 -124 111t-171 47q-145 -1 -231 -107t-86 -274t86 -276t231 -107z" />
    <glyph glyph-name="r" unicode="r" horiz-adv-x="675" 
d="M307 0h-153v989h153v-158q141 180 330 181v-158q-37 4 -59 4q-72 0 -154 -48t-117 -110v-700z" />
    <glyph glyph-name="s" unicode="s" horiz-adv-x="952" 
d="M469 -25q-250 0 -399 156l77 111q51 -58 141 -100t192 -42q104 0 166 47t62 118t-62 109q-64 38 -154 57t-180 45t-152 88q-64 62 -64 174t98 194t269 82q227 0 366 -144l-71 -106q-104 125 -295 125q-99 0 -159 -44q-60 -45 -60 -103q0 -106 157 -137q157 -32 296 -88
q69 -28 114 -90t45 -153q0 -131 -102 -215t-285 -84z" />
    <glyph glyph-name="t" unicode="t" horiz-adv-x="602" 
d="M340 240q0 -128 108 -128q56 0 95 44l45 -117q-67 -64 -182 -64q-221 0 -222 232v647h-164v135h164v271h156v-271h201v-135h-201v-614z" />
    <glyph glyph-name="u" unicode="u" horiz-adv-x="1128" 
d="M307 338q0 -225 212 -225q97 0 177 43t125 106v727h154v-989h-154v139q-61 -71 -154 -117t-198 -47q-315 0 -315 316v698h153v-651z" />
    <glyph glyph-name="v" unicode="v" horiz-adv-x="1003" 
d="M586 0h-168l-412 989h168l328 -811l329 811h166z" />
    <glyph glyph-name="w" unicode="w" horiz-adv-x="1503" 
d="M1165 0h-155l-258 795l-258 -795h-154l-315 989h159l242 -788l260 788h133l258 -788l242 788h162z" />
    <glyph glyph-name="x" unicode="x" horiz-adv-x="997" 
d="M973 0h-176l-299 406l-297 -406h-176l378 508l-358 481h178l275 -377l276 377h176l-358 -481z" />
    <glyph glyph-name="y" unicode="y" horiz-adv-x="1003" 
d="M210 -264q50 0 85 22t59 82l66 150l-414 999h168l328 -811l329 811h166l-495 -1190q-82 -197 -291 -200q-64 0 -111 14l23 139q37 -16 87 -16z" />
    <glyph glyph-name="z" unicode="z" horiz-adv-x="966" 
d="M860 0h-754v121l545 733h-545v135h746v-117l-549 -737h557v-135z" />
    <glyph glyph-name="braceleft" unicode="{" horiz-adv-x="534" 
d="M500 -389h-127q-102 0 -178 77t-76 197v422q0 61 -28 101t-81 41v102q53 0 81 40t28 101v420q0 123 76 200t178 77h127v-113h-127q-55 0 -95 -46t-40 -116v-434q0 -141 -93 -180q92 -39 93 -181v-432q0 -71 40 -117t95 -46h127v-113z" />
    <glyph glyph-name="bar" unicode="|" horiz-adv-x="432" 
d="M272 -41h-112v1448h112v-1448z" />
    <glyph glyph-name="braceright" unicode="}" horiz-adv-x="534" 
d="M35 -389v113h125q55 0 96 47t41 116v432q0 141 92 181q-92 39 -92 180v434q0 70 -40 116t-97 46h-125v113h125q102 0 179 -77t77 -200v-420q0 -61 28 -101t78 -40v-102q-51 0 -79 -40t-27 -102v-422q0 -121 -77 -197t-179 -77h-125z" />
    <glyph glyph-name="asciitilde" unicode="~" horiz-adv-x="1030" 
d="M693 866q-73 0 -121 40t-72 98t-42 114q-46 137 -120 137q-129 0 -168 -391l-115 15q35 355 158 446q53 39 125 39t120 -40t72 -98t42 -116q45 -138 120 -137q129 0 168 393l113 -12q-20 -212 -72 -335q-63 -153 -208 -153z" />
    <glyph glyph-name="nbspace" unicode="&#xa0;" horiz-adv-x="530" 
 />
    <glyph glyph-name="exclamdown" unicode="&#xa1;" horiz-adv-x="471" 
d="M123 897q0 45 33 79t79 34q47 0 79 -33t32 -79t-33 -79t-77 -33t-79 33q-34 33 -34 78zM139 -377l31 983h129l33 -983h-193z" />
    <glyph glyph-name="cent" unicode="&#xa2;" horiz-adv-x="1015" 
d="M256 496q0 -144 70 -246t190 -129v747q-120 -27 -190 -128t-70 -244zM516 -205v187q-188 25 -304 168t-116 345t116 344t304 169v149h121v-145q193 -16 315 -170l-102 -92q-82 113 -213 124v-759q129 12 213 127l102 -95q-119 -154 -315 -170v-182h-121z" />
    <glyph glyph-name="sterling" unicode="&#xa3;" horiz-adv-x="1060" 
d="M41 549v110h215q-57 66 -79 94q-23 29 -51 95t-28 135q0 168 135 286t324 117q139 0 248 -60t166 -169l-137 -82q-27 70 -99 119q-71 49 -177 49t-190 -72t-85 -180q0 -108 53 -189q16 -26 57 -76t53 -67h308v-110h-250q14 -47 14 -88q0 -160 -156 -271q55 18 115 18
t150 -41q90 -42 149 -42q60 0 114 26t77 56l73 -137q-100 -96 -276 -97q-96 0 -194 47q-98 48 -179 48q-80 0 -235 -82l-60 129q131 57 201 138t70 157t-31 139h-295z" />
    <glyph glyph-name="currency" unicode="&#xa4;" horiz-adv-x="1069" 
d="M885 682q-1 146 -103 248t-247 102t-247 -102t-104 -248q0 -146 102 -248t248 -102t248 102t103 248zM86 684q0 160 102 285l-114 116l57 58l117 -115q121 102 285 102t288 -102l115 115l59 -58l-114 -116q102 -125 102 -285t-102 -289l114 -114l-59 -60l-115 117
q-123 -104 -287 -104t-286 104l-117 -117l-57 60l114 114q-102 129 -102 289z" />
    <glyph glyph-name="yen" unicode="&#xa5;" horiz-adv-x="1282" 
d="M727 0h-170v250h-512v108h512v220h-512v106h438l-465 682h199l424 -635l424 635h199l-465 -682h440v-106h-512v-220h512v-108h-512v-250z" />
    <glyph glyph-name="brokenbar" unicode="&#xa6;" horiz-adv-x="432" 
d="M272 760h-112v647h112v-647zM272 -41h-112v647h112v-647z" />
    <glyph glyph-name="section" unicode="&#xa7;" horiz-adv-x="958" 
d="M473 813q-229 -59 -229 -193q0 -62 45 -101q45 -38 105 -58t141 -37q170 74 170 203q-1 79 -63 119t-169 67zM856 645q0 -180 -188 -260q188 -74 188 -250q0 -141 -106 -221t-281 -80q-236 0 -399 160l77 100q121 -145 322 -145q106 0 173 47t67 123q1 75 -63 115
t-154 62t-180 48t-152 89q-64 63 -64 163t67 167t167 93q-233 74 -234 254q0 117 100 197t267 79q238 0 366 -145l-71 -92q-102 123 -289 123q-101 0 -163 -45t-62 -109q0 -112 157 -146t296 -87q69 -27 114 -89t45 -151z" />
    <glyph glyph-name="dieresis" unicode="&#xa8;" horiz-adv-x="557" 
d="M162 1237q0 -39 -28 -67t-66 -28t-68 28q-29 28 -29 67t28 67t68 28q39 0 67 -28t28 -67zM586 1237q0 -39 -29 -67t-68 -28t-67 28t-27 67q0 39 28 67q27 28 67 28t68 -28t28 -67z" />
    <glyph glyph-name="copyright" unicode="&#xa9;" horiz-adv-x="1593" 
d="M804 248q-181 0 -305 127t-124 313t124 310t306 124t295 -133l-51 -51q-39 53 -108 85t-140 32q-143 1 -247 -103t-103 -264q0 -160 104 -266t246 -107q75 0 141 33t107 86l53 -51q-117 -135 -298 -135zM1440 685q0 265 -188 453t-454 189q-264 0 -454 -188
q-190 -187 -190 -453t189 -456t455 -189q266 -1 454 189t188 455zM1503 684q0 -293 -207 -500q-208 -207 -500 -207t-499 208t-207 500t207 499t500 207t499 -207t207 -500z" />
    <glyph glyph-name="ordfeminine" unicode="&#xaa;" horiz-adv-x="774" 
d="M358 729q115 0 177 78v115q-61 78 -177 77q-68 1 -112 -37t-43 -98q-1 -60 43 -98q44 -37 112 -37zM651 668h-116v71q-84 -88 -222 -88q-89 -1 -159 57t-70 157t69 155t160 55q139 0 222 -86v113q1 61 -47 97t-117 36q-121 0 -201 -94l-53 78q106 109 268 108
q117 0 192 -55t74 -172v-432z" />
    <glyph glyph-name="guillemotleft" unicode="&#xab;" horiz-adv-x="899" 
d="M543 129h-154l-328 369l328 362h154l-328 -362zM838 129h-154l-328 369l328 362h154l-328 -362z" />
    <glyph glyph-name="logicalnot" unicode="&#xac;" horiz-adv-x="1032" 
d="M963 936v-504h-113v395h-791v109h904z" />
    <glyph glyph-name="registered" unicode="&#xae;" horiz-adv-x="1011" 
d="M543 958q33 0 61 27t29 65q0 38 -28 66t-62 27h-137v-185h137zM406 899v-197h-66v498h203q65 0 111 -42t46 -112t-46 -107q-46 -38 -81 -38l134 -199h-82l-129 197h-90zM131 954q0 -156 110 -266q109 -110 265 -110t266 110t109 266q0 156 -110 265q-109 109 -265 109
t-266 -110q-110 -108 -109 -264zM72 952q0 180 127 308t308 126q181 0 307 -126t126 -307t-127 -308t-307 -127t-307 127t-127 307z" />
    <glyph glyph-name="macron" unicode="&#xaf;" horiz-adv-x="743" 
d="M743 1210h-743v99h743v-99z" />
    <glyph glyph-name="macron" unicode="&#x203e;" horiz-adv-x="743" 
d="M743 1210h-743v99h743v-99z" />
    <glyph glyph-name="degree" unicode="&#xb0;" horiz-adv-x="593" 
d="M449 1137q1 61 -45 106t-107 45t-105 -45t-45 -107q0 -62 43 -106q44 -44 106 -43t108 45t45 105zM547 1136q0 -102 -74 -176t-177 -74t-176 74q-73 72 -73 176t73 177t176 73t177 -74t74 -176z" />
    <glyph glyph-name="plusminus" unicode="&#xb1;" horiz-adv-x="1021" 
d="M963 0h-904v109h904v-109zM963 664h-394v-437h-116v437h-394v106h394v424h116v-424h394v-106z" />
    <glyph glyph-name="twosuperior" unicode="&#xb2;" 
d="M698 862h-596v92q256 184 362 290t107 190q0 84 -51 122t-123 37t-133 -31t-96 -75l-68 78q102 129 301 129q123 0 208 -62t85 -177t-102 -229t-309 -263h415v-101z" />
    <glyph glyph-name="threesuperior" unicode="&#xb3;" 
d="M702 1076q0 -97 -82 -163t-227 -65q-211 0 -307 133l68 78q88 -111 237 -111q88 0 138 39t51 105q0 141 -213 141q-70 0 -82 -2v102q14 -2 82 -2q201 0 200 131q0 60 -52 96t-132 35q-131 0 -223 -98l-64 72q113 127 299 127q131 0 212 -60t81 -150q0 -91 -55 -139
t-127 -59q72 -8 134 -60t62 -150z" />
    <glyph glyph-name="acute" unicode="&#xb4;" horiz-adv-x="462" 
d="M463 1434l-346 -295h-117l303 295h160z" />
    <glyph glyph-name="mu" unicode="&#xb5;" horiz-adv-x="1128" 
d="M307 -377h-153v1366h153v-651q-1 -125 57 -177t154 -52t177 45t126 108v727h154v-989h-154v139q-61 -71 -154 -117t-193 -46t-167 28v-381z" />
    <glyph glyph-name="mu" unicode="&#x3bc;" horiz-adv-x="1128" 
d="M307 -377h-153v1366h153v-651q-1 -125 57 -177t154 -52t177 45t126 108v727h154v-989h-154v139q-61 -71 -154 -117t-193 -46t-167 28v-381z" />
    <glyph glyph-name="paragraph" unicode="&#xb6;" horiz-adv-x="919" 
d="M774 -205h-92v1479h-182v-1479h-92v867q-145 0 -249 103q-103 103 -103 249t102 248q104 104 250 104h366v-1571z" />
    <glyph glyph-name="periodcentered" unicode="&#xb7;" horiz-adv-x="473" 
d="M348 501q0 -46 -33 -79t-79 -33t-80 33q-33 33 -33 79t34 79q34 32 79 32q44 0 78 -32t34 -79z" />
    <glyph glyph-name="periodcentered" unicode="&#x2219;" horiz-adv-x="473" 
d="M348 501q0 -46 -33 -79t-79 -33t-80 33q-33 33 -33 79t34 79q34 32 79 32q44 0 78 -32t34 -79z" />
    <glyph glyph-name="cedilla" unicode="&#xb8;" horiz-adv-x="419" 
d="M420 -234q0 -68 -60 -112q-60 -45 -172 -45q-110 0 -188 61l39 78q74 -59 164 -59q53 1 89 23t36 63q0 72 -76 71q-49 0 -78 -34l-68 38l64 173h92l-53 -136q29 23 82 23t91 -38t38 -106z" />
    <glyph glyph-name="onesuperior" unicode="&#xb9;" horiz-adv-x="481" 
d="M358 862h-122v660l-136 -142l-71 76l221 225h108v-819z" />
    <glyph glyph-name="ordmasculine" unicode="&#xba;" horiz-adv-x="829" 
d="M415 750q97 0 154 68t58 171q1 102 -57 170t-155 68t-153 -68t-57 -171q0 -103 56 -171q57 -67 154 -67zM416 651q-150 1 -242 99t-92 240t91 240t242 97q151 0 241 -97q90 -96 92 -240q0 -144 -91 -242t-241 -97z" />
    <glyph glyph-name="guillemotright" unicode="&#xbb;" horiz-adv-x="899" 
d="M838 498l-328 -369h-154l328 369l-328 362h154zM543 498l-328 -369h-154l328 369l-328 362h154z" />
    <glyph glyph-name="onequarter" unicode="&#xbc;" horiz-adv-x="1576" 
d="M358 547h-122v659l-136 -141l-71 76l221 225h108v-819zM1262 305v406l-279 -406h279zM1501 205h-117v-205h-122v205h-402v92l354 522h170v-514h117v-100zM1208 1366l-874 -1366h-111l873 1366h112z" />
    <glyph glyph-name="onehalf" unicode="&#xbd;" horiz-adv-x="1652" 
d="M358 547h-122v659l-136 -141l-71 76l221 225h108v-819zM1556 0h-595v92q256 184 362 290q107 106 107 190t-52 122t-123 37q-72 0 -133 -31t-96 -75l-68 77q102 129 302 129q124 0 208 -61t84 -177q0 -115 -102 -229t-309 -264h415v-100zM1208 1366l-874 -1366h-111
l873 1366h112z" />
    <glyph glyph-name="threequarters" unicode="&#xbe;" horiz-adv-x="1798" 
d="M702 761q0 -97 -82 -163t-227 -66q-211 0 -307 134l68 77q88 -111 237 -110q88 0 138 39t51 104q0 141 -213 142q-70 0 -82 -3v103q14 -2 82 -2q201 0 200 131q0 61 -52 96t-132 35q-131 0 -223 -98l-64 71q113 127 299 127q131 0 212 -59t81 -151t-55 -139
q-55 -48 -127 -58q72 -9 134 -61t62 -149zM1485 305v406l-279 -406h279zM1724 205h-116v-205h-123v205h-402v92l355 522h170v-514h116v-100zM1430 1366l-875 -1366h-111l873 1366h113z" />
    <glyph glyph-name="questiondown" unicode="&#xbf;" horiz-adv-x="806" 
d="M487 1010q45 0 79 -34t34 -79t-34 -79t-79 -34t-79 34t-33 79q-1 45 33 79t79 34zM608 453q0 -87 -38 -144t-92 -97t-108 -77q-130 -89 -130 -194q0 -83 62 -137t177 -54q203 0 328 166l102 -109q-160 -209 -444 -208q-182 0 -292 91t-110 226q0 86 41 155q40 69 98 111
t116 82q141 95 141 189q0 61 -53 98l124 55q78 -66 78 -153z" />
    <glyph glyph-name="Agrave" unicode="&#xc0;" horiz-adv-x="1347" 
d="M965 455l-291 737l-289 -737h580zM1329 0h-194l-121 305h-680l-121 -305h-195l551 1366h211zM811 1491h-117l-346 295h160z" />
    <glyph glyph-name="Aacute" unicode="&#xc1;" horiz-adv-x="1347" 
d="M965 455l-291 737l-289 -737h580zM1329 0h-194l-121 305h-680l-121 -305h-195l551 1366h211zM1004 1786l-347 -295h-116l303 295h160z" />
    <glyph glyph-name="Acircumflex" unicode="&#xc2;" horiz-adv-x="1347" 
d="M965 455l-291 737l-289 -737h580zM1329 0h-194l-121 305h-680l-121 -305h-195l551 1366h211zM948 1491h-104l-170 217l-164 -217h-104l194 295h148z" />
    <glyph glyph-name="Atilde" unicode="&#xc3;" horiz-adv-x="1347" 
d="M965 455l-291 737l-289 -737h580zM1329 0h-194l-121 305h-680l-121 -305h-195l551 1366h211zM797 1487q-49 0 -87 30q-38 31 -58 65q-54 95 -102 94t-76 -45t-28 -132h-92q0 123 52 199t147 76q49 0 87 -30t57 -65q51 -94 101 -94t78 44t27 132h92q0 -123 -52 -199
t-146 -75z" />
    <glyph glyph-name="Adieresis" unicode="&#xc4;" horiz-adv-x="1347" 
d="M965 455l-291 737l-289 -737h580zM1329 0h-194l-121 305h-680l-121 -305h-195l551 1366h211zM559 1583q0 -39 -28 -67q-29 -28 -67 -27q-38 0 -67 28q-29 29 -29 67t28 66t68 28t68 -28t27 -67zM983 1583q0 -39 -29 -67q-30 -28 -68 -27q-38 0 -66 28q-28 29 -28 67
t28 66t68 28t68 -28t27 -67z" />
    <glyph glyph-name="Aring" unicode="&#xc5;" horiz-adv-x="1347" 
d="M965 455l-291 737l-289 -737h580zM1329 0h-194l-121 305h-680l-121 -305h-195l551 1366h211zM675 1499q50 0 85 36t35 85t-35 85t-85 36t-85 -36t-35 -85t35 -85t85 -36zM676 1417q-82 -1 -142 59t-61 144q1 84 61 143t142 59t140 -58q58 -60 58 -144t-58 -144t-140 -59z
" />
    <glyph glyph-name="AE" unicode="&#xc6;" horiz-adv-x="1941" 
d="M934 455v737l-455 -737h455zM1829 0h-895v305h-537l-188 -305h-195l852 1366h963v-152h-725v-440h711v-151h-711v-471h725v-152z" />
    <glyph glyph-name="Ccedilla" unicode="&#xc7;" horiz-adv-x="1384" 
d="M1008 -226q0 -68 -60 -112q-60 -45 -172 -45t-188 61l39 78q74 -59 164 -59q53 1 89 23t35 63q0 72 -75 72q-49 0 -78 -35l-68 39l43 121q-274 22 -453 216q-180 194 -180 496t202 499q202 198 501 198q330 0 518 -271l-141 -80q-58 90 -160 144t-217 55
q-227 0 -377 -156q-150 -157 -150 -399t152 -398q150 -156 375 -157q115 0 216 55t161 144l143 -78q-195 -264 -500 -273l-30 -79q29 22 81 22t92 -38q38 -38 38 -106z" />
    <glyph glyph-name="Egrave" unicode="&#xc8;" horiz-adv-x="1165" 
d="M1055 0h-895v1366h895v-152h-725v-440h710v-151h-710v-471h725v-152zM743 1491h-116l-346 295h159z" />
    <glyph glyph-name="Eacute" unicode="&#xc9;" horiz-adv-x="1165" 
d="M1055 0h-895v1366h895v-152h-725v-440h710v-151h-710v-471h725v-152zM934 1786l-346 -295h-117l303 295h160z" />
    <glyph glyph-name="Ecircumflex" unicode="&#xca;" horiz-adv-x="1165" 
d="M1055 0h-895v1366h895v-152h-725v-440h710v-151h-710v-471h725v-152zM877 1491h-105l-170 217l-164 -217h-104l194 295h148z" />
    <glyph glyph-name="Edieresis" unicode="&#xcb;" horiz-adv-x="1165" 
d="M1055 0h-895v1366h895v-152h-725v-440h710v-151h-710v-471h725v-152zM489 1583q1 -39 -27 -67t-67 -27q-39 0 -67 28q-28 29 -29 67q0 38 28 66q27 28 67 28t68 -28q27 -28 27 -67zM913 1583q-1 -39 -29 -67t-67 -27q-39 0 -67 28q-28 29 -27 67q0 38 28 66q27 28 67 28
t68 -28q27 -28 27 -67z" />
    <glyph glyph-name="Igrave" unicode="&#xcc;" horiz-adv-x="489" 
d="M330 0h-170v1366h170v-1366zM379 1491h-117l-346 295h160z" />
    <glyph glyph-name="Iacute" unicode="&#xcd;" horiz-adv-x="489" 
d="M330 0h-170v1366h170v-1366zM575 1786l-346 -295h-116l303 295h159z" />
    <glyph glyph-name="Icircumflex" unicode="&#xce;" horiz-adv-x="489" 
d="M330 0h-170v1366h170v-1366zM516 1491h-104l-170 217l-164 -217h-105l195 295h147z" />
    <glyph glyph-name="Idieresis" unicode="&#xcf;" horiz-adv-x="489" 
d="M330 0h-170v1366h170v-1366zM127 1583q0 -39 -28 -67q-29 -28 -67 -27q-38 0 -67 28q-29 29 -29 67t28 66t68 28t68 -28t27 -67zM551 1583q0 -39 -29 -67q-30 -28 -68 -27q-38 0 -66 28q-28 29 -28 67t28 66t68 28t68 -28t27 -67z" />
    <glyph glyph-name="Eth" unicode="&#xd0;" horiz-adv-x="1490" 
d="M733 612h-346v-460h297q242 0 383 152t141 379q0 228 -139 380t-385 151h-297v-477h346v-125zM684 0h-467v612h-197v125h197v629h467q313 0 507 -195q193 -195 193 -491t-192 -488t-508 -192z" />
    <glyph glyph-name="Ntilde" unicode="&#xd1;" horiz-adv-x="1449" 
d="M1290 0h-164l-796 1090v-1090h-170v1366h174l786 -1067v1067h170v-1366zM844 1487q-49 0 -87 30q-37 31 -57 65q-54 95 -103 94q-48 -1 -76 -45t-27 -132h-93q1 123 53 199t146 76q49 0 87 -30t57 -65q51 -94 101 -94t78 44t27 132h92q0 -123 -52 -199t-146 -75z" />
    <glyph glyph-name="Ograve" unicode="&#xd2;" horiz-adv-x="1566" 
d="M281 682q0 -242 137 -398t363 -157q226 0 366 157q139 156 139 398t-139 398t-365 157q-226 0 -364 -156q-137 -157 -137 -399zM782 -25q-299 0 -488 201t-190 506q0 305 190 506t488 201q300 0 490 -201t190 -506t-190 -506t-490 -201zM926 1491h-117l-346 295h160z" />
    <glyph glyph-name="Oacute" unicode="&#xd3;" horiz-adv-x="1566" 
d="M281 682q0 -242 137 -398t363 -157q226 0 366 157q139 156 139 398t-139 398t-365 157q-226 0 -364 -156q-137 -157 -137 -399zM782 -25q-299 0 -488 201t-190 506q0 305 190 506t488 201q300 0 490 -201t190 -506t-190 -506t-490 -201zM1114 1786l-346 -295h-117
l303 295h160z" />
    <glyph glyph-name="Ocircumflex" unicode="&#xd4;" horiz-adv-x="1566" 
d="M281 682q0 -242 137 -398t363 -157q226 0 366 157q139 156 139 398t-139 398t-365 157q-226 0 -364 -156q-137 -157 -137 -399zM782 -25q-299 0 -488 201t-190 506q0 305 190 506t488 201q300 0 490 -201t190 -506t-190 -506t-490 -201zM1059 1491h-105l-170 217
l-163 -217h-105l195 295h147z" />
    <glyph glyph-name="Otilde" unicode="&#xd5;" horiz-adv-x="1566" 
d="M281 682q0 -242 137 -398t363 -157q226 0 366 157q139 156 139 398t-139 398t-365 157q-226 0 -364 -156q-137 -157 -137 -399zM782 -25q-299 0 -488 201t-190 506q0 305 190 506t488 201q300 0 490 -201t190 -506t-190 -506t-490 -201zM905 1487q-49 0 -87 30
q-38 31 -57 65q-52 95 -102 94q-104 -2 -104 -177h-92q0 123 52 199t147 76q49 0 87 -30t57 -65q51 -94 101 -94q49 0 77 44t28 132h92q0 -123 -52 -199t-147 -75z" />
    <glyph glyph-name="Odieresis" unicode="&#xd6;" horiz-adv-x="1566" 
d="M281 682q0 -242 137 -398t363 -157q226 0 366 157q139 156 139 398t-139 398t-365 157q-226 0 -364 -156q-137 -157 -137 -399zM782 -25q-299 0 -488 201t-190 506q0 305 190 506t488 201q300 0 490 -201t190 -506t-190 -506t-490 -201zM666 1583q0 -39 -28 -67t-67 -27
q-39 0 -67 28q-28 29 -29 67q0 38 28 66q27 28 67 28t68 -28t28 -67zM1090 1583q0 -39 -29 -67t-68 -27q-39 0 -67 28q-28 29 -27 67q0 38 28 66q27 28 67 28t68 -28t28 -67z" />
    <glyph glyph-name="multiply" unicode="&#xd7;" horiz-adv-x="1021" 
d="M815 303l-305 305l-303 -305l-76 76l305 305l-305 305l76 76l303 -305l305 305l76 -76l-303 -305l303 -305z" />
    <glyph glyph-name="Oslash" unicode="&#xd8;" horiz-adv-x="1566" 
d="M782 1237q-227 1 -364 -155t-137 -406t149 -406l606 901q-115 66 -254 66zM782 127q225 0 365 157q139 158 139 410t-160 408l-608 -903q112 -72 264 -72zM782 -25q-197 0 -352 93l-45 -68h-137l90 133q-233 201 -234 549q0 305 190 506t488 201q188 0 342 -86l43 63h138
l-86 -129q115 -97 179 -241t64 -314q0 -305 -190 -506t-490 -201z" />
    <glyph glyph-name="Ugrave" unicode="&#xd9;" horiz-adv-x="1435" 
d="M1276 532q0 -260 -144 -408t-414 -149q-270 1 -414 149t-144 406v836h172v-831q0 -190 99 -299t285 -109t288 109q100 109 100 299v831h172v-834zM856 1491h-117l-346 295h160z" />
    <glyph glyph-name="Uacute" unicode="&#xda;" horiz-adv-x="1435" 
d="M1276 532q0 -260 -144 -408t-414 -149q-270 1 -414 149t-144 406v836h172v-831q0 -190 99 -299t285 -109t288 109q100 109 100 299v831h172v-834zM1044 1786l-346 -295h-116l303 295h159z" />
    <glyph glyph-name="Ucircumflex" unicode="&#xdb;" horiz-adv-x="1435" 
d="M1276 532q0 -260 -144 -408t-414 -149q-270 1 -414 149t-144 406v836h172v-831q0 -190 99 -299t285 -109t288 109q100 109 100 299v831h172v-834zM999 1491h-104l-170 217l-164 -217h-104l194 295h148z" />
    <glyph glyph-name="Udieresis" unicode="&#xdc;" horiz-adv-x="1435" 
d="M1276 532q0 -260 -144 -408t-414 -149q-270 1 -414 149t-144 406v836h172v-831q0 -190 99 -299t285 -109t288 109q100 109 100 299v831h172v-834zM602 1583q0 -39 -28 -67t-66 -27q-38 0 -68 28q-28 29 -28 67t27 66q28 28 68 28q39 0 67 -28t28 -67zM1026 1583
q0 -39 -29 -67t-67 -27q-38 0 -67 28q-27 29 -27 67t27 66q28 28 68 28q39 0 67 -28t28 -67z" />
    <glyph glyph-name="Yacute" unicode="&#xdd;" horiz-adv-x="1282" 
d="M727 0h-170v578l-539 788h199l424 -635l424 635h199l-537 -788v-578zM977 1786l-346 -295h-117l303 295h160z" />
    <glyph glyph-name="Thorn" unicode="&#xde;" horiz-adv-x="1202" 
d="M688 451q121 -1 197 71t76 187t-76 189t-197 73h-358v-520h358zM330 0h-170v1366h170v-244h379q199 0 313 -118t115 -294q0 -175 -116 -293t-312 -118h-379v-299z" />
    <glyph glyph-name="germandbls" unicode="&#xdf;" horiz-adv-x="1222" 
d="M1184 266q0 -116 -100 -204q-100 -87 -281 -87q-135 0 -219 41t-162 119l78 107q45 -60 125 -100q79 -40 185 -40t165 50t59 118t-60 106t-146 58t-174 47q-87 27 -147 88q-61 61 -61 149t48 146q48 59 102 90q149 84 149 152q0 69 -61 106t-151 37t-157 -62t-67 -165
v-1022h-153v1022q0 156 106 260t268 104t268 -70q105 -71 105 -185t-108 -191q-45 -32 -90 -60q-109 -69 -109 -149q0 -57 60 -90t146 -52t174 -46t148 -94t60 -183z" />
    <glyph glyph-name="agrave" unicode="&#xe0;" horiz-adv-x="1081" 
d="M680 1139h-117l-346 295h160zM502 86q182 0 270 123v188q-90 121 -270 121q-110 0 -178 -60t-68 -156t68 -156t178 -60zM926 0h-154v113q-121 -137 -328 -138q-135 0 -239 88q-105 88 -105 243t102 239t242 84q209 0 328 -133v178q0 96 -70 151t-180 56q-178 0 -303 -138
l-72 107q158 164 396 164q170 0 276 -82t107 -252v-680z" />
    <glyph glyph-name="aacute" unicode="&#xe1;" horiz-adv-x="1081" 
d="M874 1434l-346 -295h-116l303 295h159zM502 86q182 0 270 123v188q-90 121 -270 121q-110 0 -178 -60t-68 -156t68 -156t178 -60zM926 0h-154v113q-121 -137 -328 -138q-135 0 -239 88q-105 88 -105 243t102 239t242 84q209 0 328 -133v178q0 96 -70 151t-180 56
q-178 0 -303 -138l-72 107q158 164 396 164q170 0 276 -82t107 -252v-680z" />
    <glyph glyph-name="acircumflex" unicode="&#xe2;" horiz-adv-x="1081" 
d="M821 1139h-104l-170 217l-164 -217h-104l194 295h148zM502 86q182 0 270 123v188q-90 121 -270 121q-110 0 -178 -60t-68 -156t68 -156t178 -60zM926 0h-154v113q-121 -137 -328 -138q-135 0 -239 88q-105 88 -105 243t102 239t242 84q209 0 328 -133v178q0 96 -70 151
t-180 56q-178 0 -303 -138l-72 107q158 164 396 164q170 0 276 -82t107 -252v-680z" />
    <glyph glyph-name="atilde" unicode="&#xe3;" horiz-adv-x="1081" 
d="M666 1135q-49 -1 -87 29t-58 65q-51 94 -101 94q-49 0 -77 -44t-28 -132h-92q0 123 52 199t147 75q49 1 87 -29t57 -65q51 -94 101 -94q105 0 105 176h92q0 -123 -52 -199t-146 -75zM502 86q182 0 270 123v188q-90 121 -270 121q-110 0 -178 -60t-68 -156t68 -156
t178 -60zM926 0h-154v113q-121 -137 -328 -138q-135 0 -239 88q-105 88 -105 243t102 239t242 84q209 0 328 -133v178q0 96 -70 151t-180 56q-178 0 -303 -138l-72 107q158 164 396 164q170 0 276 -82t107 -252v-680z" />
    <glyph glyph-name="adieresis" unicode="&#xe4;" horiz-adv-x="1081" 
d="M424 1237q0 -39 -28 -67t-66 -28t-68 28q-29 28 -29 67t28 67t68 28q39 0 67 -28t28 -67zM848 1237q0 -39 -29 -67t-67 -28t-67 28q-28 28 -28 67t28 67t68 28q39 0 67 -28t28 -67zM502 86q182 0 270 123v188q-90 121 -270 121q-110 0 -178 -60t-68 -156t68 -156t178 -60
zM926 0h-154v113q-121 -137 -328 -138q-135 0 -239 88q-105 88 -105 243t102 239t242 84q209 0 328 -133v178q0 96 -70 151t-180 56q-178 0 -303 -138l-72 107q158 164 396 164q170 0 276 -82t107 -252v-680z" />
    <glyph glyph-name="aring" unicode="&#xe5;" horiz-adv-x="1081" 
d="M544 1202q50 0 85 36t35 85t-35 85t-85 36t-85 -36t-35 -85t35 -85t85 -36zM545 1120q-83 0 -143 60t-60 143q0 82 60 142q60 61 142 61t141 -60q58 -60 58 -143t-58 -143t-140 -60zM502 86q182 0 270 123v188q-90 121 -270 121q-110 0 -178 -60t-68 -156t68 -156
t178 -60zM926 0h-154v113q-121 -137 -328 -138q-135 0 -239 88q-105 88 -105 243t102 239t242 84q209 0 328 -133v178q0 96 -70 151t-180 56q-178 0 -303 -138l-72 107q158 164 396 164q170 0 276 -82t107 -252v-680z" />
    <glyph glyph-name="ae" unicode="&#xe6;" horiz-adv-x="1820" 
d="M502 518q-110 0 -178 -60t-68 -156t69 -156t177 -60q205 0 301 174q-31 72 -31 133q-90 125 -270 125zM926 559h649q-2 125 -86 226q-83 101 -235 101t-237 -100t-91 -227zM1726 444h-798q10 -145 105 -241q95 -97 265 -97t291 125l74 -102q-159 -154 -407 -154t-396 205
q-145 -205 -407 -205q-141 0 -247 88t-106 241t100 239t244 86q209 0 328 -131v176q0 96 -70 151t-180 56q-178 0 -303 -138l-72 107q158 164 396 164q287 0 336 -217q123 217 378 217q215 0 342 -151t127 -380v-39z" />
    <glyph glyph-name="ccedilla" unicode="&#xe7;" horiz-adv-x="1015" 
d="M807 -230q-1 -68 -61 -112q-60 -45 -172 -45t-187 61l39 78q74 -59 164 -59q53 1 89 23t36 63q0 72 -76 71q-49 0 -78 -34l-67 39l45 125q-199 16 -321 161t-122 361t137 364t361 148t358 -172l-102 -92q-92 127 -249 127t-251 -108q-94 -109 -94 -275t94 -274t249 -108
t251 130l102 -95q-119 -156 -323 -170l-33 -86q29 23 82 23t91 -38t38 -106z" />
    <glyph glyph-name="egrave" unicode="&#xe8;" horiz-adv-x="1153" 
d="M721 1139h-117l-346 295h160zM907 559q-2 125 -86 226t-235 101q-150 0 -236 -100t-92 -227h649zM608 -25q-230 1 -370 145q-142 144 -142 368t140 376q140 150 353 150q214 0 342 -151t128 -380v-39h-799q10 -145 106 -243q96 -99 264 -99t292 127l73 -100
q-157 -154 -387 -154z" />
    <glyph glyph-name="eacute" unicode="&#xe9;" horiz-adv-x="1153" 
d="M913 1434l-346 -295h-116l303 295h159zM907 559q-2 125 -86 226t-235 101q-150 0 -236 -100t-92 -227h649zM608 -25q-230 1 -370 145q-142 144 -142 368t140 376q140 150 353 150q214 0 342 -151t128 -380v-39h-799q10 -145 106 -243q96 -99 264 -99t292 127l73 -100
q-157 -154 -387 -154z" />
    <glyph glyph-name="ecircumflex" unicode="&#xea;" horiz-adv-x="1153" 
d="M858 1139h-104l-170 217l-164 -217h-105l195 295h147zM907 559q-2 125 -86 226t-235 101q-150 0 -236 -100t-92 -227h649zM608 -25q-230 1 -370 145q-142 144 -142 368t140 376q140 150 353 150q214 0 342 -151t128 -380v-39h-799q10 -145 106 -243q96 -99 264 -99
t292 127l73 -100q-157 -154 -387 -154z" />
    <glyph glyph-name="edieresis" unicode="&#xeb;" horiz-adv-x="1153" 
d="M469 1237q0 -39 -28 -67q-29 -28 -67 -28t-67 28t-28 67q0 39 27 67q28 28 68 28t68 -28t27 -67zM893 1237q0 -39 -29 -67q-30 -28 -68 -28t-66 28t-28 67t28 67t68 28t68 -28t27 -67zM907 559q-2 125 -86 226t-235 101q-150 0 -236 -100t-92 -227h649zM608 -25
q-230 1 -370 145q-142 144 -142 368t140 376q140 150 353 150q214 0 342 -151t128 -380v-39h-799q10 -145 106 -243q96 -99 264 -99t292 127l73 -100q-157 -154 -387 -154z" />
    <glyph glyph-name="igrave" unicode="&#xec;" horiz-adv-x="460" 
d="M307 0h-153v989h153v-989zM365 1139h-117l-346 295h159z" />
    <glyph glyph-name="iacute" unicode="&#xed;" horiz-adv-x="460" 
d="M307 0h-153v989h153v-989zM559 1434l-346 -295h-117l303 295h160z" />
    <glyph glyph-name="icircumflex" unicode="&#xee;" horiz-adv-x="460" 
d="M307 0h-153v989h153v-989zM504 1139h-105l-170 217l-163 -217h-105l195 295h147z" />
    <glyph glyph-name="idieresis" unicode="&#xef;" horiz-adv-x="460" 
d="M307 0h-153v989h153v-989zM115 1237q0 -39 -28 -67t-67 -28q-40 0 -68 28t-28 67t28 67t68 28t67 -28q28 -28 28 -67zM539 1237q0 -39 -29 -67t-68 -28q-38 0 -66 28t-28 67t28 67t68 28t67 -28q28 -28 28 -67z" />
    <glyph glyph-name="eth" unicode="&#xf0;" horiz-adv-x="1171" 
d="M586 113q152 0 240 106t87 259q0 153 -88 259q-87 107 -239 107t-240 -106t-88 -260q0 -153 88 -259t240 -106zM1075 506q0 -234 -133 -382t-354 -148q-220 0 -356 142q-136 144 -136 361t127 359t326 143q199 0 321 -180q-102 184 -327 348l-293 -131l-37 86l242 106
q-87 53 -154 99l84 127q137 -84 229 -156l222 98l34 -84l-176 -77q381 -324 381 -711z" />
    <glyph glyph-name="ntilde" unicode="&#xf1;" horiz-adv-x="1130" 
d="M688 1135q-49 -1 -87 29t-57 65q-51 94 -101 94q-105 0 -105 -176h-92q0 123 52 199t146 75q49 1 87 -29q37 -30 57 -65q52 -94 102 -94q49 0 77 44t28 132h92q0 -123 -52 -199q-53 -75 -147 -75zM981 0h-152v647q1 227 -211 229q-98 0 -178 -44q-80 -46 -127 -109v-723
h-153v989h153v-143q57 70 153 119t202 49q313 0 313 -320v-694z" />
    <glyph glyph-name="ograve" unicode="&#xf2;" horiz-adv-x="1171" 
d="M721 1139h-117l-346 295h160zM586 113q152 -1 240 111t87 272q0 160 -88 270q-87 110 -239 111q-152 0 -240 -111q-88 -110 -88 -270t88 -272t240 -111zM586 -25q-221 0 -356 150q-134 150 -134 371t134 369q134 149 356 149t355 -148q134 -148 134 -370
q0 -221 -134 -371t-355 -150z" />
    <glyph glyph-name="oacute" unicode="&#xf3;" horiz-adv-x="1171" 
d="M913 1434l-346 -295h-116l303 295h159zM586 113q152 -1 240 111t87 272q0 160 -88 270q-87 110 -239 111q-152 0 -240 -111q-88 -110 -88 -270t88 -272t240 -111zM586 -25q-221 0 -356 150q-134 150 -134 371t134 369q134 149 356 149t355 -148q134 -148 134 -370
q0 -221 -134 -371t-355 -150z" />
    <glyph glyph-name="ocircumflex" unicode="&#xf4;" horiz-adv-x="1171" 
d="M860 1139h-104l-170 217l-164 -217h-105l195 295h147zM586 113q152 -1 240 111t87 272q0 160 -88 270q-87 110 -239 111q-152 0 -240 -111q-88 -110 -88 -270t88 -272t240 -111zM586 -25q-221 0 -356 150q-134 150 -134 371t134 369q134 149 356 149t355 -148
q134 -148 134 -370q0 -221 -134 -371t-355 -150z" />
    <glyph glyph-name="otilde" unicode="&#xf5;" horiz-adv-x="1171" 
d="M709 1135q-49 -1 -87 29t-58 65q-51 94 -101 94q-49 0 -77 -44t-28 -132h-92q0 123 52 199t147 75q49 1 87 -29t57 -65q51 -94 101 -94q105 0 105 176h92q0 -123 -52 -199t-146 -75zM586 113q152 -1 240 111t87 272q0 160 -88 270q-87 110 -239 111q-152 0 -240 -111
q-88 -110 -88 -270t88 -272t240 -111zM586 -25q-221 0 -356 150q-134 150 -134 371t134 369q134 149 356 149t355 -148q134 -148 134 -370q0 -221 -134 -371t-355 -150z" />
    <glyph glyph-name="odieresis" unicode="&#xf6;" horiz-adv-x="1171" 
d="M469 1237q0 -39 -28 -67q-29 -28 -67 -28t-67 28t-28 67q0 39 27 67q28 28 68 28t68 -28t27 -67zM893 1237q0 -39 -29 -67q-30 -28 -68 -28t-66 28t-28 67t28 67t68 28t68 -28t27 -67zM586 113q152 -1 240 111t87 272q0 160 -88 270q-87 110 -239 111q-152 0 -240 -111
q-88 -110 -88 -270t88 -272t240 -111zM586 -25q-221 0 -356 150q-134 150 -134 371t134 369q134 149 356 149t355 -148q134 -148 134 -370q0 -221 -134 -371t-355 -150z" />
    <glyph glyph-name="divide" unicode="&#xf7;" horiz-adv-x="1046" 
d="M618 295q0 -39 -28 -67t-66 -28t-66 28t-28 67t28 67t66 27q38 1 66 -27t28 -67zM987 637h-928v106h928v-106zM618 1079q0 -39 -28 -67t-66 -29q-38 0 -66 29q-28 30 -28 68t28 65t66 27t67 -27q27 -27 27 -66z" />
    <glyph glyph-name="oslash" unicode="&#xf8;" horiz-adv-x="1171" 
d="M258 502q0 -154 70 -254l446 567q-78 61 -188 62q-152 -1 -240 -111t-88 -264zM586 113q152 -1 240 111t87 268q0 156 -77 258l-451 -568q82 -69 201 -69zM96 494q0 224 134 371q134 148 356 149q162 0 280 -84l47 59h113l-92 -117q141 -147 141 -372t-134 -375
t-355 -150q-170 0 -291 93l-53 -68h-111l98 125q-133 145 -133 369z" />
    <glyph glyph-name="ugrave" unicode="&#xf9;" horiz-adv-x="1128" 
d="M705 1139h-117l-346 295h159zM307 338q0 -225 212 -225q97 0 177 43t125 106v727h154v-989h-154v139q-61 -71 -154 -117t-198 -47q-315 0 -315 316v698h153v-651z" />
    <glyph glyph-name="uacute" unicode="&#xfa;" horiz-adv-x="1128" 
d="M895 1434l-346 -295h-117l303 295h160zM307 338q0 -225 212 -225q97 0 177 43t125 106v727h154v-989h-154v139q-61 -71 -154 -117t-198 -47q-315 0 -315 316v698h153v-651z" />
    <glyph glyph-name="ucircumflex" unicode="&#xfb;" horiz-adv-x="1128" 
d="M838 1139h-105l-170 217l-164 -217h-104l194 295h148zM307 338q0 -225 212 -225q97 0 177 43t125 106v727h154v-989h-154v139q-61 -71 -154 -117t-198 -47q-315 0 -315 316v698h153v-651z" />
    <glyph glyph-name="udieresis" unicode="&#xfc;" horiz-adv-x="1128" 
d="M455 1237q0 -39 -28 -67t-67 -28q-40 0 -68 28t-28 67t28 67t68 28t67 -28q28 -28 28 -67zM879 1237q0 -39 -29 -67t-68 -28q-38 0 -66 28t-28 67t28 67t68 28t67 -28q28 -28 28 -67zM307 338q0 -225 212 -225q97 0 177 43t125 106v727h154v-989h-154v139
q-61 -71 -154 -117t-198 -47q-315 0 -315 316v698h153v-651z" />
    <glyph glyph-name="yacute" unicode="&#xfd;" horiz-adv-x="1003" 
d="M831 1434l-346 -295h-116l303 295h159zM210 -264q50 0 85 22t59 82l66 150l-414 999h168l328 -811l329 811h166l-495 -1190q-82 -197 -291 -200q-64 0 -111 14l23 139q37 -16 87 -16z" />
    <glyph glyph-name="thorn" unicode="&#xfe;" horiz-adv-x="1171" 
d="M602 113q145 0 232 107q86 108 86 276t-86 274t-232 107q-88 -1 -171 -47t-124 -111v-447q41 -68 124 -114t171 -45zM641 1014q197 0 319 -140t121 -378q1 -238 -121 -380t-322 -141q-200 0 -331 175v-527h-153v1743h153v-524q55 78 143 125t191 47z" />
    <glyph glyph-name="ydieresis" unicode="&#xff;" horiz-adv-x="1003" 
d="M385 1237q0 -39 -28 -67q-29 -28 -67 -28t-67 28t-28 67q0 39 27 67q28 28 68 28t68 -28t27 -67zM809 1237q0 -39 -29 -67q-30 -28 -68 -28t-66 28t-28 67t28 67t68 28t68 -28t27 -67zM210 -264q50 0 85 22t59 82l66 150l-414 999h168l328 -811l329 811h166l-495 -1190
q-82 -197 -291 -200q-64 0 -111 14l23 139q37 -16 87 -16z" />
    <glyph glyph-name="Amacron" unicode="&#x100;" horiz-adv-x="1347" 
d="M1044 1534h-743v98h743v-98zM965 455l-291 737l-289 -737h580zM1329 0h-194l-121 305h-680l-121 -305h-195l551 1366h211z" />
    <glyph glyph-name="amacron" unicode="&#x101;" horiz-adv-x="1081" 
d="M909 1184h-743v98h743v-98zM502 86q182 0 270 123v188q-90 121 -270 121q-110 0 -178 -60t-68 -156t68 -156t178 -60zM926 0h-154v113q-121 -137 -328 -138q-135 0 -239 88q-105 88 -105 243t102 239t242 84q209 0 328 -133v178q0 96 -70 151t-180 56q-178 0 -303 -138
l-72 107q158 164 396 164q170 0 276 -82t107 -252v-680z" />
    <glyph glyph-name="Abreve" unicode="&#x102;" horiz-adv-x="1347" 
d="M675 1479q-224 0 -362 180l78 65q103 -147 283 -147t284 147l74 -65q-133 -180 -357 -180zM965 455l-291 737l-289 -737h580zM1329 0h-194l-121 305h-680l-121 -305h-195l551 1366h211z" />
    <glyph glyph-name="abreve" unicode="&#x103;" horiz-adv-x="1081" 
d="M540 1153q-224 0 -362 180l78 66q104 -147 284 -147t283 147l74 -66q-133 -180 -357 -180zM502 86q182 0 270 123v188q-90 121 -270 121q-110 0 -178 -60t-68 -156t68 -156t178 -60zM926 0h-154v113q-121 -137 -328 -138q-135 0 -239 88q-105 88 -105 243t102 239t242 84
q209 0 328 -133v178q0 96 -70 151t-180 56q-178 0 -303 -138l-72 107q158 164 396 164q170 0 276 -82t107 -252v-680z" />
    <glyph glyph-name="Aogonek" unicode="&#x104;" horiz-adv-x="1347" 
d="M965 455l-291 737l-289 -737h580zM1264 -381q-78 0 -131 45t-54 133q0 117 109 203h-53l-121 305h-680l-121 -305h-195l551 1366h211l549 -1366h-2q-156 -78 -156 -199q0 -102 93 -102q75 0 104 86l76 -43q-53 -123 -180 -123z" />
    <glyph glyph-name="aogonek" unicode="&#x105;" horiz-adv-x="1081" 
d="M502 86q182 0 270 123v188q-90 121 -270 121q-110 0 -178 -60t-68 -156t68 -156t178 -60zM862 -381q-78 0 -131 45t-53 133q0 117 108 203h-14v113q-121 -137 -328 -138q-135 0 -239 88q-105 88 -105 243t102 239t242 84q209 0 328 -133v178q0 96 -70 151t-180 56
q-178 0 -303 -138l-72 107q158 164 396 164q170 0 276 -82t107 -252v-680q-156 -78 -156 -199q0 -102 92 -102q76 0 105 86l75 -43q-53 -123 -180 -123z" />
    <glyph glyph-name="Cacute" unicode="&#x106;" horiz-adv-x="1384" 
d="M1135 1786l-347 -295h-116l303 295h160zM818 -25q-310 0 -512 198t-202 509t202 509t501 198q330 0 518 -271l-141 -80q-58 90 -160 144t-217 55q-227 0 -377 -156q-150 -157 -150 -399t152 -398q150 -156 375 -157q115 0 216 55t161 144l143 -78q-199 -273 -509 -273z
" />
    <glyph glyph-name="cacute" unicode="&#x107;" horiz-adv-x="1015" 
d="M928 1434l-346 -295h-117l303 295h160zM595 -25q-223 1 -361 149t-138 372t137 370q137 148 361 148t358 -172l-102 -92q-92 127 -249 127t-251 -108q-94 -109 -94 -275t94 -274t249 -108t251 130l102 -95q-133 -172 -357 -172z" />
    <glyph glyph-name="Ccircumflex" unicode="&#x108;" horiz-adv-x="1384" 
d="M1079 1491h-104l-170 217l-164 -217h-104l194 295h148zM818 -25q-310 0 -512 198t-202 509t202 509t501 198q330 0 518 -271l-141 -80q-58 90 -160 144t-217 55q-227 0 -377 -156q-150 -157 -150 -399t152 -398q150 -156 375 -157q115 0 216 55t161 144l143 -78
q-199 -273 -509 -273z" />
    <glyph glyph-name="ccircumflex" unicode="&#x109;" horiz-adv-x="1015" 
d="M870 1139h-104l-170 217l-164 -217h-104l194 295h148zM595 -25q-223 1 -361 149t-138 372t137 370q137 148 361 148t358 -172l-102 -92q-92 127 -249 127t-251 -108q-94 -109 -94 -275t94 -274t249 -108t251 130l102 -95q-133 -172 -357 -172z" />
    <glyph glyph-name="Cdotaccent" unicode="&#x10a;" horiz-adv-x="1384" 
d="M812 1489q-40 0 -69 29q-29 30 -29 68t29 67t69 29t68 -28t28 -69t-28 -69t-68 -27zM818 -25q-310 0 -512 198t-202 509t202 509t501 198q330 0 518 -271l-141 -80q-58 90 -160 144t-217 55q-227 0 -377 -156q-150 -157 -150 -399t152 -398q150 -156 375 -157
q115 0 216 55t161 144l143 -78q-199 -273 -509 -273z" />
    <glyph glyph-name="cdotaccent" unicode="&#x10b;" horiz-adv-x="1015" 
d="M595 1174q-40 0 -69 28t-28 68q0 40 28 68t69 28q40 0 68 -28q27 -28 27 -68t-27 -69q-28 -27 -68 -27zM595 -25q-223 1 -361 149t-138 372t137 370q137 148 361 148t358 -172l-102 -92q-92 127 -249 127t-251 -108q-94 -109 -94 -275t94 -274t249 -108t251 130l102 -95
q-133 -172 -357 -172z" />
    <glyph glyph-name="Ccaron" unicode="&#x10c;" horiz-adv-x="1384" 
d="M885 1491h-148l-200 295h104l170 -217l164 217h104zM818 -25q-310 0 -512 198t-202 509t202 509t501 198q330 0 518 -271l-141 -80q-58 90 -160 144t-217 55q-227 0 -377 -156q-150 -157 -150 -399t152 -398q150 -156 375 -157q115 0 216 55t161 144l143 -78
q-199 -273 -509 -273z" />
    <glyph glyph-name="ccaron" unicode="&#x10d;" horiz-adv-x="1015" 
d="M676 1139h-148l-200 295h104l170 -217l164 217h104zM595 -25q-223 1 -361 149t-138 372t137 370q137 148 361 148t358 -172l-102 -92q-92 127 -249 127t-251 -108q-94 -109 -94 -275t94 -274t249 -108t251 130l102 -95q-133 -172 -357 -172z" />
    <glyph glyph-name="Dcaron" unicode="&#x10e;" horiz-adv-x="1433" 
d="M797 1491h-148l-200 295h104l170 -217l164 217h104zM627 152q242 0 383 152t141 379q0 228 -139 380t-385 151h-297v-1062h297zM627 0h-467v1366h467q313 0 507 -195t194 -491t-194 -488q-192 -192 -507 -192z" />
    <glyph glyph-name="dcaron" unicode="&#x10f;" horiz-adv-x="1318" 
d="M1222 1393q42 1 74 -37t31 -110q0 -72 -41 -144q-41 -74 -104 -121l-66 53q45 31 79 81t38 95l-8 -2h-15q-38 0 -62 26t-24 64t28 67q28 28 70 28zM575 113q88 0 171 46t124 111v447q-41 67 -124 113t-171 47q-147 0 -233 -108q-86 -107 -86 -275t86 -274t233 -107z
M1024 0h-154v147q-126 -172 -328 -172q-202 1 -324 141t-122 377t123 379t323 142t328 -174v526h154v-1366z" />
    <glyph glyph-name="Dcroat" unicode="&#x110;" horiz-adv-x="1490" 
d="M733 612h-346v-460h297q242 0 383 152t141 379q0 228 -139 380t-385 151h-297v-477h346v-125zM684 0h-467v612h-197v125h197v629h467q313 0 507 -195q193 -195 193 -491t-192 -488t-508 -192z" />
    <glyph glyph-name="dcroat" unicode="&#x111;" horiz-adv-x="1185" 
d="M575 113q88 0 171 46t124 111v447q-41 67 -124 113t-171 47q-147 0 -233 -108q-86 -107 -86 -275t86 -274t233 -107zM1024 0h-154v147q-126 -172 -328 -172q-202 1 -324 141t-122 377t123 379t323 142t328 -174v256h-321v98h321v172h154v-172h139v-98h-139v-1096z" />
    <glyph glyph-name="Emacron" unicode="&#x112;" horiz-adv-x="1165" 
d="M973 1534h-744v98h744v-98zM1055 0h-895v1366h895v-152h-725v-440h710v-151h-710v-471h725v-152z" />
    <glyph glyph-name="emacron" unicode="&#x113;" horiz-adv-x="1153" 
d="M948 1184h-743v98h743v-98zM907 559q-2 125 -86 226t-235 101q-150 0 -236 -100t-92 -227h649zM608 -25q-230 1 -370 145q-142 144 -142 368t140 376q140 150 353 150q214 0 342 -151t128 -380v-39h-799q10 -145 106 -243q96 -99 264 -99t292 127l73 -100
q-157 -154 -387 -154z" />
    <glyph glyph-name="Ebreve" unicode="&#x114;" horiz-adv-x="1165" 
d="M604 1479q-224 0 -362 180l77 65q103 -147 283 -147t285 147l74 -65q-133 -180 -357 -180zM1055 0h-895v1366h895v-152h-725v-440h710v-151h-710v-471h725v-152z" />
    <glyph glyph-name="ebreve" unicode="&#x115;" horiz-adv-x="1153" 
d="M591 1153q-224 0 -362 180l78 66q103 -147 283 -147t284 147l74 -66q-133 -180 -357 -180zM907 559q-2 125 -86 226t-235 101q-150 0 -236 -100t-92 -227h649zM608 -25q-230 1 -370 145q-142 144 -142 368t140 376q140 150 353 150q214 0 342 -151t128 -380v-39h-799
q10 -145 106 -243q96 -99 264 -99t292 127l73 -100q-157 -154 -387 -154z" />
    <glyph glyph-name="Edotaccent" unicode="&#x116;" horiz-adv-x="1165" 
d="M616 1489q-40 0 -68 29q-28 30 -28 68t29 67t67 29t68 -28q29 -28 29 -69t-29 -69t-68 -27zM1055 0h-895v1366h895v-152h-725v-440h710v-151h-710v-471h725v-152z" />
    <glyph glyph-name="edotaccent" unicode="&#x117;" horiz-adv-x="1153" 
d="M489 1270q0 40 29 68t69 28q39 0 67 -28t28 -68t-28 -68t-67 -28q-40 0 -69 28t-29 68zM907 559q-2 125 -86 226t-235 101q-150 0 -236 -100t-92 -227h649zM608 -25q-230 1 -370 145q-142 144 -142 368t140 376q140 150 353 150q214 0 342 -151t128 -380v-39h-799
q10 -145 106 -243q96 -99 264 -99t292 127l73 -100q-157 -154 -387 -154z" />
    <glyph glyph-name="Eogonek" unicode="&#x118;" horiz-adv-x="1165" 
d="M991 -381q-78 0 -131 45t-53 133q0 117 108 203h-755v1366h895v-152h-725v-440h710v-151h-710v-471h725v-152q-156 -78 -156 -199q0 -102 92 -102q76 0 105 86l75 -43q-53 -123 -180 -123z" />
    <glyph glyph-name="eogonek" unicode="&#x119;" horiz-adv-x="1153" 
d="M907 559q-2 125 -86 226t-235 101q-150 0 -236 -100t-92 -227h649zM602 -25q-223 1 -364 145q-142 144 -142 368t140 376q140 150 353 150q214 0 342 -151t128 -380v-39h-799q10 -145 106 -243q96 -99 264 -99t292 127l73 -100q-92 -92 -219 -129q-156 -78 -155 -199
q0 -102 92 -102q76 0 104 86l76 -43q-53 -123 -180 -123q-78 0 -131 45q-54 45 -54 138t80 173h-6z" />
    <glyph glyph-name="Ecaron" unicode="&#x11a;" horiz-adv-x="1165" 
d="M686 1491h-147l-201 295h104l170 -217l164 217h105zM1055 0h-895v1366h895v-152h-725v-440h710v-151h-710v-471h725v-152z" />
    <glyph glyph-name="ecaron" unicode="&#x11b;" horiz-adv-x="1153" 
d="M662 1139h-148l-201 295h105l170 -217l164 217h104zM907 559q-2 125 -86 226t-235 101q-150 0 -236 -100t-92 -227h649zM608 -25q-230 1 -370 145q-142 144 -142 368t140 376q140 150 353 150q214 0 342 -151t128 -380v-39h-799q10 -145 106 -243q96 -99 264 -99t292 127
l73 -100q-157 -154 -387 -154z" />
    <glyph glyph-name="Gcircumflex" unicode="&#x11c;" horiz-adv-x="1460" 
d="M1087 1491h-104l-170 217l-164 -217h-104l194 295h148zM822 -27q-312 0 -515 198t-203 511t202 510t514 197t517 -254l-135 -86q-66 86 -171 137t-224 51q-227 0 -377 -156q-150 -157 -150 -399t152 -398q150 -156 375 -157q113 0 211 44t158 103v277h-471v151h638v-491
q-209 -238 -521 -238z" />
    <glyph glyph-name="gcircumflex" unicode="&#x11d;" horiz-adv-x="1177" 
d="M866 1124h-104l-170 217l-164 -217h-104l194 295h148zM575 125q88 0 170 46t125 114v434q-43 65 -125 111t-170 47q-147 -1 -233 -105t-86 -271t86 -271t233 -105zM551 -401q-129 1 -221 33t-178 116l77 111q113 -133 322 -133q135 0 227 70t92 218v150
q-57 -80 -145 -128t-188 -48q-197 0 -319 138t-122 374t122 374t323 140q201 0 329 -174v149h154v-975q0 -217 -134 -316t-339 -99z" />
    <glyph glyph-name="Gbreve" unicode="&#x11e;" horiz-adv-x="1460" 
d="M814 1479q-224 0 -361 180l77 65q104 -147 284 -147t284 147l73 -65q-133 -180 -357 -180zM822 -27q-312 0 -515 198t-203 511t202 510t514 197t517 -254l-135 -86q-66 86 -171 137t-224 51q-227 0 -377 -156q-150 -157 -150 -399t152 -398q150 -156 375 -157
q113 0 211 44t158 103v277h-471v151h638v-491q-209 -238 -521 -238z" />
    <glyph glyph-name="gbreve" unicode="&#x11f;" horiz-adv-x="1177" 
d="M587 1153q-224 0 -362 180l78 66q103 -147 283 -147t284 147l74 -66q-133 -180 -357 -180zM575 125q88 0 170 46t125 114v434q-43 65 -125 111t-170 47q-147 -1 -233 -105t-86 -271t86 -271t233 -105zM551 -401q-129 1 -221 33t-178 116l77 111q113 -133 322 -133
q135 0 227 70t92 218v150q-57 -80 -145 -128t-188 -48q-197 0 -319 138t-122 374t122 374t323 140q201 0 329 -174v149h154v-975q0 -217 -134 -316t-339 -99z" />
    <glyph glyph-name="Gdotaccent" unicode="&#x120;" horiz-adv-x="1460" 
d="M812 1489q-40 0 -69 29q-29 30 -29 68t29 67t69 29t68 -28t28 -69t-28 -69t-68 -27zM822 -27q-312 0 -515 198t-203 511t202 510t514 197t517 -254l-135 -86q-66 86 -171 137t-224 51q-227 0 -377 -156q-150 -157 -150 -399t152 -398q150 -156 375 -157q113 0 211 44
t158 103v277h-471v151h638v-491q-209 -238 -521 -238z" />
    <glyph glyph-name="gdotaccent" unicode="&#x121;" horiz-adv-x="1177" 
d="M592 1174q-39 0 -68 28t-28 68q0 40 28 68t68 28t68 -28t28 -68t-28 -68t-68 -28zM575 125q88 0 170 46t125 114v434q-43 65 -125 111t-170 47q-147 -1 -233 -105t-86 -271t86 -271t233 -105zM551 -401q-129 1 -221 33t-178 116l77 111q113 -133 322 -133q135 0 227 70
t92 218v150q-57 -80 -145 -128t-188 -48q-197 0 -319 138t-122 374t122 374t323 140q201 0 329 -174v149h154v-975q0 -217 -134 -316t-339 -99z" />
    <glyph glyph-name="Gcommaaccent" unicode="&#x122;" horiz-adv-x="1460" 
d="M814 -145q42 1 74 -37t32 -110t-41 -144q-41 -74 -105 -121l-65 53q45 31 78 81q34 50 38 95h-10q-8 -2 -12 -2q-37 0 -62 26t-25 64t28 67q28 28 70 28zM822 -27q-312 0 -515 198t-203 511t202 510t514 197t517 -254l-135 -86q-66 86 -171 137t-224 51q-227 0 -377 -156
q-150 -157 -150 -399t152 -398q150 -156 375 -157q113 0 211 44t158 103v277h-471v151h638v-491q-209 -238 -521 -238z" />
    <glyph glyph-name="gcommaaccent" unicode="&#x123;" horiz-adv-x="1177" 
d="M575 125q88 0 170 46t125 114v434q-43 65 -125 111t-170 47q-147 -1 -233 -105t-86 -271t86 -271t233 -105zM551 -401q-129 1 -221 33t-178 116l77 111q113 -133 322 -133q135 0 227 70t92 218v150q-57 -80 -145 -128t-188 -48q-197 0 -319 138t-122 374t122 374t323 140
q201 0 329 -174v149h154v-975q0 -217 -134 -316t-339 -99zM594 1335q22 1 50 -27t28 -66t-28 -66t-68 -29q-40 0 -70 32q-30 31 -29 105q0 74 40 153t101 122l68 -56q-45 -29 -80 -78t-37 -92q4 2 25 2z" />
    <glyph glyph-name="Hcircumflex" unicode="&#x124;" horiz-adv-x="1458" 
d="M995 1491h-104l-170 217l-164 -217h-104l194 295h148zM1298 0h-170v627h-798v-627h-170v1366h170v-588h798v588h170v-1366z" />
    <glyph glyph-name="hcircumflex" unicode="&#x125;" horiz-adv-x="1130" 
d="M506 1491h-105l-170 217l-163 -217h-105l195 295h147zM977 0h-154v651q0 125 -57 175q-58 50 -154 50t-177 -44q-81 -46 -126 -109v-723h-153v1366h153v-520q55 70 151 119t202 49q315 0 315 -316v-698z" />
    <glyph glyph-name="Hbar" unicode="&#x126;" horiz-adv-x="1497" 
d="M350 778h799v248h-799v-248zM1319 0h-170v627h-799v-627h-170v1026h-160v98h160v242h170v-242h799v242h170v-242h158v-98h-158v-1026z" />
    <glyph glyph-name="hbar" unicode="&#x127;" horiz-adv-x="1136" 
d="M633 1096h-318v-250q55 70 151 119t202 49q315 0 315 -316v-698h-154v651q0 125 -57 175q-58 50 -154 50t-177 -44q-81 -46 -126 -109v-723h-153v1096h-142v98h142v172h153v-172h318v-98z" />
    <glyph glyph-name="Itilde" unicode="&#x128;" horiz-adv-x="489" 
d="M367 1487q-49 0 -87 30q-38 31 -58 65q-54 95 -102 94t-76 -45t-28 -132h-92q0 123 52 199t147 76q49 0 87 -30t57 -65q51 -94 101 -94q105 0 105 176h92q0 -123 -52 -199t-146 -75zM330 0h-170v1366h170v-1366z" />
    <glyph glyph-name="itilde" unicode="&#x129;" horiz-adv-x="460" 
d="M352 1108q-49 0 -87 30t-57 64q-52 95 -102 95q-104 -2 -104 -177h-92q0 123 52 199t147 76q49 0 87 -30t57 -65q51 -94 101 -94q49 0 77 44t28 132h92q-1 -122 -53 -198t-146 -76zM307 0h-153v989h153v-989z" />
    <glyph glyph-name="Imacron" unicode="&#x12a;" horiz-adv-x="489" 
d="M616 1534h-743v98h743v-98zM330 0h-170v1366h170v-1366z" />
    <glyph glyph-name="imacron" unicode="&#x12b;" horiz-adv-x="460" 
d="M604 1184h-743v98h743v-98zM307 0h-153v989h153v-989z" />
    <glyph glyph-name="Ibreve" unicode="&#x12c;" horiz-adv-x="489" 
d="M251 1479q-224 0 -362 180l78 65q103 -147 283 -147t285 147l73 -65q-133 -180 -357 -180zM330 0h-170v1366h170v-1366z" />
    <glyph glyph-name="ibreve" unicode="&#x12d;" horiz-adv-x="460" 
d="M234 1153q-224 0 -361 180l78 66q104 -147 283 -147t284 147l74 -66q-134 -180 -358 -180zM307 0h-153v989h153v-989z" />
    <glyph glyph-name="Iogonek" unicode="&#x12e;" horiz-adv-x="489" 
d="M266 -381q-78 0 -131 45t-53 133q0 117 108 203h-30v1366h170v-1366q-156 -78 -156 -199q0 -102 92 -102q76 0 105 86l75 -43q-53 -123 -180 -123z" />
    <glyph glyph-name="iogonek" unicode="&#x12f;" horiz-adv-x="460" 
d="M231 1130q-43 0 -73 30t-31 73q0 43 31 74q32 31 74 31t72 -32q30 -30 30 -73t-30 -73t-73 -30zM244 -381q-78 0 -131 45t-54 133q0 117 109 203h-14v989h153v-989q-156 -78 -155 -199q0 -102 92 -102q75 0 104 86l76 -43q-53 -123 -180 -123z" />
    <glyph glyph-name="Idotaccent" unicode="&#x130;" horiz-adv-x="489" 
d="M342 1585q0 -41 -28 -69t-67 -27q-40 0 -69 29q-28 30 -28 68t28 67q29 29 69 29q39 0 67 -28t28 -69zM330 0h-170v1366h170v-1366z" />
    <glyph glyph-name="dotlessi" unicode="&#x131;" horiz-adv-x="460" 
d="M307 0h-153v989h153v-989z" />
    <glyph glyph-name="IJ" unicode="&#x132;" horiz-adv-x="1462" 
d="M854 -25q-207 0 -342 158l90 129q109 -135 245 -135t211 79t75 208v952h170v-954q0 -213 -121 -325t-328 -112zM330 0h-170v1366h170v-1366z" />
    <glyph glyph-name="ij" unicode="&#x133;" horiz-adv-x="923" 
d="M768 -96q0 -147 -76 -226t-208 -79t-224 73l53 115q61 -61 139 -61t120 44t42 134v1085h154v-1085zM692 1130q-43 0 -74 30t-30 73q0 43 30 74q31 31 74 31t73 -32q30 -30 30 -73t-30 -73t-73 -30zM307 0h-153v989h153v-989zM231 1130q-43 0 -73 30t-31 73q0 43 31 74
q32 31 74 31t72 -32q30 -30 30 -73t-30 -73t-73 -30z" />
    <glyph glyph-name="Jcircumflex" unicode="&#x134;" horiz-adv-x="972" 
d="M999 1491h-104l-170 217l-164 -217h-104l194 295h148zM813 412q-1 -213 -121 -325t-327 -112t-342 158l90 129q109 -135 245 -135t210 79t75 208v952h170v-954z" />
    <glyph glyph-name="jcircumflex" unicode="&#x135;" horiz-adv-x="460" 
d="M506 1139h-105l-170 217l-163 -217h-105l195 295h147zM307 -96q0 -147 -76 -226t-208 -79t-224 73l54 125q61 -61 137 -61t120 43t44 125v1085h153v-1085z" />
    <glyph glyph-name="Kcommaaccent" unicode="&#x136;" horiz-adv-x="1241" 
d="M737 -292q0 -72 -41 -144q-41 -74 -104 -121l-66 53q45 31 79 81t38 95h-8q-10 -2 -14 -2q-37 0 -62 26t-25 64t28 67q28 28 70 28t74 -37q31 -38 31 -110zM330 0h-170v1366h170v-704l604 704h213l-569 -647l620 -719h-213l-518 614l-137 -155v-459z" />
    <glyph glyph-name="kcommaaccent" unicode="&#x137;" horiz-adv-x="1052" 
d="M538 -145q42 1 74 -37t31 -110q0 -72 -41 -144q-41 -74 -104 -121l-66 53q45 31 79 81t38 95h-8q-10 -2 -15 -2q-38 0 -62 26t-24 64t28 67q28 28 70 28zM307 0h-153v1366h153v-903l520 526h195l-438 -448l440 -541h-197l-354 444l-166 -161v-283z" />
    <glyph glyph-name="kgreenlandic" unicode="&#x138;" horiz-adv-x="1052" 
d="M307 0h-153v989h153v-526l520 526h195l-438 -448l440 -541h-197l-354 444l-166 -161v-283z" />
    <glyph glyph-name="Lacute" unicode="&#x139;" horiz-adv-x="1009" 
d="M866 1786l-346 -295h-117l304 295h159zM942 0h-805v1366h170v-1214h635v-152z" />
    <glyph glyph-name="lacute" unicode="&#x13a;" horiz-adv-x="460" 
d="M559 1786l-346 -295h-117l303 295h160zM307 0h-153v1366h153v-1366z" />
    <glyph glyph-name="Lcommaaccent" unicode="&#x13b;" horiz-adv-x="1009" 
d="M618 -292q0 -72 -40 -144q-40 -74 -105 -121l-65 53q45 31 78 81q34 50 38 95h-8q-10 -2 -14 -2q-37 0 -62 26q-24 26 -24 64t27 67q28 28 70 28t74 -37q31 -38 31 -110zM942 0h-805v1366h170v-1214h635v-152z" />
    <glyph glyph-name="lcommaaccent" unicode="&#x13c;" horiz-adv-x="460" 
d="M243 -145q41 1 73 -37t32 -110t-41 -144q-41 -74 -104 -121l-66 53q45 31 79 81t38 95h-8q-10 -2 -15 -2q-37 0 -61 26t-25 64q0 38 28 67q28 28 70 28zM307 0h-153v1366h153v-1366z" />
    <glyph glyph-name="Lcaron" unicode="&#x13d;" horiz-adv-x="1009" 
d="M702 1246q0 -72 -40 -144q-40 -74 -105 -121l-65 53q45 31 78 81q34 50 38 95l-10 -2h-12q-37 0 -62 26q-24 26 -24 64t27 67q28 28 70 28t74 -37q31 -38 31 -110zM942 0h-805v1366h170v-1214h635v-152z" />
    <glyph glyph-name="lcaron" unicode="&#x13e;" horiz-adv-x="595" 
d="M532 1393q42 1 73 -37q32 -38 32 -110t-41 -144q-41 -74 -104 -121l-66 53q45 31 79 81t38 95l-11 -2h-12q-38 0 -62 26t-24 64t28 67q28 28 70 28zM307 0h-153v1366h153v-1366z" />
    <glyph glyph-name="Ldot" unicode="&#x13f;" horiz-adv-x="1048" 
d="M864 700q0 -44 -33 -78t-79 -34t-80 34q-33 34 -33 78t34 78q34 33 79 33q44 0 78 -33t34 -78zM942 0h-805v1366h170v-1214h635v-152z" />
    <glyph glyph-name="ldot" unicode="&#x140;" horiz-adv-x="628" 
d="M657 501q1 -46 -33 -79t-79 -33t-79 33t-34 79t34 79q34 32 79 32t79 -32q33 -33 33 -79zM307 0h-153v1366h153v-1366z" />
    <glyph glyph-name="Lslash" unicode="&#x141;" horiz-adv-x="1073" 
d="M201 1366h170v-563l196 112v-147l-196 -113v-503h635v-152h-805v557l-181 -104v147l181 105v661z" />
    <glyph glyph-name="lslash" unicode="&#x142;" horiz-adv-x="587" 
d="M217 1366h154v-575l194 110v-123l-194 -110v-668h-154v580l-197 -113v123l197 112v664z" />
    <glyph glyph-name="Nacute" unicode="&#x143;" horiz-adv-x="1449" 
d="M1053 1786l-346 -295h-117l303 295h160zM1290 0h-164l-796 1090v-1090h-170v1366h174l786 -1067v1067h170v-1366z" />
    <glyph glyph-name="nacute" unicode="&#x144;" horiz-adv-x="1130" 
d="M893 1434l-346 -295h-117l303 295h160zM981 0h-152v647q1 227 -211 229q-98 0 -178 -44q-80 -46 -127 -109v-723h-153v989h153v-143q57 70 153 119t202 49q313 0 313 -320v-694z" />
    <glyph glyph-name="Ncommaaccent" unicode="&#x145;" horiz-adv-x="1449" 
d="M736 -145q42 1 74 -37t32 -110t-41 -144q-41 -74 -105 -121l-65 53q45 31 79 81t38 95h-11q-8 -2 -12 -2q-37 0 -61 26t-25 64q0 38 28 67q27 28 69 28zM1290 0h-164l-796 1090v-1090h-170v1366h174l786 -1067v1067h170v-1366z" />
    <glyph glyph-name="ncommaaccent" unicode="&#x146;" horiz-adv-x="1130" 
d="M576 -145q42 1 74 -37t32 -110t-41 -144q-41 -74 -104 -121l-66 53q45 31 79 81t38 95h-10q-8 -2 -13 -2q-37 0 -61 26t-25 64q0 38 28 67q27 28 69 28zM981 0h-152v647q1 227 -211 229q-98 0 -178 -44q-80 -46 -127 -109v-723h-153v989h153v-143q57 70 153 119t202 49
q313 0 313 -320v-694z" />
    <glyph glyph-name="Ncaron" unicode="&#x147;" horiz-adv-x="1449" 
d="M801 1491h-148l-200 295h104l170 -217l164 217h104zM1290 0h-164l-796 1090v-1090h-170v1366h174l786 -1067v1067h170v-1366z" />
    <glyph glyph-name="ncaron" unicode="&#x148;" horiz-adv-x="1130" 
d="M641 1139h-147l-201 295h104l170 -217l164 217h105zM981 0h-152v647q1 227 -211 229q-98 0 -178 -44q-80 -46 -127 -109v-723h-153v989h153v-143q57 70 153 119t202 49q313 0 313 -320v-694z" />
    <glyph glyph-name="napostrophe" unicode="&#x149;" horiz-adv-x="1130" 
d="M224 1522q42 0 74 -38t32 -108q0 -72 -41 -146t-105 -120l-65 53q45 31 79 81t38 95h-11q-8 -2 -12 -2q-37 0 -61 26q-24 27 -25 65q0 38 28 66q27 28 69 28zM981 0h-152v647q1 227 -211 229q-98 0 -178 -44q-80 -46 -127 -109v-723h-153v989h153v-143q57 70 153 119
t202 49q313 0 313 -320v-694z" />
    <glyph glyph-name="Eng" unicode="&#x14a;" horiz-adv-x="1449" 
d="M1290 31q0 -213 -120 -323t-328 -109q-207 0 -342 157l90 129q109 -135 256 -135q118 0 192 71t80 187l-788 1082v-1090h-170v1366h174l786 -1067v1067h170v-1335z" />
    <glyph glyph-name="eng" unicode="&#x14b;" horiz-adv-x="1130" 
d="M975 -96q0 -147 -76 -226t-207 -79t-225 73l53 125q62 -61 138 -61t120 43t45 125v743q1 227 -211 229q-98 0 -178 -44q-80 -46 -127 -109v-723h-153v989h153v-143q57 70 153 119t202 49q313 0 313 -320v-790z" />
    <glyph glyph-name="Omacron" unicode="&#x14c;" horiz-adv-x="1566" 
d="M1153 1534h-743v98h743v-98zM281 682q0 -242 137 -398t363 -157q226 0 366 157q139 156 139 398t-139 398t-365 157q-226 0 -364 -156q-137 -157 -137 -399zM782 -25q-299 0 -488 201t-190 506q0 305 190 506t488 201q300 0 490 -201t190 -506t-190 -506t-490 -201z" />
    <glyph glyph-name="omacron" unicode="&#x14d;" horiz-adv-x="1171" 
d="M956 1184h-743v98h743v-98zM586 113q152 -1 240 111t87 272q0 160 -88 270q-87 110 -239 111q-152 0 -240 -111q-88 -110 -88 -270t88 -272t240 -111zM586 -25q-221 0 -356 150q-134 150 -134 371t134 369q134 149 356 149t355 -148q134 -148 134 -370q0 -221 -134 -371
t-355 -150z" />
    <glyph glyph-name="Obreve" unicode="&#x14e;" horiz-adv-x="1566" 
d="M784 1479q-224 0 -362 180l78 65q104 -147 283 -147t284 147l74 -65q-133 -180 -357 -180zM281 682q0 -242 137 -398t363 -157q226 0 366 157q139 156 139 398t-139 398t-365 157q-226 0 -364 -156q-137 -157 -137 -399zM782 -25q-299 0 -488 201t-190 506q0 305 190 506
t488 201q300 0 490 -201t190 -506t-190 -506t-490 -201z" />
    <glyph glyph-name="obreve" unicode="&#x14f;" horiz-adv-x="1171" 
d="M589 1153q-224 0 -362 180l78 66q103 -147 283 -147t284 147l74 -66q-133 -180 -357 -180zM586 113q152 -1 240 111t87 272q0 160 -88 270q-87 110 -239 111q-152 0 -240 -111q-88 -110 -88 -270t88 -272t240 -111zM586 -25q-221 0 -356 150q-134 150 -134 371t134 369
q134 149 356 149t355 -148q134 -148 134 -370q0 -221 -134 -371t-355 -150z" />
    <glyph glyph-name="Ohungarumlaut" unicode="&#x150;" horiz-adv-x="1566" 
d="M1182 1786l-236 -295h-98l192 295h142zM891 1786l-236 -295h-98l193 295h141zM281 682q0 -242 137 -398t363 -157q226 0 366 157q139 156 139 398t-139 398t-365 157q-226 0 -364 -156q-137 -157 -137 -399zM782 -25q-299 0 -488 201t-190 506q0 305 190 506t488 201
q300 0 490 -201t190 -506t-190 -506t-490 -201z" />
    <glyph glyph-name="ohungarumlaut" unicode="&#x151;" horiz-adv-x="1171" 
d="M985 1434l-235 -295h-99l193 295h141zM694 1434l-235 -295h-99l193 295h141zM586 113q152 -1 240 111t87 272q0 160 -88 270q-87 110 -239 111q-152 0 -240 -111q-88 -110 -88 -270t88 -272t240 -111zM586 -25q-221 0 -356 150q-134 150 -134 371t134 369
q134 149 356 149t355 -148q134 -148 134 -370q0 -221 -134 -371t-355 -150z" />
    <glyph glyph-name="OE" unicode="&#x152;" horiz-adv-x="2263" 
d="M788 1235q-231 0 -369 -155q-138 -156 -138 -398t138 -398t369 -157q160 0 285 85t184 247v448q-59 160 -183 244t-286 84zM2152 0h-895v248q-75 -131 -207 -202t-282 -71q-295 0 -479 201t-185 506q0 305 184 505t480 199q150 0 283 -70t206 -198v248h895v-152h-725
v-440h711v-151h-711v-471h725v-152z" />
    <glyph glyph-name="oe" unicode="&#x153;" horiz-adv-x="1970" 
d="M913 495q0 163 -89 273q-88 110 -238 109q-150 0 -239 -110q-89 -111 -89 -273t89 -273t239 -111t238 112q88 110 89 273zM1075 559h651q-4 125 -88 226t-234 101t-236 -100t-93 -227zM1876 444h-799q9 -145 105 -243q96 -99 265 -99t292 127l73 -100
q-158 -154 -393 -154q-170 0 -272 85t-154 198q-127 -283 -407 -283q-221 0 -356 150q-134 150 -134 371t134 369q134 149 357 149t358 -193q30 -43 50 -90q45 107 147 195t259 88q219 0 347 -151t128 -380v-39z" />
    <glyph glyph-name="Racute" unicode="&#x154;" horiz-adv-x="1247" 
d="M952 1786l-346 -295h-117l304 295h159zM688 692q121 0 198 74t77 190t-77 187q-77 72 -198 71h-358v-522h358zM330 543v-543h-170v1366h549q190 0 310 -113t120 -294q1 -181 -103 -285t-254 -117l369 -557h-201l-346 543h-274z" />
    <glyph glyph-name="racute" unicode="&#x155;" horiz-adv-x="675" 
d="M721 1434l-346 -295h-117l303 295h160zM307 0h-153v989h153v-158q141 180 330 181v-158q-37 4 -59 4q-72 0 -154 -48t-117 -110v-700z" />
    <glyph glyph-name="Rcommaaccent" unicode="&#x156;" horiz-adv-x="1247" 
d="M741 -292q0 -72 -41 -144q-41 -74 -104 -121l-66 53q45 31 79 81t38 95h-8q-10 -2 -14 -2q-37 0 -62 26t-25 64t28 67q28 28 70 28t74 -37q31 -38 31 -110zM688 692q121 0 198 74t77 190t-77 187q-77 72 -198 71h-358v-522h358zM330 543v-543h-170v1366h549
q190 0 310 -113t120 -294q1 -181 -103 -285t-254 -117l369 -557h-201l-346 543h-274z" />
    <glyph glyph-name="rcommaaccent" unicode="&#x157;" horiz-adv-x="675" 
d="M350 -145q42 1 73 -37q32 -38 32 -110t-41 -144q-41 -74 -105 -121l-65 53q45 31 79 81t37 95h-8q-10 -2 -14 -2q-37 0 -62 26q-24 26 -24 64t28 67q28 28 70 28zM307 0h-153v989h153v-158q141 180 330 181v-158q-37 4 -59 4q-72 0 -154 -48t-117 -110v-700z" />
    <glyph glyph-name="Rcaron" unicode="&#x158;" horiz-adv-x="1247" 
d="M702 1491h-147l-201 295h105l170 -217l164 217h104zM688 692q121 0 198 74t77 190t-77 187q-77 72 -198 71h-358v-522h358zM330 543v-543h-170v1366h549q190 0 310 -113t120 -294q1 -181 -103 -285t-254 -117l369 -557h-201l-346 543h-274z" />
    <glyph glyph-name="rcaron" unicode="&#x159;" horiz-adv-x="675" 
d="M469 1139h-147l-201 295h104l170 -217l164 217h105zM307 0h-153v989h153v-158q141 180 330 181v-158q-37 4 -59 4q-72 0 -154 -48t-117 -110v-700z" />
    <glyph glyph-name="Sacute" unicode="&#x15a;" horiz-adv-x="1200" 
d="M926 1786l-346 -295h-117l303 295h160zM602 -25q-332 0 -524 218l102 131q170 -197 428 -197q166 0 244 72t78 160t-60 142t-150 79q-263 74 -371 115q-228 88 -228 313q0 168 133 274t338 107q301 0 483 -193l-102 -125q-145 164 -395 164q-123 0 -202 -60
q-79 -61 -79 -145t60 -131q59 -47 149 -70q221 -57 390 -128q89 -38 150 -121q60 -84 60 -203q0 -166 -124 -284t-380 -118z" />
    <glyph glyph-name="sacute" unicode="&#x15b;" horiz-adv-x="952" 
d="M805 1434l-346 -295h-117l303 295h160zM469 -25q-250 0 -399 156l77 111q51 -58 141 -100t192 -42q104 0 166 47t62 118t-62 109q-64 38 -154 57t-180 45t-152 88q-64 62 -64 174t98 194t269 82q227 0 366 -144l-71 -106q-104 125 -295 125q-99 0 -159 -44
q-60 -45 -60 -103q0 -106 157 -137q157 -32 296 -88q69 -28 114 -90t45 -153q0 -131 -102 -215t-285 -84z" />
    <glyph glyph-name="Scircumflex" unicode="&#x15c;" horiz-adv-x="1200" 
d="M602 -25q-332 0 -524 218l102 131q170 -197 428 -197q166 0 244 72t78 160t-60 142t-150 79q-263 74 -371 115q-228 88 -228 313q0 168 133 274t338 107q301 0 483 -193l-102 -125q-145 164 -395 164q-123 0 -202 -60q-79 -61 -79 -145t60 -131q59 -47 149 -70
q221 -57 390 -128q89 -38 150 -121q60 -84 60 -203q0 -166 -124 -284t-380 -118zM856 1491h-104l-170 217l-164 -217h-105l195 295h147z" />
    <glyph glyph-name="scircumflex" unicode="&#x15d;" horiz-adv-x="952" 
d="M739 1139h-104l-170 217l-164 -217h-104l194 295h148zM469 -25q-250 0 -399 156l77 111q51 -58 141 -100t192 -42q104 0 166 47t62 118t-62 109q-64 38 -154 57t-180 45t-152 88q-64 62 -64 174t98 194t269 82q227 0 366 -144l-71 -106q-104 125 -295 125q-99 0 -159 -44
q-60 -45 -60 -103q0 -106 157 -137q157 -32 296 -88q69 -28 114 -90t45 -153q0 -131 -102 -215t-285 -84z" />
    <glyph glyph-name="Scedilla" unicode="&#x15e;" horiz-adv-x="1200" 
d="M803 -234q-1 -68 -61 -112q-60 -45 -172 -45t-187 61l39 78q74 -59 164 -59q53 1 89 23t36 63q0 72 -76 71q-49 0 -78 -34l-68 38l48 127q-287 23 -459 216l102 131q170 -197 428 -197q166 0 244 72t78 160t-60 142t-150 79q-263 74 -371 115q-228 88 -228 313
q0 168 133 274t338 107q301 0 483 -193l-102 -125q-145 164 -395 164q-123 0 -202 -60q-79 -61 -79 -145t60 -131q59 -47 149 -70q221 -57 390 -128q89 -38 150 -121q60 -84 60 -203q0 -162 -118 -279t-361 -123l-35 -88q29 23 82 23t91 -38t38 -106z" />
    <glyph glyph-name="scedilla" unicode="&#x15f;" horiz-adv-x="952" 
d="M680 -234q0 -68 -60 -112q-60 -45 -172 -45q-110 0 -188 61l39 78q74 -59 164 -59q53 1 89 23t36 63q0 72 -76 71q-49 0 -78 -34l-67 38l47 127q-213 16 -344 154l77 111q51 -58 141 -100t192 -42q104 0 166 47t62 118t-62 109q-64 38 -154 57t-180 45t-152 88
q-64 62 -64 174t98 194t269 82q227 0 366 -144l-71 -106q-104 125 -295 125q-99 0 -159 -44q-60 -45 -60 -103q0 -106 157 -137q157 -32 296 -88q69 -28 114 -90t45 -153q0 -124 -92 -206t-260 -91l-35 -90q29 23 82 23t91 -38t38 -106z" />
    <glyph glyph-name="Scaron" unicode="&#x160;" horiz-adv-x="1200" 
d="M602 -25q-332 0 -524 218l102 131q170 -197 428 -197q166 0 244 72t78 160t-60 142t-150 79q-263 74 -371 115q-228 88 -228 313q0 168 133 274t338 107q301 0 483 -193l-102 -125q-145 164 -395 164q-123 0 -202 -60q-79 -61 -79 -145t60 -131q59 -47 149 -70
q221 -57 390 -128q89 -38 150 -121q60 -84 60 -203q0 -166 -124 -284t-380 -118zM662 1491h-148l-201 295h105l170 -217l164 217h104z" />
    <glyph glyph-name="scaron" unicode="&#x161;" horiz-adv-x="952" 
d="M545 1139h-148l-200 295h104l170 -217l164 217h104zM469 -25q-250 0 -399 156l77 111q51 -58 141 -100t192 -42q104 0 166 47t62 118t-62 109q-64 38 -154 57t-180 45t-152 88q-64 62 -64 174t98 194t269 82q227 0 366 -144l-71 -106q-104 125 -295 125q-99 0 -159 -44
q-60 -45 -60 -103q0 -106 157 -137q157 -32 296 -88q69 -28 114 -90t45 -153q0 -131 -102 -215t-285 -84z" />
    <glyph glyph-name="Tcommaaccent" unicode="&#x162;" horiz-adv-x="1167" 
d="M700 -292q0 -72 -41 -144q-41 -74 -104 -121l-66 53q45 31 79 81t38 95h-8q-10 -2 -14 -2q-37 0 -62 26q-24 26 -24 64t27 67q28 28 70 28t74 -37q31 -38 31 -110zM668 0h-170v1214h-432v152h1036v-152h-434v-1214z" />
    <glyph glyph-name="Tcommaaccent" unicode="&#x21a;" horiz-adv-x="1167" 
d="M700 -292q0 -72 -41 -144q-41 -74 -104 -121l-66 53q45 31 79 81t38 95h-8q-10 -2 -14 -2q-37 0 -62 26q-24 26 -24 64t27 67q28 28 70 28t74 -37q31 -38 31 -110zM668 0h-170v1214h-432v152h1036v-152h-434v-1214z" />
    <glyph glyph-name="tcommaaccent" unicode="&#x163;" horiz-adv-x="602" 
d="M312 -145q42 1 74 -37t32 -110t-41 -144q-41 -74 -105 -121l-65 53q45 31 79 81t38 95h-9q-10 -2 -14 -2q-37 0 -61 26t-25 64q0 38 28 67q27 28 69 28zM340 240q0 -128 108 -128q56 0 95 44l45 -117q-67 -64 -182 -64q-221 0 -222 232v647h-164v135h164v271h156v-271
h201v-135h-201v-614z" />
    <glyph glyph-name="tcommaaccent" unicode="&#x21b;" horiz-adv-x="602" 
d="M312 -145q42 1 74 -37t32 -110t-41 -144q-41 -74 -105 -121l-65 53q45 31 79 81t38 95h-9q-10 -2 -14 -2q-37 0 -61 26t-25 64q0 38 28 67q27 28 69 28zM340 240q0 -128 108 -128q56 0 95 44l45 -117q-67 -64 -182 -64q-221 0 -222 232v647h-164v135h164v271h156v-271
h201v-135h-201v-614z" />
    <glyph glyph-name="Tcaron" unicode="&#x164;" horiz-adv-x="1167" 
d="M659 1491h-147l-201 295h105l170 -217l164 217h104zM668 0h-170v1214h-432v152h1036v-152h-434v-1214z" />
    <glyph glyph-name="tcaron" unicode="&#x165;" horiz-adv-x="641" 
d="M560 1522q42 0 74 -38t32 -108q0 -72 -41 -146t-105 -120l-65 53q45 31 79 81t37 95h-10q-8 -2 -12 -2q-37 0 -62 26q-25 27 -25 65t28 66t70 28zM340 240q0 -128 108 -128q56 0 95 44l45 -117q-67 -64 -182 -64q-221 0 -222 232v647h-164v135h164v271h156v-271h201v-135
h-201v-614z" />
    <glyph glyph-name="Tbar" unicode="&#x166;" horiz-adv-x="1167" 
d="M668 0h-170v602h-308v98h308v514h-432v152h1036v-152h-434v-514h311v-98h-311v-602z" />
    <glyph glyph-name="tbar" unicode="&#x167;" horiz-adv-x="602" 
d="M340 240q0 -128 108 -128q56 0 95 44l45 -117q-68 -63 -182 -64q-221 0 -222 232v258h-164v98h164v291h-164v135h164v271h156v-271h201v-135h-201v-291h141v-98h-141v-225z" />
    <glyph glyph-name="Utilde" unicode="&#x168;" horiz-adv-x="1435" 
d="M844 1487q-49 0 -87 30q-37 31 -57 65q-54 95 -103 94q-48 -1 -76 -45t-27 -132h-93q1 123 53 199t146 76q49 0 87 -30t57 -65q51 -94 101 -94t78 44t27 132h92q0 -123 -52 -199t-146 -75zM1276 532q0 -260 -144 -408t-414 -149q-270 1 -414 149t-144 406v836h172v-831
q0 -190 99 -299t285 -109t288 109q100 109 100 299v831h172v-834z" />
    <glyph glyph-name="utilde" unicode="&#x169;" horiz-adv-x="1128" 
d="M686 1135q-49 -1 -87 29t-57 65q-51 94 -101 94q-105 0 -105 -176h-92q0 123 52 199t146 75q49 1 87 -29q37 -30 57 -65q52 -94 102 -94q49 0 77 44t28 132h92q0 -123 -52 -199q-53 -75 -147 -75zM307 338q0 -225 212 -225q97 0 177 43t125 106v727h154v-989h-154v139
q-61 -71 -154 -117t-198 -47q-315 0 -315 316v698h153v-651z" />
    <glyph glyph-name="Umacron" unicode="&#x16a;" horiz-adv-x="1435" 
d="M1090 1534h-744v98h744v-98zM1276 532q0 -260 -144 -408t-414 -149q-270 1 -414 149t-144 406v836h172v-831q0 -190 99 -299t285 -109t288 109q100 109 100 299v831h172v-834z" />
    <glyph glyph-name="umacron" unicode="&#x16b;" horiz-adv-x="1128" 
d="M936 1184h-743v98h743v-98zM307 338q0 -225 212 -225q97 0 177 43t125 106v727h154v-989h-154v139q-61 -71 -154 -117t-198 -47q-315 0 -315 316v698h153v-651z" />
    <glyph glyph-name="Ubreve" unicode="&#x16c;" horiz-adv-x="1435" 
d="M726 1479q-224 0 -361 180l77 65q104 -147 284 -147t284 147l73 -65q-133 -180 -357 -180zM1276 532q0 -260 -144 -408t-414 -149q-270 1 -414 149t-144 406v836h172v-831q0 -190 99 -299t285 -109t288 109q100 109 100 299v831h172v-834z" />
    <glyph glyph-name="ubreve" unicode="&#x16d;" horiz-adv-x="1128" 
d="M570 1153q-224 0 -361 180l78 66q104 -147 283 -147t284 147l74 -66q-134 -180 -358 -180zM307 338q0 -225 212 -225q97 0 177 43t125 106v727h154v-989h-154v139q-61 -71 -154 -117t-198 -47q-315 0 -315 316v698h153v-651z" />
    <glyph glyph-name="Uring" unicode="&#x16e;" horiz-adv-x="1435" 
d="M720 1499q50 0 85 36t35 85t-35 85t-85 36t-85 -36t-35 -85t35 -85t85 -36zM721 1417q-82 -1 -142 59t-61 144q0 84 60 143t143 59q82 0 140 -58q59 -60 59 -144t-58 -144t-141 -59zM1276 532q0 -260 -144 -408t-414 -149q-270 1 -414 149t-144 406v836h172v-831
q0 -190 99 -299t285 -109t288 109q100 109 100 299v831h172v-834z" />
    <glyph glyph-name="uring" unicode="&#x16f;" horiz-adv-x="1128" 
d="M564 1212q50 0 85 36t35 85t-35 85t-85 36t-85 -36t-35 -85t35 -85t85 -36zM565 1130q-82 0 -142 60t-61 143q0 83 60 143t143 60t141 -59t58 -143t-58 -144t-141 -60zM307 338q0 -225 212 -225q97 0 177 43t125 106v727h154v-989h-154v139q-61 -71 -154 -117t-198 -47
q-315 0 -315 316v698h153v-651z" />
    <glyph glyph-name="Uhungarumlaut" unicode="&#x170;" horiz-adv-x="1435" 
d="M1118 1786l-235 -295h-99l193 295h141zM827 1786l-235 -295h-98l192 295h141zM1276 532q0 -260 -144 -408t-414 -149q-270 1 -414 149t-144 406v836h172v-831q0 -190 99 -299t285 -109t288 109q100 109 100 299v831h172v-834z" />
    <glyph glyph-name="uhungarumlaut" unicode="&#x171;" horiz-adv-x="1128" 
d="M965 1434l-236 -295h-98l192 295h142zM674 1434l-236 -295h-98l192 295h142zM307 338q0 -225 212 -225q97 0 177 43t125 106v727h154v-989h-154v139q-61 -71 -154 -117t-198 -47q-315 0 -315 316v698h153v-651z" />
    <glyph glyph-name="Uogonek" unicode="&#x172;" horiz-adv-x="1435" 
d="M850 -381q-78 0 -131 45t-53 138t79 173h-28q-269 1 -413 149t-144 406v836h172v-831q0 -190 99 -299t285 -109t288 109q100 109 100 299v831h172v-834q0 -209 -92 -346t-271 -186q-156 -78 -155 -199q0 -102 92 -102q75 0 104 86l76 -43q-53 -123 -180 -123z" />
    <glyph glyph-name="uogonek" unicode="&#x173;" horiz-adv-x="1128" 
d="M307 338q0 -225 212 -225q97 0 177 43t125 106v727h154v-989q-156 -78 -156 -199q0 -102 92 -102q76 0 105 86l76 -43q-53 -123 -181 -123q-78 0 -131 45t-53 133q0 117 109 203h-15v139q-61 -71 -154 -117t-198 -47q-315 0 -315 316v698h153v-651z" />
    <glyph glyph-name="Wcircumflex" unicode="&#x174;" horiz-adv-x="1808" 
d="M1176 1491h-105l-170 217l-164 -217h-104l194 295h148zM1389 0h-185l-301 1102l-301 -1102h-184l-389 1366h188l303 -1139l314 1139h141l313 -1139l301 1139h191z" />
    <glyph glyph-name="wcircumflex" unicode="&#x175;" horiz-adv-x="1503" 
d="M1024 1139h-104l-170 217l-164 -217h-105l195 295h147zM1165 0h-155l-258 795l-258 -795h-154l-315 989h159l242 -788l260 788h133l258 -788l242 788h162z" />
    <glyph glyph-name="Ycircumflex" unicode="&#x176;" horiz-adv-x="1282" 
d="M727 0h-170v578l-539 788h199l424 -635l424 635h199l-537 -788v-578zM915 1491h-104l-170 217l-164 -217h-104l194 295h148z" />
    <glyph glyph-name="ycircumflex" unicode="&#x177;" horiz-adv-x="1003" 
d="M774 1139h-104l-170 217l-164 -217h-105l195 295h147zM210 -264q50 0 85 22t59 82l66 150l-414 999h168l328 -811l329 811h166l-495 -1190q-82 -197 -291 -200q-64 0 -111 14l23 139q37 -16 87 -16z" />
    <glyph glyph-name="Ydieresis" unicode="&#x178;" horiz-adv-x="1282" 
d="M727 0h-170v578l-539 788h199l424 -635l424 635h199l-537 -788v-578zM530 1583q0 -39 -28 -67t-66 -27q-40 0 -68 28q-28 29 -28 67t28 66t68 28t67 -28t27 -67zM954 1583q0 -39 -28 -67t-68 -27q-38 0 -66 28q-28 29 -28 67t28 66t68 28t67 -28t27 -67z" />
    <glyph glyph-name="Zacute" unicode="&#x179;" horiz-adv-x="1198" 
d="M926 1786l-346 -295h-117l303 295h160zM1100 0h-1002v141l768 1073h-768v152h987v-141l-770 -1073h785v-152z" />
    <glyph glyph-name="zacute" unicode="&#x17a;" horiz-adv-x="966" 
d="M809 1434l-346 -295h-117l303 295h160zM860 0h-754v121l545 733h-545v135h746v-117l-549 -737h557v-135z" />
    <glyph glyph-name="Zdotaccent" unicode="&#x17b;" horiz-adv-x="1198" 
d="M595 1489q-40 0 -69 29q-28 30 -28 68t28 67q29 29 69 29t68 -28q27 -28 27 -69t-28 -69t-67 -27zM1100 0h-1002v141l768 1073h-768v152h987v-141l-770 -1073h785v-152z" />
    <glyph glyph-name="zdotaccent" unicode="&#x17c;" horiz-adv-x="966" 
d="M481 1174q-39 0 -67 28t-29 68q0 40 29 68q30 28 68 28t67 -28t29 -68t-29 -68t-68 -28zM860 0h-754v121l545 733h-545v135h746v-117l-549 -737h557v-135z" />
    <glyph glyph-name="Zcaron" unicode="&#x17d;" horiz-adv-x="1198" 
d="M1100 0h-1002v141l768 1073h-768v152h987v-141l-770 -1073h785v-152zM676 1491h-148l-200 295h104l170 -217l164 217h104z" />
    <glyph glyph-name="zcaron" unicode="&#x17e;" horiz-adv-x="966" 
d="M547 1139h-148l-200 295h104l170 -217l164 217h104zM860 0h-754v121l545 733h-545v135h746v-117l-549 -737h557v-135z" />
    <glyph glyph-name="longs" unicode="&#x17f;" horiz-adv-x="581" 
d="M350 0h-153v854h-164v135h164v76q0 152 77 237q78 84 207 84t211 -75l-63 -99q-53 47 -121 48q-158 0 -158 -195v-1065z" />
    <glyph glyph-name="florin" unicode="&#x192;" horiz-adv-x="884" 
d="M100 520v139h168l94 418q31 143 127 227q95 84 225 82q130 0 197 -73l-75 -125q-35 47 -106 47t-126 -50t-76 -138l-86 -388h285v-139h-313l-191 -850h-172l189 850h-140z" />
    <glyph glyph-name="AEacute" unicode="&#x1fc;" horiz-adv-x="1941" 
d="M1341 1786l-346 -295h-116l303 295h159zM934 455v737l-455 -737h455zM1829 0h-895v305h-537l-188 -305h-195l852 1366h963v-152h-725v-440h711v-151h-711v-471h725v-152z" />
    <glyph glyph-name="aeacute" unicode="&#x1fd;" horiz-adv-x="1820" 
d="M1204 1434l-346 -295h-117l303 295h160zM502 518q-110 0 -178 -60t-68 -156t69 -156t177 -60q205 0 301 174q-31 72 -31 133q-90 125 -270 125zM926 559h649q-2 125 -86 226q-83 101 -235 101t-237 -100t-91 -227zM1726 444h-798q10 -145 105 -241q95 -97 265 -97
t291 125l74 -102q-159 -154 -407 -154t-396 205q-145 -205 -407 -205q-141 0 -247 88t-106 241t100 239t244 86q209 0 328 -131v176q0 96 -70 151t-180 56q-178 0 -303 -138l-72 107q158 164 396 164q287 0 336 -217q123 217 378 217q215 0 342 -151t127 -380v-39z" />
    <glyph glyph-name="Oslashacute" unicode="&#x1fe;" horiz-adv-x="1566" 
d="M782 1237q-227 1 -364 -155t-137 -406t149 -406l606 901q-115 66 -254 66zM782 127q225 0 365 157q139 158 139 410t-160 408l-608 -903q112 -72 264 -72zM782 -25q-197 0 -352 93l-45 -68h-137l90 133q-233 201 -234 549q0 305 190 506t488 201q188 0 342 -86l43 63h138
l-86 -129q115 -97 179 -241t64 -314q0 -305 -190 -506t-490 -201zM1114 1786l-346 -295h-117l303 295h160z" />
    <glyph glyph-name="oslashacute" unicode="&#x1ff;" horiz-adv-x="1171" 
d="M258 502q0 -154 70 -254l446 567q-78 61 -188 62q-152 -1 -240 -111t-88 -264zM586 113q152 -1 240 111t87 268q0 156 -77 258l-451 -568q82 -69 201 -69zM96 494q0 224 134 371q134 148 356 149q162 0 280 -84l47 59h113l-92 -117q141 -147 141 -372t-134 -375
t-355 -150q-170 0 -291 93l-53 -68h-111l98 125q-133 145 -133 369zM913 1434l-346 -295h-116l303 295h159z" />
    <glyph glyph-name="Scommaaccent" unicode="&#x218;" horiz-adv-x="1214" 
d="M612 -145q42 1 73 -37q32 -38 32 -110t-41 -144q-41 -74 -105 -121l-65 53q45 31 79 81t38 95h-9q-10 -2 -14 -2q-38 0 -62 26t-24 64t28 67q28 28 70 28zM612 -25q-332 0 -524 218l102 131q170 -197 428 -197q166 0 244 72t78 160t-60 142t-150 79q-255 71 -389 122
q-89 35 -150 113q-60 78 -60 193q0 168 133 274t338 107q301 0 483 -193l-102 -125q-145 164 -395 164q-123 0 -202 -60q-79 -61 -79 -145q1 -84 61 -131t149 -70t195 -57t194 -71q89 -38 150 -121q60 -84 60 -203q0 -166 -124 -284t-380 -118z" />
    <glyph glyph-name="scommaaccent" unicode="&#x219;" horiz-adv-x="958" 
d="M490 -145q42 1 74 -37t32 -110t-41 -144q-41 -74 -104 -121l-66 53q45 31 79 81t38 95h-10q-8 -2 -13 -2q-37 0 -61 26t-25 64q0 38 28 67q27 28 69 28zM469 -25q-250 0 -399 156l77 111q51 -58 141 -100t192 -42q104 0 166 47t62 118t-62 109q-64 38 -154 57t-180 45
t-152 88q-64 62 -64 174t98 194t269 82q227 0 366 -144l-71 -106q-104 125 -295 125q-99 0 -159 -44q-60 -45 -60 -103q0 -106 157 -137q157 -32 296 -88q69 -28 114 -90t45 -153q0 -131 -102 -215t-285 -84z" />
    <glyph glyph-name="hsuperior" unicode="&#x2b0;" horiz-adv-x="815" 
d="M692 668h-119v413q0 82 -36 115q-37 33 -109 33q-113 0 -186 -94v-467h-119v888h119v-335q94 106 235 106q215 0 215 -217v-442z" />
    <glyph glyph-name="hsuperior" unicode="&#xf637;" horiz-adv-x="815" 
d="M692 668h-119v413q0 82 -36 115q-37 33 -109 33q-113 0 -186 -94v-467h-119v888h119v-335q94 106 235 106q215 0 215 -217v-442z" />
    <glyph glyph-name="circumflex" unicode="&#x2c6;" horiz-adv-x="542" 
d="M543 1139h-105l-170 217l-164 -217h-104l195 295h147z" />
    <glyph glyph-name="caron" unicode="&#x2c7;" horiz-adv-x="542" 
d="M348 1139h-147l-201 295h104l170 -217l164 217h105z" />
    <glyph glyph-name="breve" unicode="&#x2d8;" horiz-adv-x="718" 
d="M362 1153q-224 0 -362 180l78 66q104 -147 283 -147t284 147l74 -66q-133 -180 -357 -180z" />
    <glyph glyph-name="dotaccent" unicode="&#x2d9;" horiz-adv-x="229" 
d="M18 1270q0 40 29 68t69 28t68 -28t27 -68q1 -40 -27 -68t-68 -28t-69 28t-29 68z" />
    <glyph glyph-name="ring" unicode="&#x2da;" horiz-adv-x="401" 
d="M82 1337q0 -49 35 -85t85 -35q50 -1 85 35t35 85t-35 85t-85 36t-85 -36t-35 -85zM202 1135q-83 0 -143 59q-59 59 -59 143q0 83 59 143t143 60t141 -59q58 -59 58 -143t-58 -144q-58 -59 -141 -59z" />
    <glyph glyph-name="ogonek" unicode="&#x2db;" horiz-adv-x="364" 
d="M184 -381q-78 0 -131 45t-53 127t49 148t131 108l68 -47q-156 -78 -156 -199q0 -102 92 -102q76 0 105 86l76 -43q-53 -123 -181 -123z" />
    <glyph glyph-name="tilde" unicode="&#x2dc;" horiz-adv-x="641" 
d="M442 1135q-49 -1 -87 29t-57 65q-51 94 -101 94q-105 0 -105 -176h-92q0 123 52 199t147 75q49 1 87 -29t57 -65q51 -94 101 -94q105 0 105 176h92q0 -123 -52 -199q-53 -75 -147 -75z" />
    <glyph glyph-name="hungarumlaut" unicode="&#x2dd;" horiz-adv-x="624" 
d="M625 1434l-236 -295h-98l192 295h142zM334 1434l-236 -295h-98l193 295h141z" />
    <glyph glyph-name="Delta" unicode="&#x394;" horiz-adv-x="1347" 
d="M1085 152l-411 1040l-412 -1040h823zM1329 0h-1311l551 1366h211z" />
    <glyph glyph-name="Delta" unicode="&#x2206;" horiz-adv-x="1347" 
d="M1085 152l-411 1040l-412 -1040h823zM1329 0h-1311l551 1366h211z" />
    <glyph glyph-name="Omega" unicode="&#x3a9;" horiz-adv-x="1566" 
d="M141 0v152h277q-313 205 -314 561q0 297 188 486t491 189t491 -188q188 -190 188 -487q0 -187 -87 -329t-226 -232h276v-152h-491v152q145 37 249 179q103 141 103 365t-134 382t-368 157q-234 0 -369 -158q-134 -158 -134 -381t103 -365t249 -179v-152h-492z" />
    <glyph glyph-name="Omega" unicode="&#x2126;" horiz-adv-x="1566" 
d="M141 0v152h277q-313 205 -314 561q0 297 188 486t491 189t491 -188q188 -190 188 -487q0 -187 -87 -329t-226 -232h276v-152h-491v152q145 37 249 179q103 141 103 365t-134 382t-368 157q-234 0 -369 -158q-134 -158 -134 -381t103 -365t249 -179v-152h-492z" />
    <glyph glyph-name="pi" unicode="&#x3c0;" horiz-adv-x="1148" 
d="M926 0h-156v887h-391v-887h-156v887h-157v137h1017v-137h-157v-887z" />
    <glyph glyph-name="endash" unicode="&#x2013;" horiz-adv-x="1214" 
d="M1153 428h-1092v135h1092v-135z" />
    <glyph glyph-name="emdash" unicode="&#x2014;" horiz-adv-x="1705" 
d="M1645 428h-1584v135h1584v-135z" />
    <glyph glyph-name="quoteleft" unicode="&#x2018;" horiz-adv-x="471" 
d="M334 1033q0 -46 -32 -78q-32 -31 -81 -31t-86 42t-37 122q0 81 46 164t118 134l78 -61q-49 -33 -88 -87t-45 -103l29 4q42 0 70 -30t28 -76z" />
    <glyph glyph-name="quoteright" unicode="&#x2019;" horiz-adv-x="471" 
d="M360 1222q0 -81 -46 -164t-119 -136l-78 63q49 33 88 87t45 104q-8 -4 -39 -4t-59 29q-28 30 -29 75q0 45 32 78q31 32 81 32t88 -41q36 -42 36 -123z" />
    <glyph glyph-name="quotesinglbase" unicode="&#x201a;" horiz-adv-x="471" 
d="M236 205q50 0 87 -42t37 -123t-46 -164t-119 -136l-78 63q51 33 89 87t44 104q-8 -4 -39 -4t-59 30t-29 74q0 45 32 78q31 33 81 33z" />
    <glyph glyph-name="quotedblleft" unicode="&#x201c;" horiz-adv-x="798" 
d="M676 1033q0 -46 -33 -78q-33 -31 -82 -31t-86 42t-37 122q0 81 46 164t120 134l76 -61q-49 -33 -87 -87t-44 -103l26 4q43 0 72 -30t29 -76zM248 1139q44 0 72 -30t28 -76t-33 -78q-33 -31 -81 -31t-86 42q-37 42 -37 122q0 81 46 164t119 134l76 -61q-49 -33 -87 -87
t-44 -103q20 4 27 4z" />
    <glyph glyph-name="quotedblright" unicode="&#x201d;" horiz-adv-x="798" 
d="M360 1222q0 -81 -46 -164t-119 -136l-78 63q49 33 88 87t45 104q-8 -4 -39 -4t-59 29q-28 30 -29 75q0 45 32 78q31 32 81 32t88 -41q36 -42 36 -123zM688 1222q0 -81 -46 -164t-120 -136l-76 63q49 33 88 87q38 54 44 104q-4 -4 -37 -4t-62 29q-29 30 -28 75q0 45 32 78
q33 32 82 32t86 -42t37 -122z" />
    <glyph glyph-name="quotedblbase" unicode="&#x201e;" horiz-adv-x="798" 
d="M688 40q0 -81 -46 -164t-120 -136l-76 63q49 33 88 87q38 54 44 104q-4 -4 -37 -4t-62 30t-28 74q0 45 32 78q33 33 82 33t86 -42t37 -123zM236 205q50 0 87 -42t37 -123t-46 -164t-119 -136l-78 63q51 33 89 87t44 104q-8 -4 -39 -4t-59 30t-29 74q0 45 32 78
q31 33 81 33z" />
    <glyph glyph-name="dagger" unicode="&#x2020;" horiz-adv-x="538" 
d="M492 1087l-183 9l8 -426h-98l10 426l-182 -9v89l182 -7l-10 217h98l-8 -217l183 7v-89z" />
    <glyph glyph-name="daggerdbl" unicode="&#x2021;" horiz-adv-x="538" 
d="M492 1176v-89l-183 9v-437l183 9v-88l-183 6l8 -217h-98l8 217l-180 -6v88l180 -9v437l-180 -9v89l180 -7l-8 217h98l-8 -217z" />
    <glyph glyph-name="bullet" unicode="&#x2022;" horiz-adv-x="733" 
d="M590 496q0 -90 -66 -155t-156 -65t-155 65q-66 65 -66 155t66 156t156 65q89 1 155 -65t66 -156z" />
    <glyph glyph-name="ellipsis" unicode="&#x2026;" horiz-adv-x="1415" 
d="M1180 205q46 0 78 -33t32 -79t-33 -80q-33 -33 -77 -33t-79 34q-34 34 -34 79q0 46 34 79t79 33zM707 205q47 0 79 -33t33 -79q0 -46 -34 -80q-35 -33 -79 -33t-78 34t-34 79q0 46 33 79t80 33zM236 205q48 0 80 -33t32 -79t-34 -80q-34 -33 -78 -33t-79 34
q-34 34 -34 79q0 46 33 79t80 33z" />
    <glyph glyph-name="perthousand" unicode="&#x2030;" horiz-adv-x="2220" 
d="M2034 312q0 103 -58 172t-149 69t-149 -69t-58 -172t58 -172q58 -68 148 -68t150 68q58 68 58 172zM2157 312q-1 -144 -93 -240t-237 -96t-237 96t-93 240q0 144 92 240q91 96 237 97q146 -1 238 -97t93 -240zM1313 312q1 103 -57 172t-150 69t-150 -69t-59 -172
q0 -103 58 -172q57 -68 149 -68t150 68t59 172zM600 1050q0 103 -57 172q-57 68 -149 68t-149 -68q-59 -68 -59 -172q0 -103 58 -172t149 -69q90 0 149 69q58 69 58 172zM1434 311q0 -145 -92 -240t-236 -95q-146 0 -238 96t-92 240t92 240t236 97q144 -1 238 -97
q92 -96 92 -241zM1249 1366l-874 -1366h-113l873 1366h114zM393 1386q145 0 237 -96t93 -241q0 -145 -92 -241q-91 -96 -237 -95q-146 0 -238 95q-92 94 -92 240t92 242t237 96z" />
    <glyph glyph-name="guilsinglleft" unicode="&#x2039;" horiz-adv-x="604" 
d="M543 129h-154l-328 369l328 362h154l-328 -362z" />
    <glyph glyph-name="guilsinglright" unicode="&#x203a;" horiz-adv-x="604" 
d="M543 498l-328 -369h-154l328 369l-328 362h154z" />
    <glyph glyph-name="fraction" unicode="&#x2044;" horiz-adv-x="284" 
d="M635 1366l-875 -1366h-110l872 1366h113z" />
    <glyph glyph-name="fraction" unicode="&#x2215;" horiz-adv-x="284" 
d="M635 1366l-875 -1366h-110l872 1366h113z" />
    <glyph glyph-name="zerosuperior" unicode="&#x2070;" 
d="M602 1272q0 139 -50 230t-156 91t-154 -91q-49 -91 -49 -230q0 -140 50 -232t154 -92t155 92q50 93 50 232zM729 1272q0 -170 -84 -297t-248 -127q-165 0 -247 126t-82 298t83 297t247 125t247 -126q84 -126 84 -296z" />
    <glyph glyph-name="foursuperior" unicode="&#x2074;" 
d="M481 1167v406l-278 -406h278zM721 1067h-117v-205h-123v205h-401v92l354 522h170v-514h117v-100z" />
    <glyph glyph-name="fivesuperior" unicode="&#x2075;" 
d="M705 1120q-1 -124 -89 -198t-223 -74q-203 0 -303 133l72 80q86 -113 231 -113q84 0 137 48q54 48 54 122t-52 121t-150 47t-179 -80l-88 33v442h534v-100h-409v-274q74 73 190 73t196 -68q79 -68 79 -192z" />
    <glyph glyph-name="sixsuperior" unicode="&#x2076;" 
d="M404 948q92 0 141 52t49 124q0 74 -53 118t-123 44q-135 0 -213 -112q6 -92 57 -159q50 -67 142 -67zM719 1125q0 -121 -84 -199t-219 -78q-170 0 -254 120t-84 303t92 303t250 120t254 -95l-60 -86q-74 80 -184 80t-168 -87q-59 -87 -61 -212q0 -23 2 -34q33 49 97 87
t136 37q121 0 202 -70t81 -189z" />
    <glyph glyph-name="sevensuperior" unicode="&#x2077;" horiz-adv-x="741" 
d="M68 1581v100h594v-84l-340 -735h-138l340 719h-456z" />
    <glyph glyph-name="eightsuperior" unicode="&#x2078;" 
d="M397 944q79 0 135 38t56 104t-66 106q-66 39 -125 47q-59 -8 -126 -47q-67 -40 -67 -106t57 -104q56 -38 136 -38zM573 1464q0 64 -49 98t-127 34t-128 -36q-50 -34 -50 -96q0 -94 178 -139q176 41 176 139zM711 1071q0 -107 -90 -165q-89 -58 -223 -58t-224 58t-90 165
q0 78 59 135t148 78q-84 20 -138 70t-55 125q0 106 89 160q89 55 210 55t210 -54t89 -161q0 -74 -54 -124t-138 -71q88 -20 148 -78t59 -135z" />
    <glyph glyph-name="ninesuperior" unicode="&#x2079;" 
d="M201 1416q0 -74 53 -117q53 -44 135 -44q125 0 203 115q-8 92 -58 158t-142 66t-141 -52q-50 -52 -50 -126zM360 1157q-122 -1 -202 69t-80 191t84 199t219 78q170 0 254 -120t84 -303t-93 -303t-253 -120t-250 94l59 86q70 -80 180 -80t170 87q59 87 62 214v33
q-35 -49 -98 -87t-136 -38z" />
    <glyph glyph-name="parenleftsuperior" unicode="&#x207d;" horiz-adv-x="329" 
d="M180 1272q0 -258 129 -510l-71 -33q-184 227 -184 541t184 545l71 -33q-129 -252 -129 -510z" />
    <glyph glyph-name="parenrightsuperior" unicode="&#x207e;" horiz-adv-x="329" 
d="M303 1272q0 -311 -186 -543l-70 33q129 252 129 510t-129 510l70 33q88 -109 137 -253t49 -290z" />
    <glyph glyph-name="nsuperior" unicode="&#x207f;" horiz-adv-x="815" 
d="M692 668h-119v411q0 150 -143 150q-55 0 -106 -28t-82 -66v-467h-119v643h119v-90q98 106 226 106t176 -56t48 -163v-440z" />
    <glyph glyph-name="zeroinferior" unicode="&#x2080;" 
d="M602 111q0 139 -50 230t-156 91t-154 -91q-49 -91 -49 -230t50 -231t154 -93q104 0 155 92q50 93 50 232zM729 111q0 -170 -84 -297t-248 -127q-165 0 -247 126t-82 298t83 297q83 124 247 124t247 -126q84 -126 84 -295z" />
    <glyph glyph-name="oneinferior" unicode="&#x2081;" horiz-adv-x="481" 
d="M358 -299h-122v659l-136 -141l-71 76l221 225h108v-819z" />
    <glyph glyph-name="twoinferior" unicode="&#x2082;" 
d="M698 -299h-596v92q256 183 362 289t107 190q0 84 -51 122t-123 38t-133 -31t-96 -75l-68 77q102 129 301 129q123 0 208 -61t85 -177t-102 -230t-309 -263h415v-100z" />
    <glyph glyph-name="threeinferior" unicode="&#x2083;" 
d="M702 -85q0 -97 -82 -163t-227 -65q-211 0 -307 133l68 78q88 -111 237 -111q88 0 138 39t51 104q0 141 -213 142q-70 0 -82 -2v102q14 -2 82 -2q201 0 200 131q0 61 -52 96t-132 35q-131 0 -223 -98l-64 72q113 127 299 126q131 0 212 -59t81 -151t-55 -139
q-55 -48 -127 -58q72 -9 134 -61t62 -149z" />
    <glyph glyph-name="fourinferior" unicode="&#x2084;" 
d="M481 6v406l-278 -406h278zM721 -94h-117v-205h-123v205h-401v92l354 522h170v-514h117v-100z" />
    <glyph glyph-name="fiveinferior" unicode="&#x2085;" 
d="M705 -41q-1 -123 -89 -198t-223 -74q-203 0 -303 133l72 80q86 -113 231 -113q84 0 137 48q54 48 54 122t-52 121t-150 47t-179 -80l-88 33v442h534v-100h-409v-275q74 74 190 74q116 -1 196 -69q79 -68 79 -191z" />
    <glyph glyph-name="sixinferior" unicode="&#x2086;" 
d="M404 -213q92 -1 141 51t49 126t-53 117q-53 44 -123 44q-136 0 -213 -113q6 -92 57 -158q50 -66 142 -67zM436 223q121 1 202 -69t81 -190t-84 -198t-219 -79q-170 -1 -254 119t-84 304t92 303t250 119t254 -94l-60 -86q-74 80 -184 80t-168 -87q-59 -87 -61 -212
q0 -23 2 -35q33 49 97 87t136 38z" />
    <glyph glyph-name="seveninferior" unicode="&#x2087;" horiz-adv-x="741" 
d="M68 420v100h594v-84l-340 -735h-138l340 719h-456z" />
    <glyph glyph-name="eightinferior" unicode="&#x2088;" 
d="M397 -217q79 0 135 38q56 39 56 105t-66 105t-125 47q-59 -8 -126 -47t-67 -105t57 -105q56 -38 136 -38zM573 303q0 63 -49 97t-127 34t-128 -35t-50 -96q0 -94 178 -139q176 41 176 139zM711 -90q0 -106 -90 -164q-89 -58 -223 -59q-134 0 -224 58t-90 165q0 78 59 135
t148 78q-84 21 -138 71t-55 123q0 107 89 161t210 54t210 -54t89 -161q0 -73 -54 -123t-138 -71q88 -19 148 -77t59 -136z" />
    <glyph glyph-name="nineinferior" unicode="&#x2089;" 
d="M201 256q0 -74 53 -118t135 -44q125 0 203 115q-8 92 -58 158q-50 65 -142 65t-141 -52q-50 -50 -50 -124zM360 -4q-122 0 -202 70t-80 190q0 121 84 199t219 77q170 0 254 -120t84 -302q0 -184 -93 -304t-253 -120t-250 95l59 86q70 -80 180 -80t170 87q59 87 62 214v33
q-35 -49 -98 -87t-136 -38z" />
    <glyph glyph-name="parenleftinferior" unicode="&#x208d;" horiz-adv-x="329" 
d="M180 111q0 -258 129 -510l-71 -33q-184 228 -184 542t184 543l71 -32q-129 -252 -129 -510z" />
    <glyph glyph-name="parenrightinferior" unicode="&#x208e;" horiz-adv-x="329" 
d="M303 111q0 -311 -186 -543l-70 33q129 252 129 510t-129 510l70 32q88 -109 137 -252t49 -290z" />
    <glyph glyph-name="colonmonetary" unicode="&#x20a1;" horiz-adv-x="1394" 
d="M561 188q68 -37 158 -53l344 1028q-76 47 -156 64zM289 666q0 -258 190 -420l330 991q-225 -5 -373 -159t-147 -412zM815 1389q21 0 45 -3l62 187h102l-68 -199q82 -16 158 -57l86 256h103l-105 -311q70 -53 135 -144l-141 -80q-25 35 -49 60l-322 -971q113 2 212 56
t159 143l143 -78q-198 -273 -520 -273q-31 0 -45 2l-59 -182h-105l64 195q-90 16 -160 47l-80 -242h-102l96 289q-145 92 -228 248t-83 350q0 311 201 509q202 198 501 198z" />
    <glyph glyph-name="frenchfranc" unicode="&#x20a3;" horiz-adv-x="1148" 
d="M350 0h-170v281h-160v98h160v987h895v-152h-725v-440h711v-151h-711v-244h414v-98h-414v-281z" />
    <glyph glyph-name="lira" unicode="&#x20a4;" horiz-adv-x="1060" 
d="M41 672v94h129q-72 100 -72 217q0 168 135 286t324 117q139 0 248 -60t166 -169l-137 -82q-27 70 -99 119q-71 49 -177 49t-190 -72q-84 -71 -85 -187q0 -116 79 -218h392v-94h-316q57 -82 72 -144h244v-94h-238q-10 -141 -154 -244q55 18 115 18t150 -41q90 -42 149 -42
q60 0 114 26t77 56l73 -137q-100 -96 -276 -97q-96 0 -194 47q-98 48 -179 48q-80 0 -235 -82l-60 129q131 57 201 138t70 173v8h-326v94h305q-18 45 -100 144h-205z" />
    <glyph glyph-name="uni20A6" unicode="&#x20a6;" horiz-adv-x="1492" 
d="M1141 496h-146l146 -197v197zM350 885h150l-150 205v-205zM1141 594v192h-361l144 -192h217zM350 786v-192h363l-142 192h-221zM1311 0h-164l-363 496h-434v-496h-170v496h-160v98h160v192h-160v99h160v481h174l355 -481h432v481h170v-481h159v-99h-159v-192h159v-98
h-159v-496z" />
    <glyph glyph-name="peseta" unicode="&#x20a7;" horiz-adv-x="1310" 
d="M350 1214v-204h625q-16 92 -89 148t-177 56h-359zM709 694q106 0 179 56t89 153h-627v-209h359zM1300 903h-147q-18 -158 -131 -259t-293 -101h-379v-543h-170v903h-160v107h160v356h549q180 0 293 -101t131 -255h147v-107z" />
    <glyph glyph-name="rupee" unicode="&#x20a8;" horiz-adv-x="2086" 
d="M1604 -25q-250 0 -400 156l78 111q51 -58 140 -100t193 -42t166 47t62 118t-63 109q-64 38 -154 57t-179 45t-153 88q-63 62 -63 174t98 194t268 82q227 0 367 -144l-72 -106q-104 125 -295 125q-100 0 -159 -44q-60 -45 -60 -103q-1 -106 155 -137q155 -31 299 -88
q69 -28 114 -90t45 -153q1 -131 -101 -215t-286 -84zM688 692q121 0 198 74t77 190t-77 187q-77 72 -198 71h-358v-522h358zM330 543v-543h-170v1366h549q190 0 310 -113t120 -294q1 -181 -103 -285t-254 -117l369 -557h-201l-346 543h-274z" />
    <glyph glyph-name="uni20A9" unicode="&#x20a9;" horiz-adv-x="1808" 
d="M903 1102l-59 -217h119zM1214 496l74 -269l70 269h-144zM449 496l71 -269l74 269h-145zM817 786l-53 -192h276l-51 192h-172zM1133 786l53 -192h198l52 192h-303zM371 786l51 -192h199l53 192h-303zM41 496v98h207l-55 192h-152v99h125l-137 481h188l127 -481h356
l134 481h141l131 -481h354l129 481h191l-140 -481h125v-99h-151l-55 -192h206v-98h-235l-141 -496h-185l-137 496h-330l-135 -496h-184l-142 496h-235z" />
    <glyph glyph-name="afii57636" unicode="&#x20aa;" horiz-adv-x="1681" 
d="M1067 0h-508v793h150v-658h358q311 0 311 309v682h150v-692q0 -434 -461 -434zM662 1126q461 0 460 -434v-360h-149v350q0 309 -311 309h-359v-991h-149v1126h508z" />
    <glyph glyph-name="Euro" unicode="&#x20ac;" horiz-adv-x="1423" 
d="M852 -25q-248 1 -433 139t-245 371h-111v107h91q-4 57 -4 90t4 94h-91v109h113q62 229 246 366t430 138q330 0 518 -271l-141 -80q-59 90 -161 144t-216 55q-174 0 -307 -95t-189 -257h619v-109h-643q-6 -47 -6 -94t6 -90h643v-107h-619q54 -164 188 -261t308 -97
q115 0 216 55t161 144l143 -78q-198 -273 -520 -273z" />
    <glyph glyph-name="afii61289" unicode="&#x2113;" horiz-adv-x="972" 
d="M758 1128q0 60 -65 102t-157 42t-160 -66q-67 -66 -67 -174v-303l291 195q84 57 121 100q37 44 37 104zM156 1034q0 150 108 251q109 101 272 101t266 -74t103 -174q-1 -102 -65 -176t-183 -153l-348 -234v-346q0 -129 99 -129q57 0 104 43l45 -104q-63 -63 -182 -64
q-219 0 -219 232v827z" />
    <glyph glyph-name="afii61352" unicode="&#x2116;" horiz-adv-x="2279" 
d="M1655 1054q1 -103 57 -171t153 -68t154 69t58 171t-57 170q-58 67 -155 67t-154 -67q-56 -68 -56 -171zM1866 717q-150 0 -242 98q-92 99 -92 241t91 239t242 97t241 -96q90 -98 92 -241q0 -143 -91 -241t-241 -97zM1290 0h-164l-796 1090v-1090h-170v1366h174l786 -1067
v1067h170v-1366z" />
    <glyph glyph-name="published" unicode="&#x2117;" horiz-adv-x="1593" 
d="M868 694q80 0 130 45t51 121q-1 76 -51 121t-130 45h-229v-332h229zM868 1098q110 0 184 -66t74 -172q0 -108 -74 -172q-75 -63 -184 -63h-229v-357h-76v830h305zM1440 684q0 264 -190 454t-453 189q-263 0 -453 -189q-190 -190 -190 -454t189 -454t453 -189
q264 -1 454 189t190 454zM1503 684q0 -291 -207 -499q-208 -208 -500 -208t-499 208t-207 499t207 499t500 208t499 -208t207 -499z" />
    <glyph glyph-name="servicemark" unicode="&#x2120;" horiz-adv-x="974" 
d="M385 1034q0 -61 -46 -98q-45 -37 -145 -37t-163 74l37 43q57 -66 137 -66q113 0 112 80q0 39 -44 62q-44 22 -95 30t-95 40t-44 88t46 92t118 36q113 0 168 -65l-37 -39q-45 55 -129 55q-43 0 -71 -20q-28 -21 -28 -55q0 -58 140 -84q53 -9 96 -42t43 -94zM899 915h-57
v373l-154 -373h-16l-154 373v-373h-57v451h88l131 -328l131 328h88v-451z" />
    <glyph glyph-name="trademark" unicode="&#x2122;" horiz-adv-x="929" 
d="M346 1313h-127v-398h-57v398h-127v53h311v-53zM858 915h-57v373l-154 -373h-16l-154 373v-373h-57v451h88l131 -328l131 328h88v-451z" />
    <glyph glyph-name="estimated" unicode="&#x212e;" horiz-adv-x="1724" 
d="M1368 715v391q0 29 -20 49q-199 203 -484 203t-487 -209q-20 -20 -21 -49v-385q0 -12 11 -13h993q8 1 8 13zM1661 664h-1294q-10 0 -11 -11v-389q0 -29 19 -47q201 -211 501 -211t502 236h117q-111 -129 -277 -204t-356 -75q-330 0 -564 211t-235 508q1 297 235 508
t564 211t564 -211t235 -508v-18z" />
    <glyph glyph-name="onethird" unicode="&#x2153;" horiz-adv-x="1652" 
d="M358 547h-122v659l-136 -141l-71 76l221 225h108v-819zM1561 214q0 -97 -83 -163t-227 -65q-211 0 -307 133l68 78q88 -111 237 -111q88 0 139 39q50 39 50 104q0 141 -213 142q-70 0 -82 -2v102q14 -2 82 -2q201 0 200 131q0 61 -52 96t-132 35q-131 0 -223 -98l-64 72
q113 127 299 126q131 0 212 -59q81 -58 81 -150t-55 -140t-127 -58q72 -8 134 -60t63 -150zM1208 1366l-874 -1366h-111l873 1366h112z" />
    <glyph glyph-name="twothirds" unicode="&#x2154;" horiz-adv-x="1873" 
d="M698 547h-596v92q256 183 362 289t107 190q0 84 -51 122t-123 38t-133 -31t-96 -76l-68 78q102 129 301 129q123 0 208 -61t85 -177t-102 -230t-309 -263h415v-100zM1782 214q0 -97 -83 -163t-226 -65q-211 0 -308 133l68 78q88 -111 237 -111q88 0 139 39q50 39 50 104
q0 141 -213 142q-70 0 -82 -2v102q14 -2 82 -2q201 0 201 131q-1 61 -53 96t-132 35q-131 0 -223 -98l-63 72q113 127 299 126q131 0 212 -59q81 -58 81 -150t-56 -140q-55 -48 -127 -58q73 -8 135 -60t62 -150zM1430 1366l-875 -1366h-111l873 1366h113z" />
    <glyph glyph-name="oneeighth" unicode="&#x215b;" horiz-adv-x="1652" 
d="M358 547h-122v659l-136 -141l-71 76l221 225h108v-819zM1446 224q0 66 -66 106q-66 39 -125 47q-59 -8 -126 -47q-67 -40 -67 -106t57 -104q56 -38 136 -38t136 38q55 38 55 104zM1432 602q0 63 -50 97t-127 34q-78 0 -128 -35t-50 -96q0 -94 178 -139q177 41 177 139z
M1569 209q0 -107 -90 -165q-89 -58 -223 -58t-224 58t-90 165q0 78 59 135t148 78q-84 20 -138 70t-55 124q0 106 90 160t210 55q120 0 209 -54t89 -161q0 -74 -54 -124t-138 -70q88 -20 148 -78t59 -135zM1208 1366l-874 -1366h-111l873 1366h112z" />
    <glyph glyph-name="threeeighths" unicode="&#x215c;" horiz-adv-x="1873" 
d="M702 761q0 -97 -82 -163t-227 -66q-211 0 -307 134l68 77q88 -111 237 -110q88 0 138 39t51 104q0 141 -213 142q-70 0 -82 -3v103q14 -2 82 -2q201 0 200 131q0 61 -52 96t-132 35q-131 0 -223 -98l-64 71q113 127 299 127q131 0 212 -59t81 -151t-55 -139
q-55 -48 -127 -58q72 -9 134 -61t62 -149zM1667 224q0 66 -65 106q-66 39 -125 47q-59 -8 -126 -47q-67 -40 -67 -106t56 -104t136 -38t136 38q55 38 55 104zM1653 602q0 63 -49 97t-127 34t-128 -35t-51 -96q0 -94 179 -139q176 41 176 139zM1790 209q0 -107 -90 -165
t-223 -58t-224 58q-90 58 -90 165q-1 78 59 135t148 78q-84 20 -138 70t-54 124q0 106 89 160t210 55q121 0 210 -54t89 -161q0 -74 -54 -124t-139 -70q87 -20 147 -78t60 -135zM1430 1366l-875 -1366h-111l873 1366h113z" />
    <glyph glyph-name="fiveeighths" unicode="&#x215d;" horiz-adv-x="1867" 
d="M705 805q-1 -123 -89 -198t-223 -75q-203 0 -303 134l72 79q86 -113 231 -112q84 0 137 48q54 48 54 122t-52 121t-150 47t-179 -80l-88 33v442h534v-100h-409v-275q74 74 190 74q116 -1 196 -69q79 -68 79 -191zM1661 224q0 66 -66 106q-66 39 -125 47q-60 -8 -126 -47
q-66 -40 -66 -106t56 -104t136 -38t136 38q55 38 55 104zM1647 602q1 63 -49 97t-128 34t-128 -35t-50 -96q0 -94 178 -139q177 41 177 139zM1784 209q0 -107 -90 -165t-224 -58t-223 58q-90 58 -90 165q-1 78 59 135t148 78q-84 20 -138 70t-55 124q-1 106 89 160t210 55
q120 0 210 -54q89 -54 89 -161q0 -74 -54 -124t-138 -70q87 -20 147 -78t60 -135zM1423 1366l-874 -1366h-111l873 1366h112z" />
    <glyph glyph-name="seveneighths" unicode="&#x215e;" horiz-adv-x="1699" 
d="M68 1266v100h594v-84l-340 -735h-138l340 719h-456zM1493 224q0 66 -66 106q-66 39 -124 47q-59 -8 -126 -47q-67 -40 -67 -106t56 -104t136 -38t136 38q55 38 55 104zM1479 602q0 63 -49 97t-127 34t-128 -35t-51 -96q0 -94 179 -139q176 41 176 139zM1616 209
q0 -107 -90 -165t-223 -58t-224 58q-90 58 -90 165q-1 78 59 135t148 78q-84 20 -138 70t-54 124q0 106 89 160t210 55q121 0 209 -54t90 -161q0 -74 -54 -124t-139 -70q87 -20 147 -78t60 -135zM1255 1366l-874 -1366h-111l873 1366h112z" />
    <glyph glyph-name="arrowleft" unicode="&#x2190;" horiz-adv-x="1191" 
d="M1102 432h-551l24 -266l-575 420l575 418l-24 -265h551v-307z" />
    <glyph glyph-name="arrowup" unicode="&#x2191;" horiz-adv-x="1191" 
d="M442 35v551l-266 -25l420 576l418 -576l-264 25v-551h-308z" />
    <glyph glyph-name="arrowright" unicode="&#x2192;" horiz-adv-x="1191" 
d="M96 432v307h549l-24 265l575 -418l-575 -420l24 266h-549z" />
    <glyph glyph-name="arrowdown" unicode="&#x2193;" horiz-adv-x="1191" 
d="M750 1137v-551l266 24l-420 -575l-418 575l264 -24v551h308z" />
    <glyph glyph-name="partialdiff" unicode="&#x2202;" horiz-adv-x="1171" 
d="M586 113q152 0 240 105t87 260q0 155 -88 260q-87 106 -239 106t-240 -106t-88 -260q0 -155 88 -260t240 -105zM1075 510q0 -236 -133 -386t-355 -149q-223 1 -357 145t-134 358t127 358t327 145q200 0 314 -168q-61 139 -193 267t-317 218l115 97q252 -133 429 -367
t177 -518z" />
    <glyph glyph-name="product" unicode="&#x220f;" horiz-adv-x="1449" 
d="M1159 -184h-170v1398h-530v-1398h-170v1398h-223v152h1318v-152h-225v-1398z" />
    <glyph glyph-name="summation" unicode="&#x2211;" horiz-adv-x="1179" 
d="M1069 -33v-151h-958v151l473 643l-471 607v149h956v-152h-745l467 -602l-476 -645h754z" />
    <glyph glyph-name="minus" unicode="&#x2212;" horiz-adv-x="1021" 
d="M963 631h-904v106h904v-106z" />
    <glyph glyph-name="radical" unicode="&#x221a;" horiz-adv-x="1484" 
d="M874 0h-118l-267 670l-317 -125l-37 102l422 162l260 -649l481 1206h121z" />
    <glyph glyph-name="infinity" unicode="&#x221e;" horiz-adv-x="1343" 
d="M387 457q147 0 236 229q-37 98 -97 165t-148 67t-146 -65t-58 -166t57 -166q58 -64 156 -64zM958 457q98 0 155 64q56 65 56 166t-56 166t-155 65q-147 0 -235 -232q88 -229 235 -229zM377 348q-154 0 -236 102t-82 237t81 237t237 102q96 0 173 -63t122 -162
q45 97 122 161t175 64q155 0 235 -100t80 -238t-81 -238q-81 -101 -234 -102q-98 0 -175 64t-122 161q-45 -97 -122 -161t-173 -64z" />
    <glyph glyph-name="integral" unicode="&#x222b;" horiz-adv-x="712" 
d="M160 -205h-125v113h125q55 0 96 47t41 117v1224q0 123 77 200t179 77h125v-113h-125q-57 0 -97 -46t-40 -116v-1228q0 -121 -77 -198t-179 -77z" />
    <glyph glyph-name="approxequal" unicode="&#x2248;" horiz-adv-x="1021" 
d="M268 872q113 0 232 60q118 60 238 59q120 0 225 -55v-121q-96 68 -210 68q-114 1 -233 -59t-240 -60t-221 55v121q96 -68 209 -68zM268 485q113 -1 232 59q118 60 238 60t225 -55v-121q-100 70 -212 70t-231 -60t-240 -61q-121 0 -221 55v121q96 -68 209 -68z" />
    <glyph glyph-name="notequal" unicode="&#x2260;" horiz-adv-x="1021" 
d="M59 432v109h303l183 286h-486v109h555l154 240h113l-154 -240h236v-109h-306l-182 -286h488v-109h-557l-154 -242h-111l154 242h-236z" />
    <glyph glyph-name="lessequal" unicode="&#x2264;" horiz-adv-x="1021" 
d="M963 0h-904v109h904v-109zM963 203l-904 446v109l904 448v-129l-773 -375l773 -370v-129z" />
    <glyph glyph-name="greaterequal" unicode="&#x2265;" horiz-adv-x="1021" 
d="M961 0h-904v109h904v-109zM963 649l-904 -446v129l770 370l-770 375v129l904 -448v-109z" />
    <glyph glyph-name="triangleright" unicode="&#x22b2;" horiz-adv-x="1202" 
d="M1206 586l-1095 -633v1266z" />
    <glyph glyph-name="triangleleft" unicode="&#x22b3;" horiz-adv-x="1202" 
d="M1096 1219v-1266l-1096 633z" />
    <glyph glyph-name="uni2318" unicode="&#x2318;" horiz-adv-x="1366" 
d="M1280 315q0 -93 -67 -161t-161 -68t-161 68q-68 68 -68 161v152h-280v-152q0 -93 -68 -161t-162 -68q-95 0 -161 68t-66 162t67 160q67 67 160 67h150v280h-148q-93 0 -161 68t-68 162q0 95 68 161t162 66t160 -67q67 -67 67 -160v-154h280v154q0 95 68 161t162 66
q95 0 161 -67t66 -161t-67 -161q-67 -68 -160 -68h-150v-280h150q95 0 161 -67t66 -161zM1202 1053q0 63 -43 107t-106 44t-107 -44t-43 -107v-154h152q61 -1 104 45t43 109zM1202 315q0 63 -42 107t-105 45h-152v-152q0 -63 43 -108q42 -45 106 -45t107 45t43 108zM543 543
h280v280h-280v-280zM463 899v154q0 63 -42 107q-41 44 -105 44t-108 -44t-44 -107t44 -109t107 -45h148zM463 315v152h-152q-63 0 -105 -44q-42 -43 -42 -107t43 -109t106 -45t107 45q43 45 43 108z" />
    <glyph glyph-name="uni2318" unicode="&#xf8ff;" horiz-adv-x="1366" 
d="M1280 315q0 -93 -67 -161t-161 -68t-161 68q-68 68 -68 161v152h-280v-152q0 -93 -68 -161t-162 -68q-95 0 -161 68t-66 162t67 160q67 67 160 67h150v280h-148q-93 0 -161 68t-68 162q0 95 68 161t162 66t160 -67q67 -67 67 -160v-154h280v154q0 95 68 161t162 66
q95 0 161 -67t66 -161t-67 -161q-67 -68 -160 -68h-150v-280h150q95 0 161 -67t66 -161zM1202 1053q0 63 -43 107t-106 44t-107 -44t-43 -107v-154h152q61 -1 104 45t43 109zM1202 315q0 63 -42 107t-105 45h-152v-152q0 -63 43 -108q42 -45 106 -45t107 45t43 108zM543 543
h280v280h-280v-280zM463 899v154q0 63 -42 107q-41 44 -105 44t-108 -44t-44 -107t44 -109t107 -45h148zM463 315v152h-152q-63 0 -105 -44q-42 -43 -42 -107t43 -109t106 -45t107 45q43 45 43 108z" />
    <glyph glyph-name="blacksquare" unicode="&#x25a0;" horiz-adv-x="1353" 
d="M1266 0h-1170v1171h1170v-1171z" />
    <glyph glyph-name="triagup" unicode="&#x25b2;" horiz-adv-x="1261" 
d="M1264 59l-1268 2l633 1096z" />
    <glyph glyph-name="triagdn" unicode="&#x25bc;" horiz-adv-x="1261" 
d="M1264 1044l-635 -1095l-633 1095h1268z" />
    <glyph glyph-name="lozenge" unicode="&#x25ca;" horiz-adv-x="768" 
d="M385 84l270 600l-272 598l-270 -598zM406 0h-44l-323 684l323 682h44l323 -682z" />
    <glyph glyph-name="circlesolid" unicode="&#x25cf;" horiz-adv-x="1423" 
d="M1319 584q0 -252 -178 -430t-430 -178t-430 178t-179 430q0 252 178 430t431 178q252 0 430 -178t178 -430z" />
    <glyph glyph-name="blackstar" unicode="&#x2605;" horiz-adv-x="1554" 
d="M1554 862l-481 -350l184 -563l-481 348l-479 -348l182 563l-479 350h594l182 565l185 -565h593z" />
    <glyph glyph-name="ballotbox" unicode="&#x2610;" horiz-adv-x="1353" 
d="M1145 109v956h-936v-956h936zM1262 0h-1170v1171h1170v-1171z" />
    <glyph glyph-name="boxchecked" unicode="&#x2611;" horiz-adv-x="1353" 
d="M1145 109v874l-432 -797l-414 504l86 80l311 -385l367 680h-854v-956h936zM1262 1171v-1171h-1170v1171h1028l172 320l94 -61l-141 -259h17z" />
    <glyph glyph-name="diamond" unicode="&#x2666;" horiz-adv-x="1026" 
d="M1026 584l-514 -512l-512 512l512 514z" />
    <glyph glyph-name="checkmark" unicode="&#x2713;" horiz-adv-x="1087" 
d="M1087 1430l-673 -1244l-414 504l86 80l311 -385l596 1106z" />
    <glyph glyph-name="perthousand.onum" unicode="&#xf628;" horiz-adv-x="1798" 
d="M1477 68q71 0 117 54t46 135t-45 135t-117 54t-118 -54q-45 -54 -45 -135t45 -135t117 -54zM1478 537q118 0 192 -80t75 -200q0 -120 -75 -200q-74 -80 -192 -80t-193 82t-75 200t75 198t193 80zM1055 257q0 81 -45 135t-119 54t-119 -54t-45 -135t46 -135t118 -54
t118 54t46 135zM483 870q0 82 -46 136t-117 55q-70 0 -116 -55q-46 -56 -46 -136t46 -134t118 -54t116 53q45 53 45 135zM1053 1126l-787 -1126h-106l782 1126h111zM891 537q117 0 193 -80t75 -200q0 -120 -76 -200q-77 -80 -193 -80t-192 80t-76 200t76 200t193 80z
M590 870q0 -122 -75 -200t-194 -78t-193 80t-75 198q0 118 75 200q74 81 192 81t194 -80t76 -201z" />
    <glyph glyph-name="zero.tzero" unicode="&#xf638;" horiz-adv-x="1253" 
d="M279 652q0 -177 61 -320l504 807q-86 96 -213 96t-209 -84t-112 -203t-31 -296zM622 127q128 0 210 85t112 204q31 119 31 297t-64 319l-503 -807q86 -98 214 -98zM627 -25q-180 0 -305 113l-56 -88h-133l111 176q-140 196 -140 486t120 496q133 228 422 228
q155 0 282 -110l57 90h133l-110 -178q141 -197 141 -486t-120 -497q-61 -104 -165 -167t-237 -63z" />
    <glyph glyph-name="zero.tnum" unicode="&#xf639;" horiz-adv-x="1224" 
d="M612 127q123 0 205 85t113 204t31 266t-31 266t-113 203t-205 84q-122 0 -204 -84t-113 -203t-31 -266t31 -266t113 -204t204 -85zM611 -25q-134 1 -237 63q-104 62 -164 166t-90 226q-30 121 -30 252t30 252q69 278 254 390q103 62 237 62q135 0 239 -62t164 -166
t91 -224q30 -121 30 -252t-30 -252t-90 -225t-165 -167t-239 -63z" />
    <glyph glyph-name="two.tnum" unicode="&#xf63a;" horiz-adv-x="1224" 
d="M139 1171q163 215 495 215q166 0 302 -104t137 -296q0 -192 -164 -380q-164 -190 -499 -454h669v-152h-938v137q420 328 590 506t170 342q0 123 -85 186t-202 64q-236 0 -370 -172z" />
    <glyph glyph-name="three.tnum" unicode="&#xf63b;" horiz-adv-x="1224" 
d="M610 -25q-164 -1 -291 63t-194 163l100 106q61 -82 161 -131t234 -49q133 0 220 70q86 69 86 189t-91 179t-231 59t-160 -1v155q23 -2 152 -2t218 56t89 168q0 110 -87 172t-218 63q-207 0 -360 -166l-95 107q172 211 469 210q203 0 332 -97t129 -265q0 -135 -90 -217
t-203 -100q113 -13 214 -101q102 -88 102 -250t-132 -271q-132 -110 -354 -110z" />
    <glyph glyph-name="four.tnum" unicode="&#xf63c;" horiz-adv-x="1224" 
d="M754 496v712l-480 -712h480zM924 0h-170v346h-650v141l586 879h234v-870h192v-150h-192v-346z" />
    <glyph glyph-name="five.tnum" unicode="&#xf63d;" horiz-adv-x="1224" 
d="M625 -25q-315 0 -482 220l105 114q141 -182 377 -182q139 0 227 84t88 213t-87 210t-226 81q-182 0 -316 -127l-125 43v735h836v-152h-666v-475q126 123 314 123t315 -117t127 -319t-138 -327q-138 -124 -349 -124z" />
    <glyph glyph-name="six.tnum" unicode="&#xf63e;" horiz-adv-x="1224" 
d="M632 127q154 0 237 90t83 216t-88 202t-206 76q-118 -1 -212 -57q-92 -56 -149 -146q12 -152 96 -266q85 -114 239 -115zM647 -25q-389 0 -499 439q-30 123 -29 268q0 299 142 502t415 202q238 0 377 -163l-86 -127q-119 139 -291 139q-127 0 -217 -80
q-168 -149 -168 -457v-53q51 82 159 148t228 65q194 0 320 -114t126 -310t-131 -328t-346 -131z" />
    <glyph glyph-name="seven.tnum" unicode="&#xf63f;" horiz-adv-x="1224" 
d="M147 1214v152h932v-117l-559 -1249h-188l551 1214h-736z" />
    <glyph glyph-name="eight.tnum" unicode="&#xf640;" horiz-adv-x="1224" 
d="M611 127q132 0 226 66q93 66 93 160t-65 156q-109 104 -253 120q-146 -16 -253 -120q-65 -62 -64 -144q0 -106 92 -172t224 -66zM612 1235q-127 0 -211 -60t-84 -165q0 -58 33 -104q47 -66 180 -111q41 -15 82 -21q75 11 179 61q53 25 86 71t32 104q0 102 -85 164
t-212 61zM612 -25q-209 1 -349 101t-140 270q0 129 93 223t233 136q-131 37 -218 119q-86 83 -86 208q-1 172 139 263t328 91t328 -91t141 -263q0 -125 -87 -208t-218 -119q138 -41 232 -135t94 -224q0 -168 -140 -270t-350 -101z" />
    <glyph glyph-name="nine.tnum" unicode="&#xf641;" horiz-adv-x="1224" 
d="M588 1237q-146 0 -230 -89t-84 -216t88 -203t208 -76q120 1 213 57t149 148q-12 136 -88 252q-39 57 -106 92t-150 35zM553 -23q-233 0 -379 164l86 127q119 -139 293 -139q131 0 221 82q164 149 164 455q0 35 -2 53q-52 -82 -158 -148t-227 -65q-195 0 -322 114
t-127 310t131 327t349 132q137 1 241 -57q190 -105 257 -382q30 -123 30 -292q0 -170 -57 -324t-187 -256t-313 -101z" />
    <glyph glyph-name="percent.onum" unicode="&#xf642;" horiz-adv-x="1212" 
d="M1055 257q0 81 -45 135t-119 54t-119 -54t-45 -136t45 -135t118 -53t119 54t46 135zM483 870q0 82 -46 136t-117 55q-70 0 -116 -55q-46 -56 -46 -136t46 -134t118 -54t116 53q45 53 45 135zM1053 1126l-787 -1126h-106l782 1126h111zM891 537q117 0 193 -80t75 -200
q0 -120 -76 -200q-77 -80 -193 -80t-192 80t-76 200t76 200t193 80zM590 870q0 -122 -75 -200t-194 -78t-193 80t-75 198q0 118 75 200q74 81 192 81t194 -80t76 -201z" />
    <glyph glyph-name="zero.tonum" unicode="&#xf643;" horiz-adv-x="1224" 
d="M961 563q1 182 -87 309t-261 127t-261 -127t-88 -309t88 -309t260 -127t260 127t89 309zM1135 544q-1 -134 -53 -264q-52 -128 -174 -216t-296 -89q-174 0 -296 88q-226 163 -226 500q0 233 123 404q61 84 165 134t234 50t234 -50t166 -134q123 -169 123 -423z" />
    <glyph glyph-name="one.tonum" unicode="&#xf644;" horiz-adv-x="1224" 
d="M811 0h-170v903l-219 -233l-103 104l343 352h149v-1126z" />
    <glyph glyph-name="two.tonum" unicode="&#xf645;" horiz-adv-x="1224" 
d="M1044 0h-882v137q369 153 551 311t182 312q0 104 -81 172t-198 67q-248 0 -380 -172l-105 109q78 102 210 158t280 57q195 0 321 -101q126 -100 125 -274q0 -174 -166 -343t-426 -281h569v-152z" />
    <glyph glyph-name="three.tonum" unicode="&#xf646;" horiz-adv-x="1224" 
d="M610 -274q-164 0 -291 63t-194 162l100 106q61 -82 161 -131t234 -49q133 0 220 70q86 69 86 189t-91 179t-231 59t-160 -1v155q23 -2 152 -2t218 56t89 168q0 111 -87 173t-218 62q-207 0 -360 -166l-95 107q172 211 469 211q203 1 332 -97t129 -266q0 -135 -90 -217
t-203 -100q113 -13 214 -101q102 -88 102 -250t-132 -271q-133 -109 -354 -109z" />
    <glyph glyph-name="four.tonum" unicode="&#xf647;" horiz-adv-x="1224" 
d="M754 262v707l-480 -707h480zM1116 113h-192v-353h-170v353h-650v141l586 872h234v-864h192v-149z" />
    <glyph glyph-name="five.tonum" unicode="&#xf648;" horiz-adv-x="1224" 
d="M625 -264q-315 0 -482 219l105 115q141 -182 377 -183q139 0 227 84t88 213t-87 210t-226 81q-182 0 -316 -127l-125 43v735h836v-151h-666v-475q126 123 314 123t315 -117t127 -320q0 -202 -138 -326t-349 -124z" />
    <glyph glyph-name="six.tonum" unicode="&#xf649;" horiz-adv-x="1224" 
d="M632 127q154 0 237 90t83 216t-88 202t-206 76q-118 -1 -212 -57q-92 -56 -149 -146q12 -152 96 -266q85 -114 239 -115zM647 -25q-389 0 -499 439q-30 123 -29 268q0 299 142 502t415 202q238 0 377 -163l-86 -127q-119 139 -291 139q-127 0 -217 -80
q-168 -149 -168 -457v-53q51 82 159 148t228 65q194 0 320 -114t126 -310t-131 -328t-346 -131z" />
    <glyph glyph-name="seven.tonum" unicode="&#xf64a;" horiz-adv-x="1224" 
d="M147 975v151h932v-116l-559 -1250h-188l551 1215h-736z" />
    <glyph glyph-name="eight.tonum" unicode="&#xf64b;" horiz-adv-x="1224" 
d="M611 127q132 0 226 66q93 66 93 160t-65 156q-109 104 -253 120q-146 -16 -253 -120q-65 -62 -64 -144q0 -106 92 -172t224 -66zM612 1235q-127 0 -211 -60t-84 -165q0 -58 33 -104q47 -66 180 -111q41 -15 82 -21q75 11 179 61q53 25 86 71t32 104q0 102 -85 164
t-212 61zM612 -25q-209 1 -349 101t-140 270q0 129 93 223t233 136q-131 37 -218 119q-86 83 -86 208q-1 172 139 263t328 91t328 -91t141 -263q0 -125 -87 -208t-218 -119q138 -41 232 -135t94 -224q0 -168 -140 -270t-350 -101z" />
    <glyph glyph-name="nine.tonum" unicode="&#xf64c;" horiz-adv-x="1224" 
d="M274 694q0 -126 88 -202t208 -76t213 56t149 149q-12 137 -88 251q-39 56 -106 92t-150 35q-146 0 -230 -89q-84 -90 -84 -216zM553 -260q-233 0 -379 164l86 127q119 -139 293 -140q131 0 221 82q164 149 164 455q0 35 -2 53q-52 -81 -158 -147t-227 -66
q-195 0 -322 114t-127 310t131 328q131 131 349 131q137 0 241 -57q103 -58 165 -158q122 -199 122 -492q0 -413 -244 -603q-129 -101 -313 -101z" />
    <glyph glyph-name="colonmonetary.onum" unicode="&#xf64d;" horiz-adv-x="1191" 
d="M467 178q55 -33 115 -47l284 842q-61 27 -121 33zM260 552q0 -194 137 -321l262 777q-175 -14 -287 -138t-112 -318zM96 565q0 258 172 422t430 164h9l26 76h88l-28 -84q55 -8 118 -33l41 117h88l-53 -156q88 -55 158 -151l-129 -72q-31 45 -78 80l-272 -811h32
q98 0 184 44t134 118l131 -72q-170 -231 -449 -232q-27 0 -80 5l-28 -89h-88l35 105q-53 10 -117 39l-49 -144h-88l63 187q-117 78 -183 204q-67 126 -67 283z" />
    <glyph glyph-name="Euro.onum" unicode="&#xf64e;" horiz-adv-x="1249" 
d="M1073 848q-111 162 -339 162q-118 0 -229 -75q-110 -75 -157 -200h492v-98h-518q-9 -107 0 -150h518v-98h-490q47 -125 156 -199t250 -73q98 0 183 44t134 118l131 -72q-170 -231 -448 -232q-211 0 -369 113t-211 301h-113v98h95q-4 25 -4 63t4 87h-95v98h113
q53 188 211 302t369 114q285 0 446 -231z" />
    <glyph glyph-name="florin.onum" unicode="&#xf64f;" horiz-adv-x="751" 
d="M96 440v117h127l62 277q70 315 311 315q109 0 176 -66l-67 -122q-29 37 -87 36q-121 0 -163 -184l-58 -256h217v-117h-243l-154 -684h-170l152 684h-103z" />
    <glyph glyph-name="numbersign.onum" unicode="&#xf650;" horiz-adv-x="1015" 
d="M645 711h-180l-98 -289h184zM973 807l-29 -96h-180l-96 -289h182l-31 -96h-184l-109 -326h-116l108 326h-184l-109 -326h-116l108 326h-172l31 96h176l96 289h-178l29 96h180l108 319h117l-108 -319h182l110 319h117l-110 -319h178z" />
    <glyph glyph-name="sterling.onum" unicode="&#xf651;" horiz-adv-x="870" 
d="M29 459v98h145q-98 137 -98 268t109 228q110 96 268 96q113 0 205 -49t137 -135l-121 -66q-61 131 -209 131q-96 0 -164 -60t-68 -157q-1 -47 19 -98t36 -76t56 -82h277v-98h-220q25 -55 25 -105q0 -125 -109 -194q18 6 60 6q41 0 123 -29t125 -28q111 0 159 63l70 -115
q-84 -80 -238 -80q-76 0 -154 35t-143 35q-66 0 -192 -63l-55 110q217 94 217 232q0 59 -45 133h-215z" />
    <glyph glyph-name="yen.onum" unicode="&#xf652;" horiz-adv-x="1120" 
d="M643 0h-160v231h-434v99h434v145h-434v96h367l-402 555h187l364 -512l357 512h184l-395 -555h358v-96h-426v-145h426v-99h-426v-231z" />
    <glyph glyph-name="cent.onum" unicode="&#xf654;" horiz-adv-x="1191" 
d="M260 564q0 -175 104 -298t269 -145v885q-165 -23 -269 -145t-104 -297zM633 -188v168q-237 20 -387 182t-150 402t151 401q151 160 386 182v121h121v-121q244 -20 391 -227l-129 -72q-94 133 -262 158v-885q174 23 262 158l131 -72q-154 -207 -393 -227v-168h-121z" />
    <glyph glyph-name="zero.dnom" unicode="&#xf655;" 
d="M602 410q0 139 -50 230t-156 91t-154 -91q-49 -91 -49 -230q0 -140 50 -232t154 -92t155 92q50 93 50 232zM729 410q0 -170 -84 -297t-248 -127q-165 0 -247 126t-82 298t83 297t247 125t247 -126q84 -126 84 -296z" />
    <glyph glyph-name="one.dnom" unicode="&#xf656;" horiz-adv-x="481" 
d="M358 0h-122v659l-136 -141l-71 76l221 225h108v-819z" />
    <glyph glyph-name="two.dnom" unicode="&#xf657;" 
d="M698 0h-596v92q256 184 362 290t107 190q0 84 -51 122t-123 37q-72 0 -133 -31t-96 -75l-68 77q102 129 301 129q123 0 208 -61t85 -177q0 -115 -102 -229t-309 -264h415v-100z" />
    <glyph glyph-name="three.dnom" unicode="&#xf658;" 
d="M702 214q0 -97 -82 -163t-227 -65q-211 0 -307 133l68 78q88 -111 237 -111q88 0 138 39t51 104q0 141 -213 142q-70 0 -82 -2v102q14 -2 82 -2q201 0 200 131q0 61 -52 96t-132 35q-131 0 -223 -98l-64 72q113 127 299 126q131 0 212 -59q81 -58 81 -150t-55 -140
t-127 -58q72 -8 134 -60t62 -150z" />
    <glyph glyph-name="four.dnom" unicode="&#xf659;" 
d="M481 305v406l-278 -406h278zM721 205h-117v-205h-123v205h-401v92l354 522h170v-514h117v-100z" />
    <glyph glyph-name="five.dnom" unicode="&#xf65a;" 
d="M705 258q-1 -123 -89 -198t-223 -74q-203 0 -303 133l72 80q86 -113 231 -113q84 0 137 48q54 48 54 122t-52 121t-150 47t-179 -80l-88 33v442h534v-100h-409v-275q74 74 190 74t196 -68q79 -68 79 -192z" />
    <glyph glyph-name="six.dnom" unicode="&#xf65b;" 
d="M404 86q92 0 141 52t49 124q0 74 -53 118t-123 44q-136 0 -213 -113q6 -93 57 -159q50 -66 142 -66zM436 522q121 0 202 -70t81 -189q0 -121 -84 -199t-219 -78q-170 0 -254 120t-84 302q0 184 92 304t250 120t254 -95l-60 -86q-74 80 -184 80t-168 -87q-59 -87 -61 -212
q0 -23 2 -35q33 49 97 87t136 38z" />
    <glyph glyph-name="seven.dnom" unicode="&#xf65c;" horiz-adv-x="741" 
d="M68 719v100h594v-84l-340 -735h-138l340 719h-456z" />
    <glyph glyph-name="eight.dnom" unicode="&#xf65d;" 
d="M397 82q79 0 135 38t56 104t-66 106q-66 39 -125 47q-59 -8 -126 -47q-67 -40 -67 -106t57 -104q56 -38 136 -38zM573 602q0 63 -49 97t-127 34t-128 -35t-50 -96q0 -94 178 -139q176 41 176 139zM711 209q0 -107 -90 -165q-89 -58 -223 -58t-224 58t-90 165q0 78 59 135
t148 78q-84 20 -138 70t-55 124q0 106 89 160t210 55q121 0 210 -54t89 -161q0 -74 -54 -124t-138 -70q88 -20 148 -78t59 -135z" />
    <glyph glyph-name="nine.dnom" unicode="&#xf65e;" 
d="M201 554q0 -74 53 -117q53 -44 135 -44q125 0 203 115q-8 92 -58 158t-142 66t-141 -52q-50 -52 -50 -126zM360 295q-122 -1 -202 69t-80 191t84 199t219 77q170 1 254 -119t84 -303t-93 -303t-253 -120t-250 94l59 86q70 -80 180 -80t170 87q59 87 62 214v33
q-35 -49 -98 -87t-136 -38z" />
    <glyph glyph-name="zero.numr" unicode="&#xf661;" 
d="M602 956q0 138 -50 230t-156 92t-154 -91q-49 -91 -49 -231t50 -231q50 -92 154 -92t155 92q50 92 50 231zM729 956q0 -170 -84 -297t-248 -127q-165 0 -247 126t-82 298t83 297t247 125t247 -126q84 -126 84 -296z" />
    <glyph glyph-name="one.numr" unicode="&#xf662;" horiz-adv-x="481" 
d="M358 547h-122v659l-136 -141l-71 76l221 225h108v-819z" />
    <glyph glyph-name="two.numr" unicode="&#xf663;" 
d="M698 547h-596v92q256 183 362 289t107 190q0 84 -51 122t-123 38t-133 -31t-96 -76l-68 78q102 129 301 129q123 0 208 -61t85 -177t-102 -230t-309 -263h415v-100z" />
    <glyph glyph-name="three.numr" unicode="&#xf664;" 
d="M702 761q0 -97 -82 -163t-227 -66q-211 0 -307 134l68 77q88 -111 237 -110q88 0 138 39t51 104q0 141 -213 142q-70 0 -82 -3v103q14 -2 82 -2q201 0 200 131q0 61 -52 96t-132 35q-131 0 -223 -98l-64 71q113 127 299 127q131 0 212 -59t81 -151t-55 -139
q-55 -48 -127 -58q72 -9 134 -61t62 -149z" />
    <glyph glyph-name="four.numr" unicode="&#xf665;" 
d="M481 852v405l-278 -405h278zM721 752h-117v-205h-123v205h-401v92l354 522h170v-514h117v-100z" />
    <glyph glyph-name="five.numr" unicode="&#xf666;" 
d="M705 805q-1 -123 -89 -198t-223 -75q-203 0 -303 134l72 79q86 -113 231 -112q84 0 137 48q54 48 54 122t-52 121t-150 47t-179 -80l-88 33v442h534v-100h-409v-275q74 74 190 74q116 -1 196 -69q79 -68 79 -191z" />
    <glyph glyph-name="six.numr" unicode="&#xf667;" 
d="M594 810q0 74 -53 117q-53 44 -123 44q-136 0 -213 -113q6 -92 57 -159q50 -67 142 -67t141 52t49 126zM436 1069q121 1 202 -69t81 -190t-84 -199t-219 -79q-170 0 -254 120t-84 303t92 303t250 120t254 -94l-60 -86q-74 80 -184 80t-168 -87q-59 -87 -61 -212
q0 -23 2 -35q33 49 97 87t136 38z" />
    <glyph glyph-name="seven.numr" unicode="&#xf668;" horiz-adv-x="741" 
d="M68 1266v100h594v-84l-340 -735h-138l340 719h-456z" />
    <glyph glyph-name="eight.numr" unicode="&#xf669;" 
d="M397 629q79 0 135 38q56 39 56 105t-66 105t-125 47q-59 -8 -126 -47t-67 -105t57 -105q56 -38 136 -38zM573 1149q0 63 -49 97t-127 34t-128 -35t-50 -96q0 -94 178 -139q176 41 176 139zM711 756q0 -106 -90 -164q-89 -58 -223 -60q-134 0 -224 58t-90 166q0 78 59 135
t148 78q-84 20 -138 70t-55 124q0 107 89 161t210 54t210 -54t89 -161q0 -74 -54 -124t-138 -70q88 -19 148 -77t59 -136z" />
    <glyph glyph-name="nine.numr" unicode="&#xf66a;" 
d="M392 1278q-92 0 -141 -52q-50 -52 -50 -124q0 -74 53 -118t135 -44q125 0 203 115q-8 91 -58 157t-142 66zM360 842q-122 0 -202 70t-80 190t84 198t219 78q170 0 254 -120t84 -303t-93 -303t-253 -120t-250 95l59 86q70 -80 180 -80t170 87q59 87 62 214v33
q-35 -49 -98 -87t-136 -38z" />
    <glyph glyph-name="Abreve.smcp" unicode="&#xf66d;" horiz-adv-x="1171" 
d="M589 1235q-224 0 -362 180l78 66q103 -147 283 -147t284 147l74 -66q-133 -180 -357 -180zM825 387l-237 571l-240 -571h477zM492 1126h190l475 -1126h-178l-105 246h-575l-104 -246h-181z" />
    <glyph glyph-name="Amacron.smcp" unicode="&#xf66e;" horiz-adv-x="1171" 
d="M961 1286h-744v98h744v-98zM825 387l-237 571l-240 -571h477zM492 1126h190l475 -1126h-178l-105 246h-575l-104 -246h-181z" />
    <glyph glyph-name="Aogonek.smcp" unicode="&#xf66f;" horiz-adv-x="1171" 
d="M825 387l-237 571l-240 -571h477zM1001 -199q0 -102 93 -102q76 0 104 86l76 -43q-53 -123 -180 -123q-78 0 -131 45t-54 133q0 117 109 203h-39l-105 246h-575l-104 -246h-181l478 1126h190l475 -1126q-156 -78 -156 -199z" />
    <glyph glyph-name="AEacute.smcp" unicode="&#xf670;" horiz-adv-x="1681" 
d="M793 387v571l-365 -571h365zM1577 0h-784v246h-443l-155 -246h-183l721 1126h844v-141h-625v-338h613v-141h-613v-365h625v-141zM1192 1536l-346 -295h-117l303 295h160z" />
    <glyph glyph-name="Cacute.smcp" unicode="&#xf671;" horiz-adv-x="1191" 
d="M1028 1536l-346 -295h-117l303 295h160zM708 -25q-268 0 -440 166t-172 424t172 422t444 164t433 -231l-129 -72q-51 74 -136 118t-182 44q-186 0 -312 -126t-126 -320t126 -320t312 -127q98 0 184 44t134 118l131 -72q-171 -232 -439 -232z" />
    <glyph glyph-name="Ccaron.smcp" unicode="&#xf672;" horiz-adv-x="1191" 
d="M778 1241h-147l-201 295h105l170 -217l163 217h105zM708 -25q-268 0 -440 166t-172 424t172 422t444 164t433 -231l-129 -72q-51 74 -136 118t-182 44q-186 0 -312 -126t-126 -320t126 -320t312 -127q98 0 184 44t134 118l131 -72q-171 -232 -439 -232z" />
    <glyph glyph-name="Ccircumflex.smcp" unicode="&#xf673;" horiz-adv-x="1191" 
d="M973 1241h-105l-170 217l-163 -217h-105l195 295h147zM708 -25q-268 0 -440 166t-172 424t172 422t444 164t433 -231l-129 -72q-51 74 -136 118t-182 44q-186 0 -312 -126t-126 -320t126 -320t312 -127q98 0 184 44t134 118l131 -72q-171 -232 -439 -232z" />
    <glyph glyph-name="Cdotaccent.smcp" unicode="&#xf674;" horiz-adv-x="1191" 
d="M702 1288q-40 0 -68 29t-28 67t29 68q29 29 67 29t68 -28q29 -28 29 -69q0 -40 -29 -68t-68 -28zM708 -25q-268 0 -440 166t-172 424t172 422t444 164t433 -231l-129 -72q-51 74 -136 118t-182 44q-186 0 -312 -126t-126 -320t126 -320t312 -127q98 0 184 44t134 118
l131 -72q-171 -232 -439 -232z" />
    <glyph glyph-name="Dcaron.smcp" unicode="&#xf675;" horiz-adv-x="1259" 
d="M684 1241h-147l-201 295h104l170 -217l164 217h105zM539 141q203 0 319 120t115 302q0 182 -114 302t-320 120h-248v-844h248zM539 0h-410v1126h410q270 0 435 -160t165 -405t-164 -403t-436 -158z" />
    <glyph glyph-name="Dcroat.smcp" unicode="&#xf676;" horiz-adv-x="1282" 
d="M584 514h-273v-373h248q203 0 319 120t116 302t-114 302t-321 120h-248v-364h273v-107zM559 0h-409v514h-130v107h130v505h409q270 0 435 -160t165 -405t-164 -403t-436 -158z" />
    <glyph glyph-name="Ebreve.smcp" unicode="&#xf677;" horiz-adv-x="1042" 
d="M544 1235q-224 0 -362 180l78 66q104 -147 284 -147t283 147l74 -66q-133 -180 -357 -180zM936 0h-782v1126h782v-141h-621v-338h611v-141h-611v-365h621v-141z" />
    <glyph glyph-name="Ecaron.smcp" unicode="&#xf678;" horiz-adv-x="1042" 
d="M625 1241h-148l-201 295h105l170 -217l164 217h104zM936 0h-782v1126h782v-141h-621v-338h611v-141h-611v-365h621v-141z" />
    <glyph glyph-name="Edotaccent.smcp" unicode="&#xf679;" horiz-adv-x="1042" 
d="M558 1288q-40 0 -69 29t-29 67t29 68q29 29 69 29t68 -28t28 -69q0 -40 -28 -68t-68 -28zM936 0h-782v1126h782v-141h-621v-338h611v-141h-611v-365h621v-141z" />
    <glyph glyph-name="Emacron.smcp" unicode="&#xf67a;" horiz-adv-x="1042" 
d="M913 1286h-743v98h743v-98zM936 0h-782v1126h782v-141h-621v-338h611v-141h-611v-365h621v-141z" />
    <glyph glyph-name="Eng.smcp" unicode="&#xf67b;" horiz-adv-x="1294" 
d="M1141 -41q-1 -178 -107 -269t-288 -91t-297 139l75 117q92 -115 210 -115t181 63t64 168v29l-666 877v-877h-159v1126h168l659 -860v860h160v-1167z" />
    <glyph glyph-name="Eogonek.smcp" unicode="&#xf67c;" horiz-adv-x="1042" 
d="M872 -381q-78 0 -131 45t-53 133q0 117 109 203h-643v1126h782v-141h-621v-338h611v-141h-611v-365h621v-141q-156 -78 -156 -199q0 -102 92 -102q76 0 105 86l76 -43q-53 -123 -181 -123z" />
    <glyph glyph-name="Gbreve.smcp" unicode="&#xf67d;" horiz-adv-x="1282" 
d="M704 1235q-224 0 -362 180l78 66q104 -147 283 -147t284 147l74 -66q-133 -180 -357 -180zM710 -25q-268 0 -441 165t-173 423t173 423t438 165t444 -207l-125 -84q-122 148 -318 148t-321 -125t-125 -319t125 -320t308 -127q183 0 304 116v220h-348v135h508v-416
q-181 -197 -449 -197z" />
    <glyph glyph-name="Gcircumflex.smcp" unicode="&#xf67e;" horiz-adv-x="1282" 
d="M971 1241h-105l-170 217l-164 -217h-104l195 295h147zM710 -25q-268 0 -441 165t-173 423t173 423t438 165t444 -207l-125 -84q-122 148 -318 148t-321 -125t-125 -319t125 -320t308 -127q183 0 304 116v220h-348v135h508v-416q-181 -197 -449 -197z" />
    <glyph glyph-name="Gcommaaccent.smcp" unicode="&#xf67f;" horiz-adv-x="1282" 
d="M708 -145q42 1 74 -37t31 -110q0 -72 -41 -144q-41 -74 -104 -121l-66 53q45 31 79 81t38 95h-10q-8 -2 -13 -2q-38 0 -62 26t-24 64t28 67q28 28 70 28zM710 -25q-268 0 -441 165t-173 423t173 423t438 165t444 -207l-125 -84q-122 148 -318 148t-321 -125t-125 -319
t125 -320t308 -127q183 0 304 116v220h-348v135h508v-416q-181 -197 -449 -197z" />
    <glyph glyph-name="Gdotaccent.smcp" unicode="&#xf680;" horiz-adv-x="1282" 
d="M797 1384q0 -40 -28 -68t-68 -28q-41 0 -69 29t-28 67t29 68q29 29 69 29t67 -28q28 -28 28 -69zM710 -25q-268 0 -441 165t-173 423t173 423t438 165t444 -207l-125 -84q-122 148 -318 148t-321 -125t-125 -319t125 -320t308 -127q183 0 304 116v220h-348v135h508v-416
q-181 -197 -449 -197z" />
    <glyph glyph-name="Hcircumflex.smcp" unicode="&#xf681;" horiz-adv-x="1300" 
d="M918 1241h-105l-170 217l-164 -217h-104l194 295h148zM1147 0h-158v508h-674v-508h-161v1126h161v-477h674v477h158v-1126z" />
    <glyph glyph-name="Hbar.smcp" unicode="&#xf682;" horiz-adv-x="1341" 
d="M336 649h674v193h-674v-193zM1167 0h-157v508h-674v-508h-162v842h-154v98h154v186h162v-186h674v186h157v-186h152v-98h-152v-842z" />
    <glyph glyph-name="Ibreve.smcp" unicode="&#xf683;" horiz-adv-x="464" 
d="M228 1235q-224 0 -361 180l78 66q104 -147 283 -147t284 147l74 -66q-134 -180 -358 -180zM313 0h-161v1126h161v-1126z" />
    <glyph glyph-name="IJ.smcp" unicode="&#xf684;" horiz-adv-x="1333" 
d="M1178 336q0 -178 -106 -270t-290 -91q-182 0 -297 140l78 116q88 -115 208 -115t183 64q63 63 64 168v778h160v-790zM315 0h-161v1126h161v-1126z" />
    <glyph glyph-name="Imacron.smcp" unicode="&#xf685;" horiz-adv-x="464" 
d="M606 1286h-743v98h743v-98zM313 0h-161v1126h161v-1126z" />
    <glyph glyph-name="Iogonek.smcp" unicode="&#xf686;" horiz-adv-x="464" 
d="M250 -381q-78 0 -131 45t-53 133q0 117 108 203h-22v1126h161v-1126q-156 -78 -155 -199q0 -102 92 -102q75 0 104 86l76 -43q-53 -123 -180 -123z" />
    <glyph glyph-name="Itilde.smcp" unicode="&#xf687;" horiz-adv-x="464" 
d="M356 1210q-49 0 -87 30t-57 65q-51 94 -101 94q-105 0 -105 -176h-92q0 123 52 199t147 75q49 0 87 -30q38 -31 57 -65q52 -95 102 -94q104 2 104 177h92q-1 -123 -53 -199t-146 -76zM313 0h-161v1126h161v-1126z" />
    <glyph glyph-name="Jcircumflex.smcp" unicode="&#xf688;" horiz-adv-x="864" 
d="M899 1241h-104l-170 217l-164 -217h-105l195 295h147zM709 336q-1 -178 -107 -270t-288 -91q-182 0 -298 140l78 116q88 -115 208 -115t183 64q63 63 64 168v778h160v-790z" />
    <glyph glyph-name="Kcommaaccent.smcp" unicode="&#xf689;" horiz-adv-x="1093" 
d="M558 -145q42 1 74 -37t32 -110t-41 -144q-41 -74 -105 -121l-65 53q45 31 78 81q34 50 38 95h-8q-10 -2 -14 -2q-37 0 -62 26t-25 64t28 67q28 28 70 28zM315 0h-161v1126h161v-563l508 563h201l-496 -534l537 -592h-199l-442 498l-109 -119v-379z" />
    <glyph glyph-name="Lacute.smcp" unicode="&#xf68a;" horiz-adv-x="937" 
d="M844 1536l-346 -295h-117l303 295h160zM860 0h-706v1126h161v-985h545v-141z" />
    <glyph glyph-name="Lcaron.smcp" unicode="&#xf68b;" horiz-adv-x="937" 
d="M682 1002q0 -72 -41 -146t-104 -121l-66 53q45 31 79 81t38 96l-10 -2h-13q-37 -1 -61 25t-25 65q0 39 28 67q27 28 69 27q42 0 74 -37q32 -36 32 -108zM860 0h-706v1126h161v-985h545v-141z" />
    <glyph glyph-name="Lcommaaccent.smcp" unicode="&#xf68c;" horiz-adv-x="937" 
d="M612 -292q0 -72 -41 -144q-41 -74 -104 -121l-66 53q45 31 79 81t38 95h-10q-8 -2 -12 -2q-37 0 -62 26q-24 26 -24 64t27 67q28 28 70 28t74 -37q31 -38 31 -110zM860 0h-706v1126h161v-985h545v-141z" />
    <glyph glyph-name="Ldot.smcp" unicode="&#xf68d;" horiz-adv-x="966" 
d="M840 602q0 -45 -33 -79t-80 -34t-80 34t-33 79t34 78t79 33t79 -33t34 -78zM860 0h-706v1126h161v-985h545v-141z" />
    <glyph glyph-name="Nacute.smcp" unicode="&#xf68e;" horiz-adv-x="1294" 
d="M973 1536l-346 -295h-117l303 295h160zM1141 0h-162l-666 877v-877h-159v1126h168l659 -860v860h160v-1126z" />
    <glyph glyph-name="Ncaron.smcp" unicode="&#xf68f;" horiz-adv-x="1294" 
d="M723 1241h-148l-200 295h104l170 -217l164 217h105zM1141 0h-162l-666 877v-877h-159v1126h168l659 -860v860h160v-1126z" />
    <glyph glyph-name="Ncommaaccent.smcp" unicode="&#xf690;" horiz-adv-x="1294" 
d="M646 -145q42 1 74 -37t32 -110t-41 -144q-41 -74 -105 -121l-65 53q45 31 79 81t37 95h-10q-8 -2 -12 -2q-37 0 -62 26t-25 64t29 67q27 28 69 28zM1141 0h-162l-666 877v-877h-159v1126h168l659 -860v860h160v-1126z" />
    <glyph glyph-name="Obreve.smcp" unicode="&#xf691;" horiz-adv-x="1355" 
d="M683 1235q-224 0 -361 180l77 66q103 -147 283 -147t285 147l73 -66q-133 -180 -357 -180zM678 117q188 0 303 126q115 127 115 321t-115 320t-303 126t-303 -126t-115 -321t115 -321t303 -125zM678 -25q-258 0 -420 168t-162 420t162 420t420 168t420 -168t162 -420
t-162 -420t-420 -168z" />
    <glyph glyph-name="Ohungarumlaut.smcp" unicode="&#xf692;" horiz-adv-x="1355" 
d="M1083 1536l-235 -295h-98l192 295h141zM793 1536l-236 -295h-98l192 295h142zM678 117q188 0 303 126q115 127 115 321t-115 320t-303 126t-303 -126t-115 -321t115 -321t303 -125zM678 -25q-258 0 -420 168t-162 420t162 420t420 168t420 -168t162 -420t-162 -420
t-420 -168z" />
    <glyph glyph-name="Omacron.smcp" unicode="&#xf693;" horiz-adv-x="1355" 
d="M1051 1300h-744v99h744v-99zM678 117q188 0 303 126q115 127 115 321t-115 320t-303 126t-303 -126t-115 -321t115 -321t303 -125zM678 -25q-258 0 -420 168t-162 420t162 420t420 168t420 -168t162 -420t-162 -420t-420 -168z" />
    <glyph glyph-name="Oslashacute.smcp" unicode="&#xf694;" horiz-adv-x="1355" 
d="M1010 1536l-346 -295h-117l303 295h160zM260 563q0 -195 111 -317l522 708q-98 55 -215 56q-188 0 -303 -126t-115 -321zM678 117q188 0 303 126q115 127 115 321t-117 321l-522 -709q94 -59 221 -59zM678 -25q-174 0 -309 80l-41 -55h-138l89 121q-183 166 -183 430
t162 432t420 168q168 0 303 -78l39 53h137l-86 -118q189 -168 189 -432t-162 -433q-162 -168 -420 -168z" />
    <glyph glyph-name="Racute.smcp" unicode="&#xf695;" horiz-adv-x="1116" 
d="M870 1536l-346 -295h-116l303 295h159zM623 578q106 0 163 56t58 148q0 92 -58 148t-163 55h-308v-407h308zM315 438v-438h-161v1126h483q174 0 273 -97q100 -97 100 -243t-85 -236q-85 -89 -220 -99l319 -451h-188l-295 438h-226z" />
    <glyph glyph-name="Rcaron.smcp" unicode="&#xf696;" horiz-adv-x="1116" 
d="M618 1241h-147l-201 295h105l170 -217l164 217h104zM623 578q106 0 163 56t58 148q0 92 -58 148t-163 55h-308v-407h308zM315 438v-438h-161v1126h483q174 0 273 -97q100 -97 100 -243t-85 -236q-85 -89 -220 -99l319 -451h-188l-295 438h-226z" />
    <glyph glyph-name="Rcommaaccent.smcp" unicode="&#xf697;" horiz-adv-x="1116" 
d="M659 -292q0 -72 -41 -144q-41 -74 -104 -121l-65 53q45 31 78 81q34 50 38 95h-8q-10 -2 -14 -2q-37 0 -62 26t-25 64t28 67q28 28 70 28t74 -37q31 -38 31 -110zM623 578q106 0 163 56t58 148q0 92 -58 148t-163 55h-308v-407h308zM315 438v-438h-161v1126h483
q174 0 273 -97q100 -97 100 -243t-85 -236q-85 -89 -220 -99l319 -451h-188l-295 438h-226z" />
    <glyph glyph-name="Sacute.smcp" unicode="&#xf698;" horiz-adv-x="1032" 
d="M846 1536l-346 -295h-117l303 295h160zM516 -25q-143 1 -260 49t-190 128l86 120q61 -68 158 -112t223 -45q126 0 194 55t68 130q1 75 -51 118t-129 61t-167 44t-166 55q-77 30 -128 94t-52 159q0 139 117 229t291 91q264 0 422 -162l-84 -112q-127 135 -338 135
q-106 0 -174 -50t-68 -118q0 -120 173 -158t338 -102q77 -31 128 -101t51 -170q0 -150 -112 -244t-330 -94z" />
    <glyph glyph-name="Scedilla.smcp" unicode="&#xf699;" horiz-adv-x="1032" 
d="M723 -234q-1 -68 -61 -112q-60 -45 -170 -45t-189 61l39 78q74 -59 164 -59q53 1 89 23t36 63q0 72 -76 71q-49 0 -78 -34l-67 38l47 127q-252 20 -391 175l86 120q61 -68 158 -112t223 -45q126 0 194 55t68 130q1 75 -51 118t-129 61t-167 44t-166 55q-77 30 -128 94
t-52 159q0 139 117 229t291 91q264 0 422 -162l-84 -112q-127 135 -338 135q-106 0 -174 -50t-68 -118q0 -120 173 -158t338 -102q77 -31 128 -101t51 -170q0 -145 -105 -237t-306 -101l-35 -88q29 23 82 23t91 -38t38 -106z" />
    <glyph glyph-name="Scircumflex.smcp" unicode="&#xf69a;" horiz-adv-x="1032" 
d="M791 1241h-105l-170 217l-164 -217h-104l194 295h148zM516 -25q-143 1 -260 49t-190 128l86 120q61 -68 158 -112t223 -45q126 0 194 55t68 130q1 75 -51 118t-129 61t-167 44t-166 55q-77 30 -128 94t-52 159q0 139 117 229t291 91q264 0 422 -162l-84 -112
q-127 135 -338 135q-106 0 -174 -50t-68 -118q0 -120 173 -158t338 -102q77 -31 128 -101t51 -170q0 -150 -112 -244t-330 -94z" />
    <glyph glyph-name="Scommaaccent.smcp" unicode="&#xf69b;" horiz-adv-x="1032" 
d="M526 -145q42 1 73 -37q32 -38 32 -110t-41 -144q-41 -74 -105 -121l-65 53q45 31 79 81t38 95h-9q-10 -2 -14 -2q-38 0 -62 26t-24 64t28 67q28 28 70 28zM516 -25q-143 1 -260 49t-190 128l86 120q61 -68 158 -112t223 -45q126 0 194 55t68 130q1 75 -51 118t-129 61
t-167 44t-166 55q-77 30 -128 94t-52 159q0 139 117 229t291 91q264 0 422 -162l-84 -112q-127 135 -338 135q-106 0 -174 -50t-68 -118q0 -120 173 -158t338 -102q77 -31 128 -101t51 -170q0 -150 -112 -244t-330 -94z" />
    <glyph glyph-name="Tbar.smcp" unicode="&#xf69c;" horiz-adv-x="966" 
d="M563 0h-160v494h-239v98h239v393h-350v141h858v-141h-348v-393h240v-98h-240v-494z" />
    <glyph glyph-name="Tcaron.smcp" unicode="&#xf69d;" horiz-adv-x="966" 
d="M561 1241h-147l-201 295h104l170 -217l164 217h105zM563 0h-160v985h-350v141h858v-141h-348v-985z" />
    <glyph glyph-name="Tcommaaccent.smcp" unicode="&#xf69e;" horiz-adv-x="966" 
d="M484 -145q42 1 74 -37t32 -110t-41 -144q-41 -74 -105 -121l-65 53q45 31 79 81t38 95h-9q-10 -2 -14 -2q-37 0 -61 26t-25 64q0 38 28 67q27 28 69 28zM563 0h-160v985h-350v141h858v-141h-348v-985z" />
    <glyph glyph-name="Ubreve.smcp" unicode="&#xf69f;" horiz-adv-x="1275" 
d="M638 1235q-224 0 -362 180l78 66q104 -147 284 -147t284 147l73 -66q-133 -180 -357 -180zM637 -25q-235 0 -359 123t-124 336v692h161v-682q0 -154 84 -240t239 -87q155 0 239 88t84 239v682h161v-692q0 -213 -124 -336t-361 -123z" />
    <glyph glyph-name="Uhungarumlaut.smcp" unicode="&#xf6a0;" horiz-adv-x="1275" 
d="M1038 1536l-235 -295h-98l192 295h141zM748 1536l-236 -295h-98l192 295h142zM637 -25q-235 0 -359 123t-124 336v692h161v-682q0 -154 84 -240t239 -87q155 0 239 88t84 239v682h161v-692q0 -213 -124 -336t-361 -123z" />
    <glyph glyph-name="Umacron.smcp" unicode="&#xf6a1;" horiz-adv-x="1275" 
d="M1012 1286h-744v98h744v-98zM637 -25q-235 0 -359 123t-124 336v692h161v-682q0 -154 84 -240t239 -87q155 0 239 88t84 239v682h161v-692q0 -213 -124 -336t-361 -123z" />
    <glyph glyph-name="Uogonek.smcp" unicode="&#xf6a2;" horiz-adv-x="1275" 
d="M637 -25q-235 0 -359 123t-124 336v692h161v-682q0 -154 84 -240t239 -87q155 0 239 88t84 239v682h161v-692q0 -166 -76 -278t-223 -156q-156 -78 -155 -199q0 -102 92 -102q76 0 104 86l76 -43q-53 -123 -180 -123q-78 0 -131 45t-53 138t79 173h-18z" />
    <glyph glyph-name="Uring.smcp" unicode="&#xf6a3;" horiz-adv-x="1275" 
d="M642 1319q50 0 85 36t35 85t-35 85t-85 36t-85 -36t-35 -85t35 -85t85 -36zM643 1237q-82 0 -142 59q-61 60 -61 144t60 143t143 59q82 0 140 -59q59 -59 59 -143t-58 -144t-141 -59zM637 -25q-235 0 -359 123t-124 336v692h161v-682q0 -154 84 -240t239 -87
q155 0 239 88t84 239v682h161v-692q0 -213 -124 -336t-361 -123z" />
    <glyph glyph-name="Utilde.smcp" unicode="&#xf6a4;" horiz-adv-x="1275" 
d="M760 1237q-49 0 -87 30q-37 31 -57 65q-54 95 -103 94q-48 -1 -76 -45t-27 -132h-93q1 123 53 199t146 76q49 0 87 -30t57 -64q52 -94 102 -95q49 0 77 44t27 132h92q0 -123 -52 -199t-146 -75zM637 -25q-235 0 -359 123t-124 336v692h161v-682q0 -154 84 -240t239 -87
q155 0 239 88t84 239v682h161v-692q0 -213 -124 -336t-361 -123z" />
    <glyph glyph-name="Wcircumflex.smcp" unicode="&#xf6a6;" horiz-adv-x="1564" 
d="M1204 0h-168l-256 883l-252 -883h-170l-338 1126h179l252 -907l264 907h135l262 -909l254 909h176zM1055 1241h-105l-170 217l-164 -217h-104l195 295h147z" />
    <glyph glyph-name="Ycircumflex.smcp" unicode="&#xf6a9;" horiz-adv-x="1120" 
d="M838 1241h-105l-170 217l-164 -217h-104l194 295h148zM643 0h-160v477l-469 649h187l364 -512l357 512h184l-463 -649v-477z" />
    <glyph glyph-name="Zacute.smcp" unicode="&#xf6ab;" horiz-adv-x="1056" 
d="M854 1536l-346 -295h-117l303 295h160zM977 0h-895v121l666 864h-666v141h881v-120l-666 -865h680v-141z" />
    <glyph glyph-name="Zdotaccent.smcp" unicode="&#xf6ac;" horiz-adv-x="1056" 
d="M543 1288q-39 0 -68 29t-29 67t29 68q29 29 68 29t67 -28t29 -69q-1 -40 -29 -68t-67 -28zM977 0h-895v121l666 864h-666v141h881v-120l-666 -865h680v-141z" />
    <glyph glyph-name="Idotaccent.smcp" unicode="&#xf6ad;" horiz-adv-x="413" 
d="M210 1288q-40 0 -69 29t-29 67t29 68q29 29 69 29t68 -28t28 -69q0 -40 -28 -68t-68 -28zM291 0h-162v1126h162v-1126z" />
    <glyph glyph-name="parenleft.case" unicode="&#xf6ae;" horiz-adv-x="507" 
d="M90 682q0 508 289 905l94 -69q-109 -214 -162 -404t-53 -431t53 -433t162 -402l-94 -71q-289 397 -289 905z" />
    <glyph glyph-name="parenright.case" unicode="&#xf6af;" horiz-adv-x="507" 
d="M250 683q0 241 -53 431t-162 404l94 69q289 -397 289 -905t-289 -905l-94 71q109 210 162 402t53 433z" />
    <glyph glyph-name="bracketleft.case" unicode="&#xf6b0;" horiz-adv-x="497" 
d="M463 -205h-381v1778h381v-113h-260v-1552h260v-113z" />
    <glyph glyph-name="bracketright.case" unicode="&#xf6b1;" horiz-adv-x="497" 
d="M418 -205h-383v113h262v1552h-262v113h383v-1778z" />
    <glyph glyph-name="braceleft.case" unicode="&#xf6b2;" horiz-adv-x="534" 
d="M500 -205h-127q-102 0 -178 77t-76 198v422q0 61 -28 101t-81 40v102q53 0 81 40t28 102v419q0 123 76 200t178 77h127v-113h-127q-55 0 -95 -46t-40 -116v-434q0 -141 -93 -180q92 -39 93 -180v-432q0 -70 40 -117t95 -47h127v-113z" />
    <glyph glyph-name="braceright.case" unicode="&#xf6b3;" horiz-adv-x="534" 
d="M35 -205v113h125q55 0 96 47t41 117v432q0 141 92 180q-92 39 -92 180v434q0 70 -40 116t-97 46h-125v113h125q102 0 179 -77t77 -200v-419q0 -61 27 -102q28 -40 79 -40v-102q-51 0 -79 -40t-27 -101v-422q0 -121 -77 -198t-179 -77h-125z" />
    <glyph glyph-name="exclamdown.case" unicode="&#xf6b4;" horiz-adv-x="471" 
d="M123 1274q0 45 33 79q33 33 79 33q47 0 79 -32t32 -79q0 -46 -33 -79t-77 -33t-79 33q-34 33 -34 78zM139 0l31 983h129l33 -983h-193z" />
    <glyph glyph-name="questiondown.case" unicode="&#xf6b5;" horiz-adv-x="946" 
d="M487 1386q45 0 79 -34t34 -78q0 -45 -34 -79t-79 -34t-79 34t-33 79q-1 44 33 78t79 34zM608 830q0 -87 -38 -144t-92 -97t-108 -77q-130 -89 -130 -195q0 -82 62 -136t177 -54q203 0 328 166l102 -109q-160 -209 -444 -209q-182 -1 -292 91t-110 227q0 87 41 155
q40 68 98 111t116 82q141 95 141 188q0 61 -53 99l124 55q78 -66 78 -153z" />
    <glyph glyph-name="guillemotleft.case" unicode="&#xf6b6;" horiz-adv-x="899" 
d="M543 332h-154l-328 368l328 363h154l-328 -363zM838 332h-154l-328 368l328 363h154l-328 -363z" />
    <glyph glyph-name="guillemotright.case" unicode="&#xf6b7;" horiz-adv-x="899" 
d="M838 700l-328 -368h-154l328 368l-328 363h154zM543 700l-328 -368h-154l328 368l-328 363h154z" />
    <glyph glyph-name="guilsinglleft.case" unicode="&#xf6b8;" horiz-adv-x="604" 
d="M543 332h-154l-328 368l328 363h154l-328 -363z" />
    <glyph glyph-name="guilsinglright.case" unicode="&#xf6b9;" horiz-adv-x="604" 
d="M543 700l-328 -368h-154l328 368l-328 363h154z" />
    <glyph glyph-name="hyphen.case" unicode="&#xf6ba;" horiz-adv-x="614" 
d="M553 631h-492v135h492v-135z" />
    <glyph glyph-name="endash.case" unicode="&#xf6bb;" horiz-adv-x="1214" 
d="M1153 631h-1092v135h1092v-135z" />
    <glyph glyph-name="emdash.case" unicode="&#xf6bc;" horiz-adv-x="1705" 
d="M1645 631h-1584v135h1584v-135z" />
    <glyph glyph-name="periodcentered.case" unicode="&#xf6bd;" horiz-adv-x="473" 
d="M236 813q44 0 78 -33t34 -79q0 -47 -33 -79t-79 -32t-80 33q-33 33 -33 79t34 78q34 33 79 33z" />
    <glyph glyph-name="bullet.case" unicode="&#xf6be;" horiz-adv-x="733" 
d="M590 698q0 -90 -66 -154t-156 -65q-90 0 -155 65q-66 64 -66 154t66 156t156 66q89 0 155 -66t66 -156z" />
    <glyph glyph-name="cent.case" unicode="&#xf6bf;" horiz-adv-x="1015" 
d="M256 682q0 -144 70 -246t190 -129v748q-120 -27 -190 -129t-70 -244zM516 -18v184q-188 27 -304 170t-116 345t116 344t304 169v149h121v-145q193 -16 315 -170l-102 -92q-82 113 -213 125v-760q129 12 213 127l102 -94q-121 -158 -315 -170v-182h-121z" />
    <glyph glyph-name="commaaccent" unicode="&#xf6c3;" horiz-adv-x="471" 
d="M236 -145q42 1 74 -37t32 -110t-41 -144q-41 -74 -104 -121l-66 53q45 31 79 81t38 95h-10q-8 -2 -13 -2q-37 0 -61 26t-25 64q0 38 28 67q27 28 69 28z" />
    <glyph glyph-name="one.tnum" unicode="&#xf6dc;" horiz-adv-x="1224" 
d="M811 0h-170v1143l-219 -234l-103 105l343 352h149v-1366z" />
    <glyph glyph-name="rupiah" unicode="&#xf6dd;" horiz-adv-x="2306" 
d="M1737 113q145 -1 231 107t86 276t-86 274t-231 107q-88 -1 -171 -47t-124 -111v-447q41 -68 124 -114t171 -45zM1776 1014q196 0 318 -140t122 -378t-122 -380t-321 -141q-200 0 -331 175v-527h-154v1366h154v-147q55 78 143 125t191 47zM688 692q121 0 198 74t77 190
t-77 187q-77 72 -198 71h-358v-522h358zM330 543v-543h-170v1366h549q190 0 310 -113t120 -294q1 -181 -103 -285t-254 -117l369 -557h-201l-346 543h-274z" />
    <glyph glyph-name="centinferior" unicode="&#xf6df;" horiz-adv-x="628" 
d="M174 111q0 -83 40 -141t108 -74v430q-68 -16 -108 -74t-40 -141zM322 -309v112q-119 15 -192 101t-73 207t73 207t192 100v90h84v-88q119 -10 194 -109l-78 -59q-47 66 -116 78v-439q70 12 116 78l78 -61q-74 -96 -194 -107v-110h-84z" />
    <glyph glyph-name="centsuperior" unicode="&#xf6e0;" horiz-adv-x="628" 
d="M174 1272q0 -82 40 -140t108 -75v430q-68 -17 -108 -75t-40 -140zM322 852v111q-119 14 -192 100t-73 208t73 208t192 100v90h84v-88q119 -10 194 -108l-78 -60q-47 66 -116 78v-438q72 12 116 77l78 -61q-74 -96 -194 -108v-109h-84z" />
    <glyph glyph-name="commainferior" unicode="&#xf6e1;" horiz-adv-x="284" 
d="M59 -231q0 31 23 53q22 22 56 22t56 -26q21 -27 21 -68q0 -133 -104 -207q-14 12 -54 43q29 18 56 50t28 61l-8 -2q-29 -1 -51 21t-23 53z" />
    <glyph glyph-name="commasuperior" unicode="&#xf6e2;" horiz-adv-x="284" 
d="M59 930q0 30 23 54q22 22 56 22t56 -27t21 -68q0 -133 -104 -206q-14 12 -54 43q29 18 56 50t28 60l-8 -2q-29 0 -51 22t-23 52z" />
    <glyph glyph-name="dollarinferior" unicode="&#xf6e3;" horiz-adv-x="757" 
d="M195 313q0 -80 151 -118v241q-68 -6 -110 -40t-41 -83zM582 -79q0 52 -39 81t-111 47v-262q72 8 111 45t39 89zM346 -422v111q-195 12 -295 133l72 80q96 -100 223 -117v285q-167 39 -222 92q-54 53 -54 144t76 155q77 63 200 69v115h86v-117q158 -14 250 -116l-72 -72
q-70 76 -178 92v-258q199 -46 252 -140q23 -42 23 -102q0 -104 -71 -169t-204 -74v-111h-86z" />
    <glyph glyph-name="dollarsuperior" unicode="&#xf6e4;" horiz-adv-x="757" 
d="M195 1475q0 -80 151 -119v241q-68 -5 -110 -39t-41 -83zM582 1082q0 52 -39 81t-111 47v-264q74 10 112 47t38 89zM346 739v109q-193 12 -295 135l72 80q92 -100 223 -117v285q-167 39 -222 92q-54 53 -54 144t76 155q77 63 200 70v114h86v-116q158 -14 250 -117l-72 -72
q-70 76 -178 92v-258q201 -46 252 -140q23 -42 23 -101q0 -104 -71 -169t-204 -75v-111h-86z" />
    <glyph glyph-name="hypheninferior" unicode="&#xf6e5;" horiz-adv-x="376" 
d="M340 61h-303v97h303v-97z" />
    <glyph glyph-name="hyphensuperior" unicode="&#xf6e6;" horiz-adv-x="376" 
d="M340 1225h-303v96h303v-96z" />
    <glyph glyph-name="periodinferior" unicode="&#xf6e7;" horiz-adv-x="292" 
d="M223 -231q-1 -31 -23 -54t-54 -23t-54 24q-22 22 -22 53t22 53t54 22t54 -22t23 -53z" />
    <glyph glyph-name="periodsuperior" unicode="&#xf6e8;" horiz-adv-x="292" 
d="M223 930q-1 -32 -23 -54t-54 -22t-54 23t-22 53t22 54q22 22 54 22t54 -22t23 -54z" />
    <glyph glyph-name="asuperior" unicode="&#xf6e9;" horiz-adv-x="774" 
d="M358 729q115 0 177 78v115q-61 78 -177 77q-68 1 -112 -37t-43 -98q-1 -60 43 -98q44 -37 112 -37zM651 668h-116v71q-84 -88 -222 -88q-89 -1 -159 57t-70 157t69 155t160 55q139 0 222 -86v113q1 61 -47 97t-117 36q-121 0 -201 -94l-53 78q106 109 268 108
q117 0 192 -55t74 -172v-432z" />
    <glyph glyph-name="bsuperior" unicode="&#xf6ea;" horiz-adv-x="839" 
d="M242 668h-119v888h119v-339q84 111 218 111t216 -93q82 -92 82 -247t-82 -246t-217 -91t-217 111v-94zM432 748q92 0 149 66q56 67 56 174t-56 175t-149 68q-57 0 -110 -27t-80 -65v-301q27 -38 80 -64t110 -26z" />
    <glyph glyph-name="dsuperior" unicode="&#xf6eb;" horiz-adv-x="839" 
d="M408 748q127 0 192 90v301q-29 39 -82 65t-110 27q-92 0 -148 -68q-56 -67 -55 -175q-1 -108 55 -174t148 -66zM717 668h-117v94q-86 -111 -220 -111t-216 91t-82 246t83 247t216 92t217 -110v339h119v-888z" />
    <glyph glyph-name="esuperior" unicode="&#xf6ec;" horiz-adv-x="815" 
d="M415 1239q-95 0 -149 -61t-61 -142h416q-3 78 -57 140t-149 63zM430 651q-156 0 -252 94q-96 93 -96 239t94 244t238 99q144 0 232 -98q87 -98 87 -250v-29h-528q8 -88 69 -148t172 -60t189 77l53 -69q-102 -99 -258 -99z" />
    <glyph glyph-name="isuperior" unicode="&#xf6ed;" horiz-adv-x="331" 
d="M225 668h-119v643h119v-643zM166 1403q-32 1 -54 23t-22 53t23 53t53 22t54 -22q22 -22 22 -54q0 -30 -22 -52t-54 -23z" />
    <glyph glyph-name="lsuperior" unicode="&#xf6ee;" horiz-adv-x="364" 
d="M242 668h-119v888h119v-888z" />
    <glyph glyph-name="msuperior" unicode="&#xf6ef;" horiz-adv-x="1169" 
d="M1047 668h-117v428q0 133 -119 133q-47 0 -94 -29t-74 -65v-467h-117v428q0 133 -118 133q-48 0 -94 -28t-72 -66v-467h-119v643h119v-90q25 37 86 71t130 35q68 0 114 -33t63 -86q31 47 93 83t132 36q186 0 187 -205v-454z" />
    <glyph glyph-name="osuperior" unicode="&#xf6f0;" horiz-adv-x="829" 
d="M415 750q97 0 154 68t58 171q1 102 -57 170t-155 68t-153 -68t-57 -171q0 -103 56 -171q57 -67 154 -67zM416 651q-150 1 -242 99t-92 240t91 240t242 97q151 0 241 -97q90 -96 92 -240q0 -144 -91 -242t-241 -97z" />
    <glyph glyph-name="rsuperior" unicode="&#xf6f1;" horiz-adv-x="491" 
d="M242 668h-119v643h119v-99q94 113 217 113v-108l-41 2q-46 0 -100 -29t-76 -66v-456z" />
    <glyph glyph-name="ssuperior" unicode="&#xf6f2;" horiz-adv-x="675" 
d="M328 651q-166 0 -271 109l54 74q84 -96 219 -97q72 0 112 29t39 79q0 50 -64 78q-65 28 -141 38t-140 55t-64 124t67 133q68 54 185 54q164 0 249 -94l-51 -72q-66 80 -194 80q-66 0 -104 -28q-38 -29 -38 -69q0 -71 145 -94q61 -10 121 -26t102 -59t42 -121t-70 -136
t-198 -57z" />
    <glyph glyph-name="tsuperior" unicode="&#xf6f3;" horiz-adv-x="421" 
d="M285 651q-158 0 -158 160v414h-109v86h109v176h119v-176h133v-86h-133v-398q0 -80 63 -79q49 0 68 26q6 -16 33 -80q-47 -43 -125 -43z" />
    <glyph glyph-name="Lslash.smcp" unicode="&#xf6f9;" horiz-adv-x="985" 
d="M201 1126h161v-432l193 113v-148l-193 -112v-406h545v-141h-706v455l-181 -105v148l181 104v524z" />
    <glyph glyph-name="OE.smcp" unicode="&#xf6fa;" horiz-adv-x="1951" 
d="M680 1010q-188 0 -304 -126t-116 -321t116 -321t304 -125q132 -1 234 69t149 211v336q-47 139 -149 208t-234 69zM1847 0h-784v203q-131 -227 -395 -227t-418 166q-154 167 -154 421t155 421t417 167t395 -225v200h784v-141h-624v-338h612v-141h-612v-365h624v-141z" />
    <glyph glyph-name="Scaron.smcp" unicode="&#xf6fd;" horiz-adv-x="1032" 
d="M596 1241h-147l-201 295h104l170 -217l164 217h105zM516 -25q-143 1 -260 49t-190 128l86 120q61 -68 158 -112t223 -45q126 0 194 55t68 130q1 75 -51 118t-129 61t-167 44t-166 55q-77 30 -128 94t-52 159q0 139 117 229t291 91q264 0 422 -162l-84 -112
q-127 135 -338 135q-106 0 -174 -50t-68 -118q0 -120 173 -158t338 -102q77 -31 128 -101t51 -170q0 -150 -112 -244t-330 -94z" />
    <glyph glyph-name="Zcaron.smcp" unicode="&#xf6ff;" horiz-adv-x="1056" 
d="M600 1241h-147l-201 295h104l170 -217l164 217h105zM977 0h-895v121l666 864h-666v141h881v-120l-666 -865h680v-141z" />
    <glyph glyph-name="exclam.smcp" unicode="&#xf721;" horiz-adv-x="376" 
d="M301 91q0 -46 -34 -79q-34 -32 -79 -32q-44 0 -78 32t-34 79q0 46 34 80t78 34t79 -34q34 -34 34 -80zM276 1126l-28 -786h-119l-29 786h176z" />
    <glyph glyph-name="dollar.onum" unicode="&#xf724;" horiz-adv-x="1032" 
d="M268 840q0 -64 49 -100q49 -34 144 -60v328q-85 -10 -139 -57t-54 -111zM795 306q-1 73 -55 113t-158 70v-372q109 12 161 64t52 125zM461 -152v129q-256 18 -395 175l86 120q121 -133 309 -155v403q-269 66 -330 182q-29 55 -29 129q0 127 100 215t259 103v137h121v-139
q213 -20 350 -158l-84 -112q-102 109 -266 129v-357q84 -23 138 -42t116 -57q124 -77 123 -225q-1 -149 -97 -241t-280 -107v-129h-121z" />
    <glyph glyph-name="ampersand.smcp" unicode="&#xf726;" horiz-adv-x="1138" 
d="M367 876q0 -75 71 -184q115 54 173 102q59 48 59 116t-38 100t-106 32t-114 -46t-45 -120zM205 307q1 -93 67 -155t182 -62t232 111q-200 200 -309 342q-172 -98 -172 -236zM225 886q0 114 87 190t210 75q123 0 201 -59t78 -168q0 -161 -189 -262q-41 -23 -112 -58
q51 -63 135 -151q66 -74 139 -148q82 123 123 256l121 -49q-74 -178 -158 -293q84 -80 238 -219h-195q-8 6 -131 119q-152 -141 -330 -141t-282 85q-104 87 -104 221t68 211q69 77 189 138q-88 139 -88 253z" />
    <glyph glyph-name="zero.onum" unicode="&#xf730;" horiz-adv-x="1253" 
d="M975 563q0 182 -87 309t-260 127t-261 -127t-88 -309t88 -309t260 -127t260 127t88 309zM1149 544q0 -134 -52 -264q-52 -128 -174 -216t-296 -89q-174 0 -296 88q-225 162 -227 500q0 233 123 404q61 84 165 134t234 50q132 0 235 -50t165 -134q123 -169 123 -423z" />
    <glyph glyph-name="one.onum" unicode="&#xf731;" horiz-adv-x="694" 
d="M535 0h-170v903l-220 -233l-102 104l342 352h150v-1126z" />
    <glyph glyph-name="two.onum" unicode="&#xf732;" horiz-adv-x="1183" 
d="M1006 0h-883v137q369 153 551 311t182 312q0 104 -81 172t-197 67q-248 0 -381 -172l-105 109q78 102 210 158t280 57q194 0 320 -101q126 -100 126 -274t-166 -343t-426 -281h570v-152z" />
    <glyph glyph-name="three.onum" unicode="&#xf733;" horiz-adv-x="1132" 
d="M537 -264q-164 0 -291 63t-195 162l101 107q61 -82 161 -131t233 -49t220 69q86 69 86 189t-91 180t-231 59q-140 0 -159 -2v156q23 -2 151 -2t218 56q89 56 89 167t-87 173t-218 62q-207 0 -360 -166l-94 107q172 211 469 211q203 0 331 -97t129 -266q0 -135 -90 -217
t-202 -100q113 -12 214 -100t101 -250q0 -161 -132 -271t-353 -110z" />
    <glyph glyph-name="four.onum" unicode="&#xf734;" horiz-adv-x="1142" 
d="M715 262v707l-479 -707h479zM1077 113h-192v-353h-170v353h-649v141l585 872h234v-864h192v-149z" />
    <glyph glyph-name="five.onum" unicode="&#xf735;" horiz-adv-x="1208" 
d="M616 -264q-315 0 -481 219l105 115q141 -182 376 -183q139 0 228 84q88 84 88 213t-87 210t-227 81q-182 0 -315 -127l-125 43v735h836v-151h-666v-475q126 123 314 123t315 -117t127 -320q0 -202 -138 -326t-350 -124z" />
    <glyph glyph-name="six.onum" unicode="&#xf736;" horiz-adv-x="1210" 
d="M618 127q154 0 237 90t83 216t-88 202t-206 76q-118 -1 -212 -57q-92 -56 -149 -146q12 -152 96 -266q85 -114 239 -115zM633 -25q-139 -1 -243 57q-188 104 -256 382q-30 123 -30 268q0 299 142 502t416 202q238 0 376 -163l-86 -127q-120 139 -298 139t-278 -158
t-100 -379v-53q51 82 159 148t229 65q194 0 320 -114t126 -310t-131 -328t-346 -131z" />
    <glyph glyph-name="seven.onum" unicode="&#xf737;" horiz-adv-x="1054" 
d="M63 975v151h932v-116l-559 -1250h-188l551 1215h-736z" />
    <glyph glyph-name="eight.onum" unicode="&#xf738;" horiz-adv-x="1191" 
d="M595 127q132 0 225 66t93 160t-64 156q-109 104 -253 120q-146 -16 -253 -120q-65 -62 -64 -144q0 -106 92 -172t224 -66zM596 1235q-127 0 -211 -60t-84 -165q0 -58 33 -104q47 -66 180 -111q41 -15 82 -21q76 11 154 49q143 70 143 180q0 109 -85 171t-212 61zM596 -25
q-209 1 -349 101t-141 270q0 129 94 223t232 136q-131 37 -217 119t-86 208q0 172 139 263q140 91 328 91t328 -91t141 -263q0 -125 -87 -208t-218 -119q139 -41 232 -135t93 -224q0 -168 -140 -270t-349 -101z" />
    <glyph glyph-name="nine.onum" unicode="&#xf739;" horiz-adv-x="1210" 
d="M568 414q120 0 213 56t149 148q-12 138 -88 252q-39 56 -106 92t-150 35q-146 0 -230 -89q-84 -90 -84 -216t88 -203q88 -75 208 -75zM551 -262q-233 0 -379 164l86 127q119 -139 293 -140q131 0 221 82q164 149 164 455q0 35 -2 53q-52 -81 -158 -147t-227 -66
q-195 0 -322 114t-127 310t131 328t349 131q137 0 241 -57q103 -58 165 -158q122 -199 122 -492q0 -413 -244 -603q-129 -101 -313 -101z" />
    <glyph glyph-name="question.smcp" unicode="&#xf73f;" horiz-adv-x="811" 
d="M504 92q0 -47 -33 -80q-33 -32 -80 -32t-80 32t-32 80q0 47 32 80q33 33 80 33t80 -33t33 -80zM410 1149q162 -1 258 -75t96 -172t-54 -164t-118 -100t-118 -81t-54 -94t53 -84l-117 -49q-74 56 -74 124q1 114 115 192q47 32 95 62q114 72 114 147t-55 117t-154 42
q-180 0 -295 -142l-82 97q143 180 390 180z" />
    <glyph glyph-name="A.smcp" unicode="&#xf761;" horiz-adv-x="1171" 
d="M825 387l-237 571l-240 -571h477zM492 1126h190l475 -1126h-178l-105 246h-575l-104 -246h-181z" />
    <glyph glyph-name="B.smcp" unicode="&#xf762;" horiz-adv-x="1134" 
d="M666 647q90 0 139 47t49 123t-49 122t-139 46h-351v-338h351zM674 141q94 0 148 48q54 49 54 129t-52 134q-54 54 -150 54h-359v-365h359zM696 0h-542v1126h530q156 0 246 -80t90 -208q0 -96 -55 -165t-138 -91q93 -23 155 -101t62 -176q0 -139 -93 -222t-255 -83z" />
    <glyph glyph-name="C.smcp" unicode="&#xf763;" horiz-adv-x="1191" 
d="M708 -25q-268 0 -440 166t-172 424t172 422t444 164t433 -231l-129 -72q-51 74 -136 118t-182 44q-186 0 -312 -126t-126 -320t126 -320t312 -127q98 0 184 44t134 118l131 -72q-171 -232 -439 -232z" />
    <glyph glyph-name="D.smcp" unicode="&#xf764;" horiz-adv-x="1259" 
d="M563 141q203 0 319 120t116 302t-114 302t-321 120h-248v-844h248zM563 0h-409v1126h409q270 0 435 -160t165 -405t-164 -403t-436 -158z" />
    <glyph glyph-name="E.smcp" unicode="&#xf765;" horiz-adv-x="1042" 
d="M936 0h-782v1126h782v-141h-621v-338h611v-141h-611v-365h621v-141z" />
    <glyph glyph-name="F.smcp" unicode="&#xf766;" horiz-adv-x="1005" 
d="M315 0h-161v1126h782v-141h-621v-338h611v-141h-611v-506z" />
    <glyph glyph-name="G.smcp" unicode="&#xf767;" horiz-adv-x="1282" 
d="M710 -25q-268 0 -441 165t-173 423t173 423t438 165t444 -207l-125 -84q-122 148 -318 148t-321 -125t-125 -319t125 -320t308 -127q183 0 304 116v220h-348v135h508v-416q-181 -197 -449 -197z" />
    <glyph glyph-name="H.smcp" unicode="&#xf768;" horiz-adv-x="1300" 
d="M1147 0h-158v508h-674v-508h-161v1126h161v-477h674v477h158v-1126z" />
    <glyph glyph-name="I.smcp" unicode="&#xf769;" horiz-adv-x="468" 
d="M315 0h-161v1126h161v-1126z" />
    <glyph glyph-name="J.smcp" unicode="&#xf76a;" horiz-adv-x="864" 
d="M709 336q-1 -178 -107 -270t-288 -91q-182 0 -298 140l78 116q88 -115 208 -115t183 64q63 63 64 168v778h160v-790z" />
    <glyph glyph-name="K.smcp" unicode="&#xf76b;" horiz-adv-x="1093" 
d="M315 0h-161v1126h161v-563l508 563h201l-496 -534l537 -592h-199l-442 498l-109 -119v-379z" />
    <glyph glyph-name="L.smcp" unicode="&#xf76c;" horiz-adv-x="937" 
d="M860 0h-706v1126h161v-985h545v-141z" />
    <glyph glyph-name="M.smcp" unicode="&#xf76d;" horiz-adv-x="1472" 
d="M1319 0h-160v909l-387 -909h-70l-387 909v-909h-161v1126h219l362 -858l365 858h219v-1126z" />
    <glyph glyph-name="N.smcp" unicode="&#xf76e;" horiz-adv-x="1294" 
d="M1141 0h-162l-666 877v-877h-159v1126h168l659 -860v860h160v-1126z" />
    <glyph glyph-name="O.smcp" unicode="&#xf76f;" horiz-adv-x="1355" 
d="M678 117q188 0 303 126q115 127 115 321t-115 320t-303 126t-303 -126t-115 -321t115 -321t303 -125zM678 -25q-258 0 -420 168t-162 420t162 420t420 168t420 -168t162 -420t-162 -420t-420 -168z" />
    <glyph glyph-name="P.smcp" unicode="&#xf770;" horiz-adv-x="1071" 
d="M623 578q106 0 163 56t58 148q0 92 -58 148t-163 55h-308v-407h308zM315 0h-161v1126h483q174 0 272 -99q99 -99 99 -245t-96 -245q-96 -98 -275 -99h-322v-438z" />
    <glyph glyph-name="Q.smcp" unicode="&#xf771;" horiz-adv-x="1355" 
d="M678 117q119 0 213 53l-156 172l101 86l155 -172q105 126 105 314t-115 314t-303 126t-303 -126t-115 -321t115 -321t303 -125zM678 -25q-258 0 -420 168t-162 420t162 420t420 168t420 -168t162 -422t-164 -422l104 -114l-100 -84l-109 116q-135 -82 -313 -82z" />
    <glyph glyph-name="R.smcp" unicode="&#xf772;" horiz-adv-x="1116" 
d="M623 578q106 0 163 56t58 148q0 92 -58 148t-163 55h-308v-407h308zM315 438v-438h-161v1126h483q174 0 273 -97q100 -97 100 -243t-85 -236q-85 -89 -220 -99l319 -451h-188l-295 438h-226z" />
    <glyph glyph-name="S.smcp" unicode="&#xf773;" horiz-adv-x="1032" 
d="M516 -25q-143 1 -260 49t-190 128l86 120q61 -68 158 -112t223 -45q126 0 194 55t68 130q1 75 -51 118t-129 61t-167 44t-166 55q-77 30 -128 94t-52 159q0 139 117 229t291 91q264 0 422 -162l-84 -112q-127 135 -338 135q-106 0 -174 -50t-68 -118q0 -120 173 -158
t338 -102q77 -31 128 -101t51 -170q0 -150 -112 -244t-330 -94z" />
    <glyph glyph-name="T.smcp" unicode="&#xf774;" horiz-adv-x="966" 
d="M563 0h-160v985h-350v141h858v-141h-348v-985z" />
    <glyph glyph-name="U.smcp" unicode="&#xf775;" horiz-adv-x="1275" 
d="M637 -25q-235 0 -359 123t-124 336v692h161v-682q0 -154 84 -240t239 -87q155 0 239 88t84 239v682h161v-692q0 -213 -124 -336t-361 -123z" />
    <glyph glyph-name="V.smcp" unicode="&#xf776;" horiz-adv-x="1171" 
d="M682 0h-190l-478 1126h183l391 -948l391 948h178z" />
    <glyph glyph-name="W.smcp" unicode="&#xf777;" horiz-adv-x="1564" 
d="M1204 0h-168l-256 883l-252 -883h-170l-338 1126h179l252 -907l264 907h135l262 -909l254 909h176z" />
    <glyph glyph-name="X.smcp" unicode="&#xf778;" horiz-adv-x="1161" 
d="M1145 0h-193l-372 469l-369 -469h-193l461 578l-434 548h193l342 -440l344 440h192l-432 -546z" />
    <glyph glyph-name="Y.smcp" unicode="&#xf779;" horiz-adv-x="1120" 
d="M643 0h-160v477l-469 649h187l364 -512l357 512h184l-463 -649v-477z" />
    <glyph glyph-name="Z.smcp" unicode="&#xf77a;" horiz-adv-x="1056" 
d="M977 0h-895v121l666 864h-666v141h881v-120l-666 -865h680v-141z" />
    <glyph glyph-name="exclamdown.smcp" unicode="&#xf7a1;" horiz-adv-x="376" 
d="M76 1035q0 46 34 79t78 33t79 -33q34 -33 34 -79t-34 -80q-34 -33 -79 -33q-44 0 -78 34t-34 79zM100 0l29 786h119l28 -786h-176z" />
    <glyph glyph-name="questiondown.smcp" unicode="&#xf7b8;" horiz-adv-x="811" 
d="M307 1034q0 47 33 80t80 33t80 -33q32 -33 32 -80t-32 -80q-32 -32 -80 -32q-47 0 -80 32t-33 80zM47 224q0 98 54 164q53 66 117 100t119 81q54 47 54 95t-53 84l117 49q73 -57 73 -125q-1 -115 -114 -192q-46 -32 -94 -62q-114 -71 -115 -146q0 -76 55 -118t154 -41
q180 0 295 141l82 -96q-143 -180 -390 -181q-162 0 -258 75q-96 74 -96 172z" />
    <glyph glyph-name="Agrave.smcp" unicode="&#xf7e0;" horiz-adv-x="1171" 
d="M723 1241h-117l-346 295h160zM825 387l-237 571l-240 -571h477zM492 1126h190l475 -1126h-178l-105 246h-575l-104 -246h-181z" />
    <glyph glyph-name="Aacute.smcp" unicode="&#xf7e1;" horiz-adv-x="1171" 
d="M918 1536l-347 -295h-116l303 295h160zM825 387l-237 571l-240 -571h477zM492 1126h190l475 -1126h-178l-105 246h-575l-104 -246h-181z" />
    <glyph glyph-name="Acircumflex.smcp" unicode="&#xf7e2;" horiz-adv-x="1171" 
d="M860 1241h-104l-170 217l-164 -217h-105l195 295h147zM825 387l-237 571l-240 -571h477zM492 1126h190l475 -1126h-178l-105 246h-575l-104 -246h-181z" />
    <glyph glyph-name="Atilde.smcp" unicode="&#xf7e3;" horiz-adv-x="1171" 
d="M711 1237q-49 0 -87 30q-38 31 -58 65q-54 95 -102 94t-76 -45t-28 -132h-92q0 123 52 199t147 76q49 0 87 -30t57 -64q52 -94 102 -95q49 0 77 44t27 132h92q0 -123 -52 -199t-146 -75zM825 387l-237 571l-240 -571h477zM492 1126h190l475 -1126h-178l-105 246h-575
l-104 -246h-181z" />
    <glyph glyph-name="Adieresis.smcp" unicode="&#xf7e4;" horiz-adv-x="1171" 
d="M471 1352q0 -39 -28 -67q-29 -28 -67 -28t-67 28t-28 67q-1 38 27 66t68 28t68 -28t27 -66zM895 1352q0 -39 -29 -67q-30 -28 -68 -28t-66 28t-27 67q-1 38 27 66t68 28t68 -28t27 -66zM825 387l-237 571l-240 -571h477zM492 1126h190l475 -1126h-178l-105 246h-575
l-104 -246h-181z" />
    <glyph glyph-name="Aring.smcp" unicode="&#xf7e5;" horiz-adv-x="1171" 
d="M589 1319q50 0 85 36t35 85t-35 85t-85 36t-85 -36t-35 -85t35 -85t85 -36zM590 1237q-82 0 -143 59q-60 60 -60 144t60 143q61 59 143 59t140 -59t58 -143t-58 -144t-140 -59zM825 387l-237 571l-240 -571h477zM492 1126h190l475 -1126h-178l-105 246h-575l-104 -246
h-181z" />
    <glyph glyph-name="AE.smcp" unicode="&#xf7e6;" horiz-adv-x="1681" 
d="M793 387v571l-365 -571h365zM1577 0h-784v246h-443l-155 -246h-183l721 1126h844v-141h-625v-338h613v-141h-613v-365h625v-141z" />
    <glyph glyph-name="Ccedilla.smcp" unicode="&#xf7e7;" horiz-adv-x="1191" 
d="M909 -234q-1 -68 -61 -112q-60 -45 -172 -45t-187 61l39 78q74 -59 164 -59q53 1 89 23t36 63q0 72 -76 71q-49 0 -77 -34l-68 38l47 127q-239 17 -393 181t-154 414t172 415q172 164 444 164t433 -231l-129 -72q-51 74 -136 118t-182 44q-186 0 -312 -126t-126 -320
t126 -320t312 -127q98 0 184 44t134 118l131 -72q-158 -215 -414 -230l-35 -90q29 23 82 23t91 -38t38 -106z" />
    <glyph glyph-name="Egrave.smcp" unicode="&#xf7e8;" horiz-adv-x="1042" 
d="M688 1241h-117l-346 295h160zM936 0h-782v1126h782v-141h-621v-338h611v-141h-611v-365h621v-141z" />
    <glyph glyph-name="Eacute.smcp" unicode="&#xf7e9;" horiz-adv-x="1042" 
d="M881 1536l-346 -295h-117l303 295h160zM936 0h-782v1126h782v-141h-621v-338h611v-141h-611v-365h621v-141z" />
    <glyph glyph-name="Ecircumflex.smcp" unicode="&#xf7ea;" horiz-adv-x="1042" 
d="M825 1241h-104l-170 217l-164 -217h-104l194 295h148zM936 0h-782v1126h782v-141h-621v-338h611v-141h-611v-365h621v-141z" />
    <glyph glyph-name="Edieresis.smcp" unicode="&#xf7eb;" horiz-adv-x="1042" 
d="M428 1352q0 -39 -28 -67t-66 -28t-68 28q-29 28 -28 67q0 38 28 66t67 28t67 -28t28 -66zM852 1352q0 -39 -29 -67t-67 -28t-67 28q-28 28 -27 67q0 38 28 66t67 28t67 -28t28 -66zM936 0h-782v1126h782v-141h-621v-338h611v-141h-611v-365h621v-141z" />
    <glyph glyph-name="Igrave.smcp" unicode="&#xf7ec;" horiz-adv-x="464" 
d="M369 1241h-117l-346 295h160zM315 0h-161v1126h161v-1126z" />
    <glyph glyph-name="Iacute.smcp" unicode="&#xf7ed;" horiz-adv-x="464" 
d="M563 1536l-346 -295h-117l303 295h160zM315 0h-161v1126h161v-1126z" />
    <glyph glyph-name="Icircumflex.smcp" unicode="&#xf7ee;" horiz-adv-x="464" 
d="M506 1241h-105l-170 217l-163 -217h-105l195 295h147zM315 0h-161v1126h161v-1126z" />
    <glyph glyph-name="Idieresis.smcp" unicode="&#xf7ef;" horiz-adv-x="464" 
d="M119 1352q0 -39 -28 -67q-29 -28 -67 -28t-67 28t-29 67q0 38 28 66t68 28t68 -28t27 -66zM543 1352q0 -39 -29 -67t-68 -28q-38 0 -66 28t-28 67q0 38 28 66t68 28t67 -28q28 -28 28 -66zM315 0h-161v1126h161v-1126z" />
    <glyph glyph-name="Eth.smcp" unicode="&#xf7f0;" horiz-adv-x="1282" 
d="M584 514h-273v-373h248q203 0 319 120t116 302t-114 302t-321 120h-248v-364h273v-107zM559 0h-409v514h-130v107h130v505h409q270 0 435 -160t165 -405t-164 -403t-436 -158z" />
    <glyph glyph-name="Ntilde.smcp" unicode="&#xf7f1;" horiz-adv-x="1294" 
d="M768 1237q-49 0 -87 30q-38 31 -57 65q-52 95 -102 94q-49 -1 -77 -45t-27 -132h-92q0 123 52 199t146 76q49 0 87 -30q37 -30 57 -64q53 -95 102 -95t77 44t27 132h93q-1 -123 -53 -199t-146 -75zM1141 0h-162l-666 877v-877h-159v1126h168l659 -860v860h160v-1126z" />
    <glyph glyph-name="Ograve.smcp" unicode="&#xf7f2;" horiz-adv-x="1355" 
d="M813 1241h-117l-346 295h160zM678 117q188 0 303 126q115 127 115 321t-115 320t-303 126t-303 -126t-115 -321t115 -321t303 -125zM678 -25q-258 0 -420 168t-162 420t162 420t420 168t420 -168t162 -420t-162 -420t-420 -168z" />
    <glyph glyph-name="Oacute.smcp" unicode="&#xf7f3;" horiz-adv-x="1355" 
d="M1010 1536l-346 -295h-117l303 295h160zM678 117q188 0 303 126q115 127 115 321t-115 320t-303 126t-303 -126t-115 -321t115 -321t303 -125zM678 -25q-258 0 -420 168t-162 420t162 420t420 168t420 -168t162 -420t-162 -420t-420 -168z" />
    <glyph glyph-name="Ocircumflex.smcp" unicode="&#xf7f4;" horiz-adv-x="1355" 
d="M954 1241h-104l-170 217l-164 -217h-104l194 295h148zM678 117q188 0 303 126q115 127 115 321t-115 320t-303 126t-303 -126t-115 -321t115 -321t303 -125zM678 -25q-258 0 -420 168t-162 420t162 420t420 168t420 -168t162 -420t-162 -420t-420 -168z" />
    <glyph glyph-name="Otilde.smcp" unicode="&#xf7f5;" horiz-adv-x="1355" 
d="M807 1237q-49 0 -87 30q-38 31 -57 65q-52 95 -102 94q-49 -1 -77 -45t-27 -132h-92q0 123 52 199t146 76q49 0 87 -30t58 -64q53 -95 101 -95q49 0 77 44t27 132h93q0 -123 -52 -199t-147 -75zM678 117q188 0 303 126q115 127 115 321t-115 320t-303 126t-303 -126
t-115 -321t115 -321t303 -125zM678 -25q-258 0 -420 168t-162 420t162 420t420 168t420 -168t162 -420t-162 -420t-420 -168z" />
    <glyph glyph-name="Odieresis.smcp" unicode="&#xf7f6;" horiz-adv-x="1355" 
d="M565 1352q1 -39 -27 -67t-67 -28t-68 28t-28 67q-1 38 27 66t68 28t68 -28t27 -66zM989 1352q-1 -39 -29 -67t-67 -28t-67 28t-27 67q-1 38 27 66t68 28t68 -28t27 -66zM678 117q188 0 303 126q115 127 115 321t-115 320t-303 126t-303 -126t-115 -321t115 -321t303 -125
zM678 -25q-258 0 -420 168t-162 420t162 420t420 168t420 -168t162 -420t-162 -420t-420 -168z" />
    <glyph glyph-name="Oslash.smcp" unicode="&#xf7f8;" horiz-adv-x="1355" 
d="M260 563q0 -195 111 -317l522 708q-98 55 -215 56q-188 0 -303 -126t-115 -321zM678 117q188 0 303 126q115 127 115 321t-117 321l-522 -709q94 -59 221 -59zM678 -25q-174 0 -309 80l-41 -55h-138l89 121q-183 166 -183 430t162 432t420 168q168 0 303 -78l39 53h137
l-86 -118q189 -168 189 -432t-162 -433q-162 -168 -420 -168z" />
    <glyph glyph-name="Ugrave.smcp" unicode="&#xf7f9;" horiz-adv-x="1275" 
d="M772 1241h-117l-346 295h160zM637 -25q-235 0 -359 123t-124 336v692h161v-682q0 -154 84 -240t239 -87q155 0 239 88t84 239v682h161v-692q0 -213 -124 -336t-361 -123z" />
    <glyph glyph-name="Uacute.smcp" unicode="&#xf7fa;" horiz-adv-x="1275" 
d="M971 1536l-346 -295h-117l303 295h160zM637 -25q-235 0 -359 123t-124 336v692h161v-682q0 -154 84 -240t239 -87q155 0 239 88t84 239v682h161v-692q0 -213 -124 -336t-361 -123z" />
    <glyph glyph-name="Ucircumflex.smcp" unicode="&#xf7fb;" horiz-adv-x="1275" 
d="M909 1241h-104l-170 217l-164 -217h-104l194 295h148zM637 -25q-235 0 -359 123t-124 336v692h161v-682q0 -154 84 -240t239 -87q155 0 239 88t84 239v682h161v-692q0 -213 -124 -336t-361 -123z" />
    <glyph glyph-name="Udieresis.smcp" unicode="&#xf7fc;" horiz-adv-x="1275" 
d="M522 1352q0 -39 -28 -67t-66 -28q-39 0 -68 28t-28 67q0 38 28 66t67 28t67 -28t28 -66zM946 1352q0 -39 -28 -67t-68 -28q-39 0 -67 28t-27 67q0 38 28 66t67 28t67 -28t28 -66zM637 -25q-235 0 -359 123t-124 336v692h161v-682q0 -154 84 -240t239 -87q155 0 239 88
t84 239v682h161v-692q0 -213 -124 -336t-361 -123z" />
    <glyph glyph-name="Yacute.smcp" unicode="&#xf7fd;" horiz-adv-x="1120" 
d="M893 1536l-346 -295h-117l303 295h160zM643 0h-160v477l-469 649h187l364 -512l357 512h184l-463 -649v-477z" />
    <glyph glyph-name="Thorn.smcp" unicode="&#xf7fe;" horiz-adv-x="1071" 
d="M623 389q106 0 163 56q58 55 58 147t-58 148t-163 57h-308v-408h308zM315 0h-161v1126h161v-188h322q174 0 272 -99q99 -99 99 -245t-96 -246t-275 -100h-322v-248z" />
    <glyph glyph-name="Ydieresis.smcp" unicode="&#xf7ff;" horiz-adv-x="1120" 
d="M449 1352q0 -39 -28 -67t-67 -28q-40 0 -68 28t-28 67q0 38 28 66t68 28t67 -28q28 -28 28 -66zM872 1352q0 -39 -28 -67t-68 -28q-38 0 -66 28t-28 67q0 38 28 66t68 28t66 -28q28 -28 28 -66zM643 0h-160v477l-469 649h187l364 -512l357 512h184l-463 -649v-477z" />
    <glyph glyph-name="f.alt1" horiz-adv-x="581" 
d="M350 0h-153v854h-164v135h164v76q0 152 78 237q79 85 208 84q92 0 152 -32l-39 -117q-39 23 -88 23q-158 0 -158 -195v-76h201v-135h-201v-854z" />
    <glyph glyph-name="l.alt1" horiz-adv-x="550" 
d="M307 240q1 -128 111 -128q58 0 92 44l47 -117q-69 -64 -181 -64q-222 0 -222 232v1159h153v-1126z" />
    <glyph glyph-name="a.alt1" horiz-adv-x="1177" 
d="M575 113q88 0 171 46t124 111v447q-41 67 -124 113t-171 47q-147 0 -233 -108q-86 -107 -86 -275t86 -274t233 -107zM1024 0h-154v147q-126 -172 -328 -172q-202 1 -324 141t-122 377t123 379t323 142t328 -174v149h154v-989z" />
    <glyph glyph-name="y.alt1" horiz-adv-x="1128" 
d="M307 358q0 -227 211 -227q96 0 177 44t126 106v708h154v-977q0 -201 -129 -307t-341 -106t-362 149l78 111q106 -133 301 -133q139 0 219 76t80 210v148q-61 -70 -154 -117t-198 -47q-315 0 -315 315v678h153v-631z" />
    <glyph glyph-name="G.alt1" horiz-adv-x="1460" 
d="M1450 702q0 -328 -173 -528t-472 -201q-299 0 -500 199t-201 511t202 509t514 197t517 -254l-135 -86q-66 86 -171 137t-224 51q-227 0 -377 -156q-150 -157 -150 -399t152 -398q150 -156 362 -157q212 0 328 120t144 304h-561v151h745z" />
    <glyph glyph-name="G.smcp.alt1" horiz-adv-x="1316" 
d="M692 -25q-252 0 -424 165t-172 423t173 423t438 165t444 -207l-125 -84q-126 150 -320 150t-319 -126t-125 -320t125 -320t311 -127q147 0 252 90q104 90 125 246h-424v135h596q1 -279 -151 -446t-404 -167z" />
    <glyph glyph-name="Gbreve.alt1" horiz-adv-x="1519" 
d="M1450 702q0 -328 -173 -528t-472 -201q-299 0 -500 199t-201 511t202 509t514 197t517 -254l-135 -86q-66 86 -171 137t-224 51q-227 0 -377 -156q-150 -157 -150 -399t152 -398q150 -156 362 -157q212 0 328 120t144 304h-561v151h745zM814 1479q-224 0 -361 180l77 65
q104 -147 284 -147t284 147l73 -65q-133 -180 -357 -180z" />
    <glyph glyph-name="Gbreve.smcp.alt1" horiz-adv-x="1310" 
d="M692 -25q-252 0 -424 165t-172 423t173 423t438 165t444 -207l-125 -84q-126 150 -320 150t-319 -126t-125 -320t125 -320t311 -127q147 0 252 90q104 90 125 246h-424v135h596q1 -279 -151 -446t-404 -167zM704 1235q-224 0 -362 180l78 66q104 -147 283 -147t284 147
l74 -66q-133 -180 -357 -180z" />
    <glyph glyph-name="Gcommaaccent.alt1" horiz-adv-x="1519" 
d="M1450 702q0 -328 -173 -528t-472 -201q-299 0 -500 199t-201 511t202 509t514 197t517 -254l-135 -86q-66 86 -171 137t-224 51q-227 0 -377 -156q-150 -157 -150 -399t152 -398q150 -156 362 -157q212 0 328 120t144 304h-561v151h745zM814 -145q42 1 74 -37t32 -110
t-41 -144q-41 -74 -105 -121l-65 53q45 31 78 81q34 50 38 95h-10q-8 -2 -12 -2q-37 0 -62 26t-25 64t28 67q28 28 70 28z" />
    <glyph glyph-name="Gcommaaccent.smcp.alt1" horiz-adv-x="1316" 
d="M692 -25q-252 0 -424 165t-172 423t173 423t438 165t444 -207l-125 -84q-126 150 -320 150t-319 -126t-125 -320t125 -320t311 -127q147 0 252 90q104 90 125 246h-424v135h596q1 -279 -151 -446t-404 -167zM708 -145q42 1 74 -37t31 -110q0 -72 -41 -144
q-41 -74 -104 -121l-66 53q45 31 79 81t38 95h-10q-8 -2 -13 -2q-38 0 -62 26t-24 64t28 67q28 28 70 28z" />
    <glyph glyph-name="lslash.alt1" horiz-adv-x="612" 
d="M369 240q-1 -128 109 -128q58 0 93 44l47 -117q-70 -63 -182 -63q-222 -1 -221 231v371l-195 -111v123l195 110v666h154v-578l196 113v-123l-196 -112v-426z" />
    <glyph glyph-name="lacute.alt1" horiz-adv-x="550" 
d="M307 240q1 -128 111 -128q58 0 92 44l47 -117q-69 -64 -181 -64q-222 0 -222 232v1159h153v-1126zM559 1786l-346 -295h-117l303 295h160z" />
    <glyph glyph-name="lcommaaccent.alt1" horiz-adv-x="550" 
d="M307 240q1 -128 111 -128q58 0 92 44l47 -117q-69 -64 -181 -64q-222 0 -222 232v1159h153v-1126zM272 -145q42 1 73 -37q32 -38 32 -110t-41 -144q-41 -74 -105 -121l-65 53q45 31 79 81t38 95h-9q-10 -2 -14 -2q-38 0 -62 26t-24 64t28 67q28 28 70 28z" />
    <glyph glyph-name="lcaron.alt1" horiz-adv-x="606" 
d="M307 240q1 -128 111 -128q58 0 92 44l47 -117q-69 -64 -181 -64q-222 0 -222 232v1159h153v-1126zM538 1393q42 1 74 -37t31 -110q0 -72 -41 -144q-41 -74 -104 -121l-66 53q45 31 79 81t38 95l-8 -2h-15q-38 0 -62 26t-24 64t28 67q28 28 70 28z" />
    <glyph glyph-name="aacute.alt1" horiz-adv-x="1177" 
d="M575 113q88 0 171 46t124 111v447q-41 67 -124 113t-171 47q-147 0 -233 -108q-86 -107 -86 -275t86 -274t233 -107zM1024 0h-154v147q-126 -172 -328 -172q-202 1 -324 141t-122 377t123 379t323 142t328 -174v149h154v-989zM930 1434l-346 -295h-117l303 295h160z" />
    <glyph glyph-name="agrave.alt1" horiz-adv-x="1177" 
d="M575 113q88 0 171 46t124 111v447q-41 67 -124 113t-171 47q-147 0 -233 -108q-86 -107 -86 -275t86 -274t233 -107zM1024 0h-154v147q-126 -172 -328 -172q-202 1 -324 141t-122 377t123 379t323 142t328 -174v149h154v-989zM739 1139h-116l-347 295h160z" />
    <glyph glyph-name="acircumflex.alt1" horiz-adv-x="1177" 
d="M575 113q88 0 171 46t124 111v447q-41 67 -124 113t-171 47q-147 0 -233 -108q-86 -107 -86 -275t86 -274t233 -107zM1024 0h-154v147q-126 -172 -328 -172q-202 1 -324 141t-122 377t123 379t323 142t328 -174v149h154v-989zM872 1139h-104l-170 217l-164 -217h-104
l194 295h148z" />
    <glyph glyph-name="adieresis.alt1" horiz-adv-x="1177" 
d="M575 113q88 0 171 46t124 111v447q-41 67 -124 113t-171 47q-147 0 -233 -108q-86 -107 -86 -275t86 -274t233 -107zM1024 0h-154v147q-126 -172 -328 -172q-202 1 -324 141t-122 377t123 379t323 142t328 -174v149h154v-989zM483 1237q1 -39 -27 -67t-67 -28t-67 28
t-29 67q0 39 28 67q27 28 67 28t68 -28q27 -28 27 -67zM907 1237q-1 -39 -29 -67t-67 -28t-67 28t-27 67q0 39 27 67q28 28 68 28t68 -28q27 -28 27 -67z" />
    <glyph glyph-name="atilde.alt1" horiz-adv-x="1177" 
d="M575 113q88 0 171 46t124 111v447q-41 67 -124 113t-171 47q-147 0 -233 -108q-86 -107 -86 -275t86 -274t233 -107zM1024 0h-154v147q-126 -172 -328 -172q-202 1 -324 141t-122 377t123 379t323 142t328 -174v149h154v-989zM723 1135q-49 -1 -87 29t-57 65
q-51 94 -101 94t-78 -44t-27 -132h-92q0 123 52 199t146 75q49 1 87 -29t58 -65q52 -94 101 -94t77 44t27 132h93q0 -123 -52 -199t-147 -75z" />
    <glyph glyph-name="aring.alt1" horiz-adv-x="1177" 
d="M575 113q88 0 171 46t124 111v447q-41 67 -124 113t-171 47q-147 0 -233 -108q-86 -107 -86 -275t86 -274t233 -107zM1024 0h-154v147q-126 -172 -328 -172q-202 1 -324 141t-122 377t123 379t323 142t328 -174v149h154v-989zM475 1337q0 -49 35 -85t85 -35q50 -1 85 35
t35 85t-35 85t-85 36t-85 -36t-35 -85zM595 1135q-83 0 -142 59t-60 143q-1 83 59 143t143 60t141 -59t58 -143t-58 -144q-58 -59 -141 -59z" />
    <glyph glyph-name="amacron.alt1" horiz-adv-x="1177" 
d="M575 113q88 0 171 46t124 111v447q-41 67 -124 113t-171 47q-147 0 -233 -108q-86 -107 -86 -275t86 -274t233 -107zM1024 0h-154v147q-126 -172 -328 -172q-202 1 -324 141t-122 377t123 379t323 142t328 -174v149h154v-989zM975 1210h-744v99h744v-99z" />
    <glyph glyph-name="abreve.alt1" horiz-adv-x="1177" 
d="M575 113q88 0 171 46t124 111v447q-41 67 -124 113t-171 47q-147 0 -233 -108q-86 -107 -86 -275t86 -274t233 -107zM1024 0h-154v147q-126 -172 -328 -172q-202 1 -324 141t-122 377t123 379t323 142t328 -174v149h154v-989zM601 1153q-224 0 -361 180l77 66
q103 -147 283 -147t285 147l73 -66q-133 -180 -357 -180z" />
    <glyph glyph-name="aogonek.alt1" horiz-adv-x="1177" 
d="M575 113q88 0 171 46t124 111v447q-41 67 -124 113t-171 47q-147 0 -233 -108q-86 -107 -86 -275t86 -274t233 -107zM965 -381q-78 0 -131 45t-54 133q0 117 109 203h-19v147q-126 -172 -328 -172q-202 1 -324 141t-122 377t123 379t323 142t328 -174v149h154v-987l4 -2
q-156 -78 -156 -199q0 -102 93 -102q75 0 104 86l76 -43q-53 -123 -180 -123z" />
    <glyph glyph-name="yacute.alt1" horiz-adv-x="1128" 
d="M307 358q0 -227 211 -227q96 0 177 44t126 106v708h154v-977q0 -201 -129 -307t-341 -106t-362 149l78 111q106 -133 301 -133q139 0 219 76t80 210v148q-61 -70 -154 -117t-198 -47q-315 0 -315 315v678h153v-631zM891 1434l-346 -295h-117l303 295h160z" />
    <glyph glyph-name="ydieresis.alt1" horiz-adv-x="1128" 
d="M307 358q0 -227 211 -227q96 0 177 44t126 106v708h154v-977q0 -201 -129 -307t-341 -106t-362 149l78 111q106 -133 301 -133q139 0 219 76t80 210v148q-61 -70 -154 -117t-198 -47q-315 0 -315 315v678h153v-631zM440 1237q0 -39 -28 -67t-66 -28q-40 0 -68 28t-28 67
t28 67t68 28t67 -28t27 -67zM864 1237q0 -39 -28 -67t-68 -28q-39 0 -67 28t-27 67q0 39 27 67q28 28 68 28t68 -28q27 -28 27 -67z" />
    <glyph glyph-name="ae.alt1" horiz-adv-x="1916" 
d="M1673 559q-2 125 -86 226t-235 101q-150 0 -236 -100t-92 -227h649zM575 113q88 0 171 46t124 111v447q-41 67 -124 113t-171 47q-147 0 -233 -108q-86 -107 -86 -275t86 -274t233 -107zM1024 0h-154v147q-126 -172 -328 -172q-202 1 -324 141t-122 377t123 379t323 142
t328 -174v149h154v-192q119 217 360 217q203 0 322 -151t119 -380v-39h-801q10 -145 105 -241q95 -97 265 -97t292 125l73 -102q-147 -154 -358 -154q-260 0 -377 215v-190z" />
    <glyph glyph-name="zero.pzero" horiz-adv-x="1253" 
d="M279 652q0 -177 61 -320l504 807q-86 96 -213 96t-209 -84t-112 -203t-31 -296zM622 127q128 0 210 85t112 204q31 119 31 297t-64 319l-503 -807q86 -98 214 -98zM627 -25q-180 0 -305 113l-56 -88h-133l111 176q-140 196 -140 486t120 496q133 228 422 228
q155 0 282 -110l57 90h133l-110 -178q141 -197 141 -486t-120 -497q-61 -104 -165 -167t-237 -63z" />
    <glyph glyph-name="Gcircumflex.alt1" horiz-adv-x="1519" 
d="M1450 702q0 -328 -173 -528t-472 -201q-299 0 -500 199t-201 511t202 509t514 197t517 -254l-135 -86q-66 86 -171 137t-224 51q-227 0 -377 -156q-150 -157 -150 -399t152 -398q150 -156 362 -157q212 0 328 120t144 304h-561v151h745zM1077 1491h-104l-170 217
l-164 -217h-104l194 295h148z" />
    <glyph glyph-name="Gdotaccent.alt1" horiz-adv-x="1519" 
d="M1450 702q0 -328 -173 -528t-472 -201q-299 0 -500 199t-201 511t202 509t514 197t517 -254l-135 -86q-66 86 -171 137t-224 51q-227 0 -377 -156q-150 -157 -150 -399t152 -398q150 -156 362 -157q212 0 328 120t144 304h-561v151h745zM801 1489q-39 0 -68 29
q-29 30 -29 68t29 67t68 29t67 -28t29 -69q-1 -41 -29 -69t-67 -27z" />
    <glyph glyph-name="Gcircumflex.smcp.alt1" horiz-adv-x="1282" 
d="M969 1241h-105l-170 217l-164 -217h-104l195 295h147zM692 -25q-252 0 -424 165t-172 423t173 423t438 165t444 -207l-125 -84q-126 150 -320 150t-319 -126t-125 -320t125 -320t311 -127q147 0 252 90q104 90 125 246h-424v135h596q1 -279 -151 -446t-404 -167z" />
    <glyph glyph-name="Gdotaccent.smcp.alt1" horiz-adv-x="1282" 
d="M702 1288q-40 0 -68 29t-28 67t29 68q29 29 67 29t68 -28q29 -28 29 -69q0 -40 -29 -68t-68 -28zM692 -25q-252 0 -424 165t-172 423t173 423t438 165t444 -207l-125 -84q-126 150 -320 150t-319 -126t-125 -320t125 -320t311 -127q147 0 252 90q104 90 125 246h-424v135
h596q1 -279 -151 -446t-404 -167z" />
    <glyph glyph-name="aeacute.alt1" horiz-adv-x="1820" 
d="M1268 1434l-346 -295h-117l303 295h160zM1673 559q-2 125 -86 226t-235 101q-150 0 -236 -100t-92 -227h649zM575 113q88 0 171 46t124 111v447q-41 67 -124 113t-171 47q-147 0 -233 -108q-86 -107 -86 -275t86 -274t233 -107zM1024 0h-154v147q-126 -172 -328 -172
q-202 1 -324 141t-122 377t123 379t323 142t328 -174v149h154v-192q119 217 360 217q203 0 322 -151t119 -380v-39h-801q10 -145 105 -241q95 -97 265 -97t292 125l73 -102q-147 -154 -358 -154q-260 0 -377 215v-190z" />
    <glyph glyph-name="ycircumflex.alt1" horiz-adv-x="1128" 
d="M307 358q0 -227 211 -227q96 0 177 44t126 106v708h154v-977q0 -201 -129 -307t-341 -106t-362 149l78 111q106 -133 301 -133q139 0 219 76t80 210v148q-61 -70 -154 -117t-198 -47q-315 0 -315 315v678h153v-631zM840 1139h-105l-170 217l-164 -217h-104l195 295h147z
" />
    <glyph glyph-name="ldot.alt1" horiz-adv-x="628" 
d="M657 501q1 -46 -33 -79t-79 -33t-79 33t-34 79t34 79q34 32 79 32t79 -32q33 -33 33 -79zM307 240q1 -128 111 -128q58 0 92 44l47 -117q-69 -64 -181 -64q-222 0 -222 232v1159h153v-1126z" />
    <glyph glyph-name="fl.alt1" horiz-adv-x="1130" 
d="M889 240q-1 -128 109 -128q58 0 94 44l47 -117q-70 -64 -182 -64q-220 0 -222 232v1159h154v-1126zM350 0h-153v854h-164v135h164v76q0 152 78 237q79 85 208 84q92 0 152 -32l-39 -117q-39 23 -88 23q-158 0 -158 -195v-76h201v-135h-201v-854z" />
    <glyph glyph-name="f_f_l.alt1" horiz-adv-x="1712" 
d="M1468 240q0 -128 110 -128q58 0 93 44l47 -117q-69 -64 -181 -64q-222 0 -222 232v1159h153v-1126zM932 0h-154v854h-164v135h164v76q0 152 79 237t208 84q92 0 152 -32l-39 -117q-39 23 -88 23q-158 0 -158 -195v-76h201v-135h-201v-854zM350 0h-153v854h-164v135h164
v76q0 152 77 237q78 84 207 84t211 -75l-63 -99q-53 47 -121 48q-158 0 -158 -195v-76h201v-135h-201v-854z" />
    </font>
</defs>
</svg>
